<svg width="80" height="80" viewBox="0 0 80 80" fill="none" xmlns="http://www.w3.org/2000/svg">
<path d="M44.3573 64.5473L30.8136 69.3763L30.3001 71.171C29.5709 73.7256 26.8007 75.8149 24.1448 75.8149V77.0222H52.2333L44.3573 64.5473Z" fill="#ADACA7"/>
<path d="M49.6998 71.171L47.8069 64.5473L40 59.7183L32.1932 64.5473L30.8137 69.3763H44.3574L44.8709 71.171C45.6 73.7256 48.3703 75.8149 51.0262 75.8149L53.4407 77.0221L55.8552 75.8149C53.1992 75.8149 50.429 73.7256 49.6998 71.171Z" fill="#8F8F8B"/>
<path d="M70.342 64.5473H75.171C77.827 64.5473 80 62.3742 80 59.7183V50.0604L70.342 40.4024V64.5473Z" fill="#ADACA7"/>
<path d="M0 59.7183C0 62.3742 2.17304 64.5473 4.82897 64.5473H70.342C72.998 64.5473 75.171 62.3742 75.171 59.7183V30.7444L0 50.0603V59.7183Z" fill="#CBC9C2"/>
<path d="M75.171 1.77063H70.342L75.171 50.0604H80V6.5996C80 3.94367 77.827 1.77063 75.171 1.77063Z" fill="#404242"/>
<path d="M75.171 6.5996C75.171 3.94367 72.998 1.77063 70.342 1.77063H4.82897C2.17304 1.77063 0 3.94367 0 6.5996V50.0604H75.171V45.2314L40 25.9134L75.171 6.5996Z" fill="#565959"/>
<path d="M75.171 6.59878L70.343 6.5954C70.343 6.5962 40 25.9134 40 25.9134C40 25.9134 70.3424 45.231 70.3421 45.2314L75.1709 45.2282C75.171 45.2282 75.1705 6.59942 75.171 6.59878Z" fill="#4B88D5"/>
<path d="M70.3419 6.59882L4.84302 6.59528C4.839 6.59721 4.83562 45.2306 4.82886 45.2314C4.82886 45.2314 70.3387 45.2282 70.3403 45.2282C70.3411 45.2282 70.3352 6.59946 70.3419 6.59882Z" fill="#69A7FF"/>
<path d="M39.9999 59.7183C41.3334 59.7183 42.4144 58.6373 42.4144 57.3038C42.4144 55.9703 41.3334 54.8893 39.9999 54.8893C38.6665 54.8893 37.5854 55.9703 37.5854 57.3038C37.5854 58.6373 38.6665 59.7183 39.9999 59.7183Z" fill="white"/>
<path d="M64.9497 78.2294H15.0503C14.3835 78.2294 13.843 77.689 13.843 77.0221C13.843 76.3552 14.3835 75.8149 15.0503 75.8149H64.9497C65.6164 75.8149 66.1569 76.3552 66.1569 77.0221C66.1569 77.689 65.6164 78.2294 64.9497 78.2294Z" fill="#8F8F8B"/>
</svg>
