<svg width="80" height="80" viewBox="0 0 80 80" fill="none" xmlns="http://www.w3.org/2000/svg">
<g clip-path="url(#clip0_114_1988)">
<path d="M55.6918 33.4922L48.1691 32.5849C45.5691 32.3839 42.8168 32.2756 39.967 32.2756C37.1405 32.2756 34.4099 32.3822 31.8287 32.58L24.3098 33.4806C16.379 34.8211 11.1309 37.1502 11.1309 39.7991C11.1309 43.9542 24.0412 47.8053 39.967 47.8053C55.8927 47.8053 68.803 43.9542 68.803 39.7991C68.803 37.1575 63.5846 34.8344 55.6918 33.4922Z" fill="#DBEDFF"/>
<path d="M21.4968 39.765C21.4968 36.9625 24.4807 34.4745 29.0943 32.9075L24.3098 33.4806C16.379 34.8211 11.1309 37.1502 11.1309 39.7991C11.1309 43.0361 18.967 46.0884 29.9596 47.2792C24.8562 45.5769 21.4968 42.7392 21.4968 39.765Z" fill="#B5DCFF"/>
<path d="M53.9027 28.8888C53.3301 29.6883 52.4299 30.1772 51.4501 30.2603C50.3226 30.3561 49.2377 30.9314 48.5277 31.9506C47.4033 33.5645 47.6537 35.8064 49.1058 37.1331C50.8116 38.6917 53.4497 38.4689 54.8758 36.6964C55.598 35.7988 55.8652 34.6827 55.7077 33.6264C55.5663 32.677 55.8896 31.7167 56.5322 31.0037L79.0802 5.98438C80.4551 4.45875 80.2657 2.0911 78.6655 0.803595C77.0654 -0.483905 74.7121 -0.162186 73.5162 1.50735L53.9027 28.8888Z" fill="#FFE97B"/>
<path d="M26.0974 28.8887C26.67 29.6883 27.5702 30.1772 28.55 30.2603C29.6775 30.3561 30.7624 30.9314 31.4724 31.9506C32.5967 33.5645 32.3464 35.8064 30.8942 37.1331C29.1884 38.6917 26.5503 38.4689 25.1242 36.6964C24.402 35.7987 24.1348 34.6827 24.2924 33.6264C24.4338 32.677 24.1105 31.7167 23.4678 31.0037L0.919694 5.98437C-0.45515 4.45875 -0.265619 2.09109 1.33454 0.803748C2.93469 -0.483752 5.28797 -0.162033 6.48391 1.5075L26.0974 28.8887Z" fill="#FFE97B"/>
<path d="M51.4693 33.2291C52.1794 32.2098 53.2641 31.6345 54.3918 31.5387C55.3718 31.4555 56.2718 30.9667 56.8446 30.1672L76.4579 2.78594C77.1168 1.86609 78.1272 1.3564 79.1693 1.29844C79.0207 1.12094 78.8533 0.954685 78.6657 0.803748C77.0655 -0.483752 74.7122 -0.162033 73.5163 1.5075L53.9029 28.8887C53.3302 29.6883 52.4301 30.1772 51.4501 30.2603C50.3226 30.3561 49.2377 30.9314 48.5277 31.9506C47.4033 33.5645 47.6537 35.8064 49.1058 37.1331C49.8821 37.8423 50.8515 38.1816 51.8116 38.1748C50.5722 36.8302 50.409 34.7508 51.4693 33.2291Z" fill="#F4DD45"/>
<path d="M27.538 35.5702C26.8158 34.6725 26.5486 33.5564 26.7061 32.5002C26.8475 31.5508 26.5242 30.5905 25.8816 29.8775L3.33344 4.85797C2.07251 3.45875 2.12829 1.35219 3.38032 0.0192184C2.65954 0.0579684 1.94251 0.314375 1.33454 0.803593C-0.265619 2.09109 -0.45515 4.45875 0.919694 5.98437L23.4678 31.0037C24.1105 31.7167 24.4338 32.677 24.2924 33.6264C24.135 34.6827 24.402 35.7987 25.1242 36.6964C26.5503 38.4688 29.1883 38.6917 30.8942 37.1331C30.9297 37.1006 30.9611 37.0653 30.9952 37.0317C29.7159 37.1498 28.4038 36.6461 27.538 35.5702Z" fill="#F4DD45"/>
<path d="M39.9669 26.7219C39.3003 26.7219 38.76 26.1816 38.76 25.515V21.58C38.76 20.9134 39.3003 20.3731 39.9669 20.3731C40.6334 20.3731 41.1738 20.9134 41.1738 21.58V25.515C41.1738 26.1817 40.6334 26.7219 39.9669 26.7219Z" fill="#7FB3FA"/>
<path d="M33.4628 28.465C33.0456 28.465 32.6399 28.2486 32.4165 27.8614L30.449 24.4538C30.1157 23.8766 30.3135 23.1384 30.8907 22.8052C31.4679 22.472 32.206 22.6695 32.5393 23.2469L34.5068 26.6545C34.8401 27.2317 34.6423 27.9698 34.0651 28.3031C33.8749 28.413 33.6674 28.465 33.4628 28.465Z" fill="#7FB3FA"/>
<path d="M46.4711 28.465C46.2664 28.465 46.0589 28.4128 45.8687 28.3031C45.2916 27.9698 45.0937 27.2317 45.427 26.6545L47.3945 23.2469C47.7278 22.6695 48.4658 22.472 49.0431 22.8052C49.6203 23.1384 49.8181 23.8766 49.4848 24.4538L47.5173 27.8614C47.2937 28.2488 46.8881 28.465 46.4711 28.465Z" fill="#7FB3FA"/>
<path d="M39.967 52.5036C54.867 52.5036 67.2674 49.555 68.803 45.7723V39.7989C68.803 43.9541 55.8927 47.3225 39.967 47.3225C24.0412 47.3225 11.1309 43.9541 11.1309 39.7989V44.98C11.1309 49.1352 24.0412 52.5036 39.967 52.5036Z" fill="#477B9E"/>
<path d="M20.5452 45.36C14.7609 43.9841 11.1309 42.0022 11.1309 39.7989V44.98C11.1309 47.1831 14.7609 49.1652 20.5452 50.5411V45.36Z" fill="#365E7D"/>
<path d="M39.967 75.1223C24.0412 75.1223 11.1309 71.7541 11.1309 67.5989V72.4631C11.1309 76.6183 24.0412 79.9866 39.967 79.9866C55.8927 79.9866 68.803 76.6183 68.803 72.4631V68.3913C67.2674 72.1738 54.867 75.1223 39.967 75.1223Z" fill="#477B9E"/>
<path d="M20.5452 73.1598C14.7609 71.7839 11.1309 69.802 11.1309 67.5989V72.4631C11.1309 74.6663 14.7609 76.6481 20.5452 78.0241V73.1598Z" fill="#365E7D"/>
<path d="M39.967 52.1817C24.0412 52.1817 11.1309 48.8133 11.1309 44.6581V67.9206C11.1309 72.0758 24.0412 75.4441 39.967 75.4441C55.8927 75.4441 68.803 72.0758 68.803 67.9206V44.6581C68.803 48.8134 55.8927 52.1817 39.967 52.1817Z" fill="#F87C68"/>
<path d="M20.5452 50.2194C14.7609 48.8434 11.1309 46.8616 11.1309 44.6583V67.9208C11.1309 70.1239 14.7609 72.1058 20.5452 73.4817V50.2194Z" fill="#EC625E"/>
<path d="M39.9668 76.6513C39.4692 76.6513 39.0032 76.3411 38.8285 75.845L30.5237 52.2653C30.3023 51.6367 30.6324 50.9475 31.261 50.7261C31.8896 50.505 32.5788 50.835 32.8003 51.4636L41.1051 75.0433C41.3265 75.6719 40.9964 76.3611 40.3678 76.5825C40.2353 76.6291 40.0998 76.6513 39.9668 76.6513Z" fill="#FCC101"/>
<path d="M21.5051 74.907C21.0009 74.907 20.5306 74.5884 20.3612 74.0841L11.3864 47.3627C11.1742 46.7308 11.5143 46.0466 12.1462 45.8345C12.7778 45.6214 13.4623 45.9624 13.6745 46.5944L22.6493 73.3158C22.8615 73.9477 22.5214 74.6319 21.8895 74.8439C21.7621 74.8867 21.6325 74.907 21.5051 74.907Z" fill="#FCC101"/>
<path d="M58.4294 74.907C57.9744 74.907 57.539 74.6486 57.3344 74.2089L47.1776 52.3734C46.8965 51.7691 47.1585 51.0512 47.7629 50.7702C48.3673 50.4894 49.0849 50.7511 49.3662 51.3555L59.523 73.1908C59.8041 73.7952 59.5421 74.513 58.9377 74.7941C58.773 74.8706 58.5999 74.907 58.4294 74.907Z" fill="#FCC101"/>
<path d="M21.5044 74.907C21.3339 74.907 21.161 74.8708 20.9963 74.7942C20.3919 74.5131 20.1299 73.7953 20.411 73.191L30.5678 51.3556C30.8489 50.7513 31.5669 50.4895 32.1711 50.7703C32.7755 51.0514 33.0375 51.7692 32.7564 52.3736L22.5996 74.2089C22.3949 74.6485 21.9592 74.907 21.5044 74.907Z" fill="#F4DD45"/>
<path d="M39.967 76.6513C39.834 76.6513 39.6987 76.6291 39.566 76.5825C38.9373 76.3611 38.6071 75.6719 38.8287 75.0433L47.1335 51.4636C47.355 50.8348 48.0442 50.5052 48.6728 50.7261C49.3015 50.9475 49.6317 51.6367 49.4101 52.2653L41.1053 75.845C40.9306 76.3411 40.4646 76.6513 39.967 76.6513Z" fill="#F4DD45"/>
<path d="M58.4288 74.907C58.3013 74.907 58.1719 74.8867 58.0444 74.8439C57.4125 74.6317 57.0724 73.9475 57.2846 73.3158L66.2594 46.5944C66.4716 45.9625 67.1561 45.6222 67.7877 45.8345C68.4196 46.0467 68.7597 46.7309 68.5475 47.3627L59.5727 74.0841C59.4033 74.5884 58.933 74.907 58.4288 74.907Z" fill="#F4DD45"/>
</g>
<defs>
<clipPath id="clip0_114_1988">
<rect width="80" height="80" fill="white"/>
</clipPath>
</defs>
</svg>
