<svg width="54" height="54" viewBox="0 0 54 54" fill="none" xmlns="http://www.w3.org/2000/svg">
<g clip-path="url(#clip0_70_524)">
<path d="M10.125 13.5V37.125H8.4375V43.0312V48.0938V52.3125H13.9556C13.6688 51.8147 13.5 51.2409 13.5 50.625C13.5 48.7603 15.0103 47.25 16.875 47.25C18.1406 47.25 19.2375 47.9419 19.8197 48.9713L20.25 48.9375C20.6297 48.9375 20.9841 49.0134 21.3216 49.1231C21.7013 47.8997 22.5366 46.8703 23.625 46.2459V46.2375V27V13.5H10.125Z" fill="#FFEAA7"/>
<path d="M40.5 5.0625V23.625H35.4375V27H33.75V47.3597C33.48 47.2838 33.2016 47.25 32.9062 47.25C32.0034 47.25 31.1934 47.6044 30.5859 48.1781C29.7253 46.6172 28.0631 45.5625 26.1562 45.5625C25.2366 45.5625 24.3675 45.8072 23.625 46.2375V27V13.5V8.4375L28.6875 7.425L32.0625 6.75L35.4375 6.075L40.5 5.0625Z" fill="#DFB28B"/>
<path d="M47.25 18.5625V23.625H43.875V18.5625H45.5625H47.25Z" fill="#FCD770"/>
<path d="M48.9375 23.625V27H35.4375V23.625H40.5H43.875H47.25H48.9375Z" fill="#CCD1D9"/>
<path d="M48.9375 27H35.4375H33.75V52.3125H50.625V27H48.9375Z" fill="#E6E9ED"/>
<path d="M42.1875 30.375H37.125V46.2459C37.8675 45.8072 38.7366 45.5625 39.6562 45.5625C40.5844 45.5625 41.445 45.8156 42.1875 46.2459C43.2591 46.8619 44.0775 47.8575 44.4656 49.0556C44.82 48.9797 45.1828 48.9375 45.5625 48.9375C46.1531 48.9375 46.7184 49.0387 47.25 49.2328V49.2244V30.375H42.1875Z" fill="#AAB2BD"/>
<path d="M33.75 11.8125H37.125V16.875H33.75V11.8125Z" fill="#69D6F4"/>
<path d="M27 11.8125H30.375V16.875H27V11.8125Z" fill="#69D6F4"/>
<path d="M27 20.25H30.375V25.3125H27V20.25Z" fill="#69D6F4"/>
<path d="M27 28.6875H30.375V33.75H27V28.6875Z" fill="#69D6F4"/>
<path d="M27 37.125H30.375V42.1875H27V37.125Z" fill="#69D6F4"/>
<path d="M9.28969 37.0322C9.01125 37.0997 8.73281 37.125 8.4375 37.125C5.64469 37.125 3.375 34.4841 3.375 31.2188C3.375 27.9534 5.64469 25.3125 8.4375 25.3125C9.02812 25.3125 9.59344 25.4306 10.125 25.65C11.1628 26.0719 12.0403 26.8819 12.6394 27.9366C13.1878 28.8731 13.5 29.9953 13.5 31.2188C13.5 34.1466 11.6775 36.5681 9.28969 37.0322Z" fill="#B4DD7F"/>
<path d="M16.335 28.8478C17.6766 29.9109 18.5625 31.7081 18.5625 33.75C18.5625 37.0153 16.2928 39.6562 13.5 39.6562C11.745 39.6562 10.2009 38.6184 9.28969 37.0322C11.6775 36.5681 13.5 34.1466 13.5 31.2188C13.5 29.9953 13.1878 28.8731 12.6394 27.9366H12.6478C12.9262 27.8775 13.2047 27.8438 13.5 27.8438C14.5462 27.8438 15.525 28.215 16.335 28.8478Z" fill="#A0D468"/>
<path d="M5.0625 47.25C6.92646 47.25 8.4375 45.3612 8.4375 43.0312C8.4375 40.7013 6.92646 38.8125 5.0625 38.8125C3.19854 38.8125 1.6875 40.7013 1.6875 43.0312C1.6875 45.3612 3.19854 47.25 5.0625 47.25Z" fill="#A0D468"/>
<path d="M50.3381 52.3125H13.9556C13.6688 51.8147 13.5 51.2409 13.5 50.625C13.5 48.7603 15.0103 47.25 16.875 47.25C18.1406 47.25 19.2375 47.9419 19.8197 48.9713L20.25 48.9375C20.6297 48.9375 20.9841 49.0134 21.3216 49.1231C21.7013 47.8997 22.5366 46.8703 23.625 46.2459V46.2375C24.3675 45.8072 25.2366 45.5625 26.1562 45.5625C28.0631 45.5625 29.7253 46.6172 30.5859 48.1781C31.1934 47.6044 32.0034 47.25 32.9062 47.25C33.2016 47.25 33.48 47.2838 33.75 47.3597C34.3153 47.5031 34.8131 47.79 35.2266 48.1781C35.6737 47.3681 36.3319 46.7016 37.125 46.2459C37.8675 45.8072 38.7366 45.5625 39.6562 45.5625C40.5844 45.5625 41.445 45.8156 42.1875 46.2459C43.2591 46.8619 44.0775 47.8575 44.4656 49.0556C44.82 48.9797 45.1828 48.9375 45.5625 48.9375C46.1531 48.9375 46.7184 49.0387 47.25 49.2328C48.6844 49.7391 49.8234 50.8781 50.3381 52.3125Z" fill="#B4DD7F"/>
<path d="M51.4688 51.4688V26.1562H49.7812V22.7812H48.0938V17.7188H46.4062V14.3438H44.7188V17.7188H43.0312V22.7812H41.3438V4.03313L36.2812 5.04563V2.53125H34.5938V5.38313L32.9062 5.72063V0.84375H31.2188V6.05813L29.5312 6.39563V2.53125H27.8438V6.73397L22.7812 7.74647V12.6562H7.59375V14.3438H9.28125V24.5455C9.0045 24.5 8.72437 24.4688 8.4375 24.4688C5.18147 24.4688 2.53125 27.497 2.53125 31.2188C2.53125 34.6123 4.73681 37.4212 7.59375 37.892V38.9914C6.88753 38.3527 6.01256 37.9688 5.0625 37.9688C2.73628 37.9688 0.84375 40.2393 0.84375 43.0312C0.84375 45.4764 2.29584 47.5208 4.21875 47.9917V51.4688H0.84375V53.1562H53.1562V51.4688H51.4688ZM14.3438 50.625C14.3438 49.2294 15.4794 48.0938 16.875 48.0938C17.7862 48.0938 18.6317 48.5873 19.0814 49.3822L19.343 49.8454L20.25 49.7812C20.4981 49.7812 20.7596 49.8293 21.0499 49.9272L21.87 50.2023L22.1257 49.3763C22.6749 47.6002 24.2949 46.4062 26.1562 46.4062C27.6902 46.4062 29.106 47.2424 29.851 48.589L30.3784 49.5442L31.1698 48.7932C32.1207 47.8921 33.6909 47.8921 34.6418 48.7932L35.4333 49.5442L35.9606 48.589C36.7065 47.2424 38.1223 46.4062 39.6562 46.4062C41.488 46.4062 43.0996 47.5774 43.6666 49.3206L43.9037 50.0487L44.6521 49.8833C46.3244 49.5121 47.9588 50.2006 48.9198 51.4688H14.5074C14.4113 51.1971 14.3438 50.9161 14.3438 50.625ZM49.7812 27.8438V49.8968C49.2919 49.3957 48.724 48.9831 48.0938 48.681V29.5312H36.2812V45.7903C35.8079 46.1211 35.3768 46.5143 35.0139 46.9749C34.8789 46.8965 34.7372 46.8298 34.5938 46.7682V27.8438H49.7812ZM39.6562 44.7188C39.0757 44.7188 38.5096 44.8133 37.9688 44.9753V31.2188H41.3438V44.9634C40.8063 44.804 40.2393 44.7188 39.6562 44.7188ZM43.0312 31.2188H46.4062V48.1731C45.9481 48.1064 45.4815 48.0743 45.0048 48.1208C44.5584 47.1648 43.8683 46.3733 43.0312 45.7886V31.2188ZM36.2812 26.1562V24.4688H48.0938V26.1562H36.2812ZM44.7188 19.4062H46.4062V22.7812H44.7188V19.4062ZM39.6562 6.09187V22.7812H34.5938V26.1562H32.9062V46.4189C32.1705 46.4189 31.4356 46.6045 30.7986 46.9749C29.689 45.565 27.983 44.7188 26.1562 44.7188C25.5724 44.7188 25.0054 44.8031 24.4688 44.9609V9.12853L39.6562 6.09187ZM10.9688 14.3438H22.7812V45.7827C21.9375 46.37 21.2439 47.169 20.7976 48.1359C20.6196 48.1115 20.439 48.098 20.2517 48.0963C19.4611 47.0424 18.2107 46.4062 16.875 46.4062C14.5488 46.4062 12.6562 48.2988 12.6562 50.625C12.6562 50.9102 12.6942 51.1912 12.7508 51.4688H9.28125V48.4051L14.3438 42.4997V40.4232C17.2007 39.9524 19.4062 37.1436 19.4062 33.75C19.4062 31.2103 18.171 28.9955 16.3527 27.8438H17.7188V26.1562H16.0312V27.6607C15.2626 27.2413 14.4062 27 13.5 27C13.3549 27 13.2064 27.0093 13.0562 27.0236C12.4985 26.2229 11.7847 25.5741 10.9688 25.1294V14.3438ZM14.3438 31.2188C14.3438 30.3328 14.1893 29.4882 13.9168 28.7128C16.0481 28.9651 17.7188 31.1276 17.7188 33.75C17.7188 36.542 15.8262 38.8125 13.5 38.8125C12.4352 38.8125 11.4235 38.3223 10.6515 37.4718C12.8132 36.4686 14.3438 34.0453 14.3438 31.2188ZM9.28125 38.459C10.1866 39.5204 11.367 40.214 12.6562 40.4258V41.8762L9.28125 45.8139V38.459ZM4.21875 31.2188C4.21875 28.4268 6.11128 26.1562 8.4375 26.1562C10.7637 26.1562 12.6562 28.4268 12.6562 31.2188C12.6562 33.6639 11.2042 35.7083 9.28125 36.1792V30.375H7.59375V36.1792C5.67084 35.7083 4.21875 33.6639 4.21875 31.2188ZM2.53125 43.0312C2.53125 41.1699 3.66694 39.6562 5.0625 39.6562C6.45806 39.6562 7.59375 41.1699 7.59375 43.0312C7.59375 44.8926 6.45806 46.4062 5.0625 46.4062C3.66694 46.4062 2.53125 44.8926 2.53125 43.0312ZM5.90625 47.9917C6.53062 47.8389 7.10269 47.5158 7.59375 47.072V51.4688H5.90625V47.9917Z" fill="black"/>
<path d="M31.2188 10.9688H26.1562V17.7188H31.2188V10.9688ZM29.5312 16.0312H27.8438V12.6562H29.5312V16.0312Z" fill="black"/>
<path d="M31.2188 19.4062H26.1562V26.1562H31.2188V19.4062ZM29.5312 24.4688H27.8438V21.0938H29.5312V24.4688Z" fill="black"/>
<path d="M31.2188 27.8438H26.1562V34.5938H31.2188V27.8438ZM29.5312 32.9062H27.8438V29.5312H29.5312V32.9062Z" fill="black"/>
<path d="M31.2188 36.2812H26.1562V43.0312H31.2188V36.2812ZM29.5312 41.3438H27.8438V37.9688H29.5312V41.3438Z" fill="black"/>
<path d="M37.9688 10.9688H32.9062V17.7188H37.9688V10.9688ZM36.2812 16.0312H34.5938V12.6562H36.2812V16.0312Z" fill="black"/>
<path d="M16.0312 16.0312H17.7188V17.7188H16.0312V16.0312Z" fill="black"/>
<path d="M19.4062 16.0312H21.0938V17.7188H19.4062V16.0312Z" fill="black"/>
<path d="M12.6562 16.0312H14.3438V17.7188H12.6562V16.0312Z" fill="black"/>
<path d="M16.0312 19.4062H17.7188V21.0938H16.0312V19.4062Z" fill="black"/>
<path d="M12.6562 19.4062H14.3438V21.0938H12.6562V19.4062Z" fill="black"/>
<path d="M19.4062 19.4062H21.0938V21.0938H19.4062V19.4062Z" fill="black"/>
<path d="M12.6562 22.7812H14.3438V24.4688H12.6562V22.7812Z" fill="black"/>
<path d="M16.0312 22.7812H17.7188V24.4688H16.0312V22.7812Z" fill="black"/>
<path d="M19.4062 22.7812H21.0938V24.4688H19.4062V22.7812Z" fill="black"/>
<path d="M19.4062 26.1562H21.0938V27.8438H19.4062V26.1562Z" fill="black"/>
</g>
<defs>
<clipPath id="clip0_70_524">
<rect width="54" height="54" fill="white"/>
</clipPath>
</defs>
</svg>
