<svg width="52" height="52" viewBox="0 0 52 52" fill="none" xmlns="http://www.w3.org/2000/svg">
<g clip-path="url(#clip0_70_94)">
<path d="M39.6848 22.2428V43.2883H9.64114C8.98912 43.2883 8.45999 42.7396 8.45999 42.0634V22.2428H39.6848Z" fill="#C4A098"/>
<path d="M39.6848 22.2428V22.2987C37.5154 25.1002 34.1843 26.8939 30.4499 26.8939C26.6901 26.8939 23.3406 25.0771 21.1723 22.2428H39.6848Z" fill="#A3847E"/>
<path d="M37.4821 22.2432H39.6848V43.2883H37.4821V22.2432Z" fill="#A3847E"/>
<path d="M43.9544 43.2882H39.6849V30.2784H43.9544V43.2882Z" fill="#FFCEBF"/>
<path d="M41.7516 30.2785H43.9543V43.2883H41.7516V30.2785Z" fill="#FFB09E"/>
<path d="M49.6772 46.2396L43.9543 43.2882V30.2785L49.6772 27.3271C50.3947 26.957 51.2373 27.4983 51.2373 28.3293V45.2374C51.2373 46.0685 50.3948 46.6097 49.6772 46.2396Z" fill="#7A6D79"/>
<path d="M49.6772 27.3271L48.8735 27.7416C48.974 27.9097 49.0347 28.1089 49.0347 28.3294V45.2374C49.0347 45.4579 48.9741 45.657 48.8735 45.8252L49.6772 46.2397C50.3947 46.6098 51.2373 46.0685 51.2373 45.2375V28.3293C51.2373 27.4983 50.3949 26.957 49.6772 27.3271Z" fill="#685E68"/>
<path d="M39.6848 43.2882H11.1924L11.6845 45.1011C12.1074 46.6589 13.4777 47.7352 15.0384 47.7352H37.6903C38.7919 47.7352 39.6848 46.8092 39.6848 45.6669V43.2882Z" fill="#9DC9EB"/>
<path d="M37.4822 43.2882V45.6668C37.4822 46.8092 36.5892 47.7353 35.4877 47.7353H37.6904C38.7919 47.7353 39.685 46.8093 39.685 45.6668V43.2882H37.4822Z" fill="#7EBAE6"/>
<path d="M8.46019 41.0446H4.69771C4.07157 41.0446 3.56396 40.5182 3.56396 39.8689V37.1427C3.56396 36.4933 4.07157 35.9669 4.69771 35.9669H8.46019V41.0446Z" fill="#A3847E"/>
<path d="M6.25746 35.967H8.46015V41.0446H6.25746V35.967Z" fill="#8E746E"/>
<path d="M18.2712 38.9142H14.7848C14.4409 38.9142 14.1622 38.625 14.1622 38.2685V35.2986C14.1622 34.942 14.441 34.653 14.7848 34.653H18.2712V38.9142Z" fill="#8CE1A4"/>
<path d="M18.2711 34.6527H22.3803V38.914H18.2711V34.6527Z" fill="#8CE1A4"/>
<path d="M22.3801 34.6527H26.4892V38.914H22.3801V34.6527Z" fill="#8CE1A4"/>
<path d="M26.4891 34.6527H30.5982V38.914H26.4891V34.6527Z" fill="#8CE1A4"/>
<path d="M34.0847 38.914H30.5982V34.6527H34.0846C34.4285 34.6527 34.7072 34.9419 34.7072 35.2984V38.2683C34.7073 38.6249 34.4285 38.914 34.0847 38.914Z" fill="#8CE1A4"/>
<path d="M34.0847 34.6527H31.8819C32.2258 34.6527 32.5045 34.9419 32.5045 35.2984V38.2683C32.5045 38.6249 32.2257 38.9139 31.8819 38.9139H34.0846C34.4285 38.9139 34.7071 38.6248 34.7071 38.2683V35.2984C34.7072 34.9419 34.4285 34.6527 34.0847 34.6527Z" fill="#78C2A4"/>
<path d="M32.6527 26.8939C39.1912 26.8939 44.4917 21.397 44.4917 14.6164C44.4917 7.8357 39.1912 2.33888 32.6527 2.33888C26.1142 2.33888 20.8137 7.8357 20.8137 14.6164C20.8137 21.397 26.1142 26.8939 32.6527 26.8939Z" fill="#E1DEE2"/>
<path d="M32.6527 2.33888C32.2813 2.33888 31.9141 2.35752 31.5514 2.39218C37.5734 2.96839 42.2891 8.2208 42.2891 14.6163C42.2891 21.0117 37.5733 26.2643 31.5514 26.8405C31.9141 26.8751 32.2813 26.8938 32.6527 26.8938C39.1912 26.8938 44.4917 21.3969 44.4917 14.6163C44.4917 7.83564 39.1912 2.33888 32.6527 2.33888Z" fill="#CBC4CC"/>
<path d="M8.4601 28.9869C12.3439 28.9869 15.4923 25.7219 15.4923 21.6943C15.4923 17.6667 12.3439 14.4017 8.4601 14.4017C4.57635 14.4017 1.42795 17.6667 1.42795 21.6943C1.42795 25.7219 4.57635 28.9869 8.4601 28.9869Z" fill="#E1DEE2"/>
<path d="M8.4601 14.4017C8.08534 14.4017 7.71769 14.4328 7.35878 14.4914C10.7192 15.0397 13.2895 18.0554 13.2895 21.6943C13.2895 25.3333 10.7192 28.349 7.35878 28.8973C7.71769 28.9559 8.08534 28.9869 8.4601 28.9869C12.3439 28.9869 15.4923 25.722 15.4923 21.6943C15.4923 17.6667 12.3439 14.4017 8.4601 14.4017Z" fill="#CBC4CC"/>
<path d="M32.6528 11.0335C34.007 11.0335 35.1048 9.89506 35.1048 8.49068C35.1048 7.08631 34.007 5.94785 32.6528 5.94785C31.2986 5.94785 30.2007 7.08631 30.2007 8.49068C30.2007 9.89506 31.2986 11.0335 32.6528 11.0335Z" fill="#7A6D79"/>
<path d="M32.6527 5.94774C32.2858 5.94774 31.9381 6.03189 31.6254 6.18166C32.4664 6.58474 33.0503 7.46672 33.0503 8.49058C33.0503 9.51443 32.4665 10.3964 31.6254 10.7995C31.938 10.9493 32.2858 11.0334 32.6527 11.0334C34.007 11.0334 35.1049 9.89497 35.1049 8.49058C35.1049 7.08619 34.007 5.94774 32.6527 5.94774Z" fill="#685E68"/>
<path d="M32.6528 23.285C34.007 23.285 35.1048 22.1465 35.1048 20.7422C35.1048 19.3378 34.007 18.1993 32.6528 18.1993C31.2986 18.1993 30.2007 19.3378 30.2007 20.7422C30.2007 22.1465 31.2986 23.285 32.6528 23.285Z" fill="#7A6D79"/>
<path d="M32.6527 18.1993C32.2858 18.1993 31.9381 18.2835 31.6254 18.4333C32.4664 18.8363 33.0503 19.7183 33.0503 20.7422C33.0503 21.766 32.4665 22.648 31.6254 23.0511C31.938 23.2009 32.2858 23.285 32.6527 23.285C34.007 23.285 35.1049 22.1466 35.1049 20.7422C35.1048 19.3378 34.007 18.1993 32.6527 18.1993Z" fill="#685E68"/>
<path d="M38.5597 17.1593C39.914 17.1593 41.0118 16.0208 41.0118 14.6164C41.0118 13.212 39.914 12.0736 38.5597 12.0736C37.2055 12.0736 36.1077 13.212 36.1077 14.6164C36.1077 16.0208 37.2055 17.1593 38.5597 17.1593Z" fill="#7A6D79"/>
<path d="M38.5597 12.0736C38.1928 12.0736 37.845 12.1577 37.5324 12.3075C38.3734 12.7106 38.9572 13.5926 38.9572 14.6164C38.9572 15.6403 38.3734 16.5223 37.5324 16.9253C37.845 17.0751 38.1928 17.1593 38.5597 17.1593C39.9139 17.1593 41.0118 16.0208 41.0118 14.6164C41.0118 13.212 39.9139 12.0736 38.5597 12.0736Z" fill="#685E68"/>
<path d="M26.7457 17.1593C28.0999 17.1593 29.1977 16.0208 29.1977 14.6164C29.1977 13.212 28.0999 12.0736 26.7457 12.0736C25.3915 12.0736 24.2937 13.212 24.2937 14.6164C24.2937 16.0208 25.3915 17.1593 26.7457 17.1593Z" fill="#7A6D79"/>
<path d="M26.7457 12.0736C26.3787 12.0736 26.031 12.1577 25.7184 12.3075C26.5593 12.7106 27.1432 13.5926 27.1432 14.6164C27.1432 15.6403 26.5594 16.5223 25.7184 16.9253C26.0309 17.0751 26.3787 17.1593 26.7457 17.1593C28.0999 17.1593 29.1978 16.0208 29.1978 14.6164C29.1978 13.212 28.0999 12.0736 26.7457 12.0736Z" fill="#685E68"/>
<path d="M51.1276 26.7063C50.5818 26.3557 49.9129 26.3237 49.3381 26.6198L43.7752 29.4886H40.4465V24.8844C42.8939 22.9156 44.6681 19.7901 45.1123 16.5772C45.1749 16.1458 44.8885 15.7434 44.4724 15.6785C44.058 15.6126 43.6685 15.9105 43.6059 16.3421C43.2153 19.0321 41.903 21.5014 39.9103 23.2951C37.8981 25.1064 35.3207 26.1041 32.6526 26.1041C26.5445 26.1041 21.5753 20.9508 21.5753 14.6165C21.5753 8.28221 26.5446 3.12901 32.6526 3.12901C35.289 3.12901 37.8431 4.10556 39.8444 5.87897C41.8242 7.63321 43.1499 10.0573 43.5773 12.7047C43.6468 13.1349 44.039 13.4243 44.4544 13.3534C44.8692 13.2812 45.1493 12.874 45.0799 12.4438C44.5934 9.43085 43.0855 6.67288 40.834 4.67787C38.5571 2.66033 35.6516 1.54918 32.6526 1.54918C25.7046 1.54918 20.0519 7.41109 20.0519 14.6165C20.0519 17.121 20.7354 19.4629 21.9184 21.453H16.248C16.1242 17.1079 12.6795 13.612 8.45999 13.612C4.16256 13.612 0.666237 17.2378 0.666237 21.6944C0.624191 26.0197 4.16358 29.8142 8.45999 29.777C12.3178 29.777 15.528 26.8546 16.1451 23.0329H23.0218C25.3351 25.8751 28.7937 27.6839 32.6526 27.6839C34.8677 27.6839 37.0275 27.0787 38.923 25.951V42.4984L9.64104 42.4985C9.40979 42.4985 9.22159 42.3033 9.22159 42.0635V32.7554C9.22159 32.319 8.88066 31.9654 8.45989 31.9654C8.03913 31.9654 7.69819 32.319 7.69819 32.7554V35.1772H4.69768C3.45275 35.1559 2.62737 36.4468 2.80226 37.7159H0.761704C0.340939 37.7159 0 38.0695 0 38.5058C0 38.9422 0.340939 39.2957 0.761704 39.2957H2.80226C2.62808 40.5583 3.40766 41.8169 4.69768 41.8344H7.69829C7.58617 42.9373 8.48305 44.091 9.64114 44.0782H10.6155C11.1109 46.7638 12.6158 48.4569 15.0384 48.5251H37.6903C39.2101 48.5251 40.4465 47.2428 40.4465 45.6668V44.0781H43.7752L49.3381 46.947C50.3477 47.5521 52.0479 46.6924 51.999 45.2374V28.3293C51.999 27.6637 51.6732 27.0569 51.1276 26.7063ZM14.7247 21.4529H9.2218V15.2415C12.2456 15.6231 14.611 18.2441 14.7247 21.4529ZM7.69839 15.2414V21.4531H2.19564C2.30918 18.2443 4.67453 15.6231 7.69839 15.2414ZM2.32401 23.0331H7.69829V28.1473C5.02755 27.8102 2.8698 25.7264 2.32401 23.0331ZM9.2217 28.1473V23.0327H14.5964C14.0506 25.7264 11.8926 27.8103 9.2217 28.1473ZM4.69768 40.2546C4.49253 40.2546 4.32567 40.0814 4.32567 39.8688V37.1428C4.32567 36.93 4.49263 36.757 4.69768 36.757H7.69829V40.2546H4.69768ZM12.4178 44.8871L12.1982 44.0782H33.0049V46.9453H15.0384C13.8244 46.9453 12.7468 46.0989 12.4178 44.8871ZM37.6903 46.9453H34.5282V44.0782H38.923V45.6668C38.9231 46.3717 38.3701 46.9453 37.6903 46.9453ZM40.4465 31.0684H43.1926V42.4983H40.4465V31.0684ZM50.4756 45.2374C50.4441 45.3894 50.4143 45.6099 50.0164 45.5324L44.716 42.7989V30.7679L50.0164 28.0345C50.1615 27.996 50.3652 27.9254 50.4756 28.3294V45.2374Z" fill="black"/>
<path d="M13.4003 38.2683C13.4003 39.0599 14.0213 39.7039 14.7847 39.7039H34.0845C34.8478 39.7039 35.4689 39.0599 35.4689 38.2683V35.2985C35.4689 34.5069 34.8478 33.8628 34.0845 33.8628H14.7847C14.0213 33.8628 13.4003 34.5069 13.4003 35.2985V38.2683ZM33.9455 38.124H31.3599V35.4426H33.9455V38.124ZM29.8364 38.124H27.2508V35.4426H29.8364V38.124ZM25.7274 38.124H23.1418V35.4426H25.7274V38.124ZM21.6184 38.124H19.0327V35.4426H21.6184V38.124ZM14.9237 35.4426H17.5093V38.124H14.9237V35.4426Z" fill="black"/>
<path d="M34.7073 31.7081C35.128 31.7081 35.469 31.3545 35.469 30.9181C35.469 30.4818 35.128 30.1282 34.7073 30.1282H31.8795C31.4587 30.1282 31.1177 30.4818 31.1177 30.9181C31.1177 31.3545 31.4587 31.7081 31.8795 31.7081H34.7073Z" fill="black"/>
<path d="M28.254 31.708C28.6748 31.708 29.0157 31.3545 29.0157 30.9181C29.0157 30.4818 28.6748 30.1282 28.254 30.1282H14.162C13.7412 30.1282 13.4003 30.4818 13.4003 30.9181C13.4003 31.3545 13.7412 31.708 14.162 31.708H28.254Z" fill="black"/>
<path d="M35.8664 8.49063C35.8664 6.65297 34.4248 5.15782 32.6526 5.15782C30.8805 5.15782 29.4388 6.65287 29.4388 8.49063C29.4388 10.3284 30.8805 11.8234 32.6526 11.8234C34.4248 11.8234 35.8664 10.3283 35.8664 8.49063ZM32.6527 10.2435C31.7206 10.2435 30.9624 9.45717 30.9624 8.49053C30.9624 7.52388 31.7206 6.73755 32.6527 6.73755C33.5849 6.73755 34.3431 7.52388 34.3431 8.49053C34.3431 9.45717 33.5849 10.2435 32.6527 10.2435Z" fill="black"/>
<path d="M32.6527 24.0749C34.4247 24.0749 35.8665 22.5799 35.8665 20.7421C35.8665 18.9043 34.4248 17.4093 32.6527 17.4093C30.8806 17.4093 29.4389 18.9043 29.4389 20.7421C29.4389 22.5799 30.8807 24.0749 32.6527 24.0749ZM32.6527 18.9892C33.5848 18.9892 34.3431 19.7756 34.3431 20.7422C34.3431 21.7089 33.5848 22.4952 32.6527 22.4952C31.7206 22.4952 30.9623 21.7089 30.9623 20.7422C30.9623 19.7756 31.7206 18.9892 32.6527 18.9892Z" fill="black"/>
<path d="M38.5597 17.9491C40.3317 17.9491 41.7735 16.454 41.7735 14.6163C41.7735 12.7785 40.3318 11.2836 38.5597 11.2836C36.7876 11.2836 35.3459 12.7785 35.3459 14.6163C35.3459 16.454 36.7877 17.9491 38.5597 17.9491ZM38.5597 12.8635C39.4918 12.8635 40.2501 13.6498 40.2501 14.6164C40.2501 15.583 39.4918 16.3694 38.5597 16.3694C37.6276 16.3694 36.8693 15.583 36.8693 14.6164C36.8693 13.6498 37.6276 12.8635 38.5597 12.8635Z" fill="black"/>
<path d="M26.7458 11.2837C24.9737 11.2837 23.532 12.7786 23.532 14.6164C23.532 16.4541 24.9736 17.9492 26.7458 17.9492C28.5179 17.9492 29.9594 16.4541 29.9594 14.6164C29.9594 12.7786 28.5178 11.2837 26.7458 11.2837ZM26.7458 16.3693C25.8136 16.3693 25.0554 15.5829 25.0554 14.6163C25.0554 13.6497 25.8136 12.8634 26.7458 12.8634C27.6778 12.8634 28.436 13.6497 28.436 14.6163C28.4359 15.5829 27.6777 16.3693 26.7458 16.3693Z" fill="black"/>
<path d="M32.6527 15.5174C33.0798 15.5174 33.4259 15.1584 33.4259 14.7156C33.4259 14.2728 33.0798 13.9138 32.6527 13.9138C32.2257 13.9138 31.8795 14.2728 31.8795 14.7156C31.8795 15.1584 32.2257 15.5174 32.6527 15.5174Z" fill="black"/>
<path d="M11.294 24.2531C10.8669 24.2531 10.5207 24.6122 10.5207 25.0551C10.5207 25.498 10.8669 25.8569 11.294 25.8569C11.721 25.8569 12.0673 25.4978 12.0673 25.0551C12.0673 24.6122 11.721 24.2531 11.294 24.2531Z" fill="black"/>
</g>
<defs>
<clipPath id="clip0_70_94">
<rect width="52" height="52" fill="white"/>
</clipPath>
</defs>
</svg>
