<svg width="52" height="52" viewBox="0 0 52 52" fill="none" xmlns="http://www.w3.org/2000/svg">
<g clip-path="url(#clip0_70_503)">
<path d="M6.93334 29.4667H2.6C1.64271 29.4667 0.866669 30.2427 0.866669 31.2V49.4C0.866669 50.3573 1.64271 51.1333 2.6 51.1333H6.93334C7.89063 51.1333 8.66667 50.3573 8.66667 49.4V31.2C8.66667 30.2427 7.89063 29.4667 6.93334 29.4667Z" fill="#02A9F4"/>
<path d="M6.93333 29.4667H4.33333C4.79261 29.468 5.2327 29.6511 5.55746 29.9759C5.88223 30.3006 6.06529 30.7407 6.06666 31.2V49.4C6.06529 49.8593 5.88223 50.2994 5.55746 50.6241C5.2327 50.9489 4.79261 51.132 4.33333 51.1333H6.93333C7.39262 51.132 7.8327 50.9489 8.15746 50.6241C8.48223 50.2994 8.66529 49.8593 8.66666 49.4V31.2C8.66529 30.7407 8.48223 30.3006 8.15746 29.9759C7.8327 29.6511 7.39262 29.468 6.93333 29.4667Z" fill="#0377BC"/>
<path d="M26 26.8667V34.6927C25.8359 34.6754 25.671 34.6667 25.506 34.6667H20.9733C20.0254 34.6673 19.0854 34.494 18.2 34.1553V26.8667C18.2 26.6368 18.2913 26.4164 18.4538 26.2538C18.6164 26.0913 18.8368 26 19.0667 26H25.1333C25.3632 26 25.5836 26.0913 25.7462 26.2538C25.9087 26.4164 26 26.6368 26 26.8667Z" fill="#91562D"/>
<path d="M49.9893 39.494L33.748 49.3827C32.7974 49.9611 31.7061 50.2669 30.5933 50.2667H8.66667V31.2H11.0933C12.8879 31.2071 14.6278 31.8176 16.0333 32.9333C16.6863 33.4528 17.4176 33.8653 18.2 34.1553C19.0854 34.494 20.0254 34.6673 20.9733 34.6667H25.506C25.671 34.6667 25.8359 34.6754 26 34.6927C26.6609 34.769 27.2954 34.9963 27.8544 35.3569C28.4135 35.7176 28.8821 36.202 29.224 36.7727L29.302 36.9027C29.6612 37.5029 29.8094 38.2059 29.723 38.9C29.6366 39.5942 29.3207 40.2395 28.8253 40.7333H30.862C31.2364 40.7335 31.6083 40.672 31.9627 40.5513L42.4667 37.05L48.0047 35.204C48.4783 35.0485 48.9886 35.0451 49.4642 35.1943C49.9398 35.3435 50.3568 35.6379 50.6567 36.036V36.0447C50.8559 36.3092 50.9974 36.6126 51.0721 36.9352C51.1467 37.2578 51.1527 37.5926 51.0898 37.9177C51.0269 38.2428 50.8965 38.5511 50.7069 38.8227C50.5173 39.0942 50.2729 39.3229 49.9893 39.494Z" fill="#FFE0B2"/>
<path d="M50.6567 36.0447V36.036C50.3568 35.6379 49.9398 35.3435 49.4642 35.1943C48.9886 35.0451 48.4782 35.0485 48.0047 35.204L47.3555 35.4207C47.6277 35.5773 47.866 35.7865 48.0567 36.036V36.0447C48.2559 36.3092 48.3974 36.6126 48.472 36.9352C48.5467 37.2578 48.5527 37.5926 48.4898 37.9177C48.4269 38.2428 48.2964 38.5511 48.1069 38.8227C47.9173 39.0942 47.6729 39.3229 47.3893 39.494L31.148 49.3827C30.1974 49.9611 29.1061 50.2669 27.9933 50.2667H30.5933C31.7061 50.2669 32.7974 49.9611 33.748 49.3827L49.9893 39.494C50.2729 39.3229 50.5173 39.0942 50.7069 38.8227C50.8965 38.5511 51.0269 38.2428 51.0898 37.9177C51.1527 37.5926 51.1467 37.2578 51.072 36.9352C50.9974 36.6126 50.8559 36.3092 50.6567 36.0447Z" fill="#DFC49C"/>
<path d="M42.4667 13.8667V37.05L31.9627 40.5513C31.6083 40.672 31.2364 40.7335 30.862 40.7333H28.8253C29.3207 40.2395 29.6366 39.5942 29.723 38.9C29.8094 38.2059 29.6612 37.5029 29.302 36.9027L29.224 36.7727C28.8821 36.202 28.4135 35.7176 27.8544 35.3569C27.2954 34.9963 26.6609 34.769 26 34.6927V26.8667C26 26.6368 25.9087 26.4164 25.7462 26.2538C25.5836 26.0913 25.3632 26 25.1333 26H19.0667C18.8368 26 18.6164 26.0913 18.4538 26.2538C18.2913 26.4164 18.2 26.6368 18.2 26.8667V34.1553C17.4176 33.8653 16.6863 33.4528 16.0333 32.9333C15.6285 32.6114 15.1931 32.3298 14.7333 32.0927V13.8667H42.4667Z" fill="#F5F5F5"/>
<path d="M39.8667 13.8667V37.05L29.3627 40.5513C29.2036 40.604 29.0408 40.6449 28.8756 40.6735C28.8574 40.6926 28.8444 40.7143 28.8253 40.7333H30.862C31.2364 40.7335 31.6083 40.672 31.9627 40.5513L42.4667 37.05V13.8667H39.8667Z" fill="#CFD8DC"/>
<path d="M43.3333 13.8667H13.8667C13.6848 13.8667 13.5075 13.8094 13.3599 13.7031C13.2124 13.5967 13.102 13.4466 13.0445 13.2741C12.987 13.1015 12.9852 12.9152 13.0394 12.7416C13.0937 12.568 13.2011 12.4158 13.3467 12.3067L28.08 1.25666C28.23 1.14415 28.4125 1.08333 28.6 1.08333C28.7875 1.08333 28.97 1.14415 29.12 1.25666L43.8533 12.3067C43.9989 12.4158 44.1063 12.568 44.1606 12.7416C44.2148 12.9152 44.2131 13.1015 44.1555 13.2741C44.098 13.4466 43.9876 13.5967 43.8401 13.7031C43.6925 13.8094 43.5152 13.8667 43.3333 13.8667Z" fill="#EF314C"/>
<path d="M43.8533 12.3067L29.12 1.25666C28.97 1.14415 28.7875 1.08333 28.6 1.08333C28.4125 1.08333 28.23 1.14415 28.08 1.25666L27.3 1.84166L41.2533 12.3067C41.3989 12.4158 41.5063 12.568 41.5606 12.7416C41.6148 12.9152 41.6131 13.1015 41.5555 13.2741C41.498 13.4466 41.3876 13.5967 41.2401 13.7031C41.0925 13.8094 40.9152 13.8667 40.7333 13.8667H43.3333C43.5152 13.8667 43.6925 13.8094 43.8401 13.7031C43.9876 13.5967 44.098 13.4466 44.1555 13.2741C44.2131 13.1015 44.2148 12.9152 44.1606 12.7416C44.1063 12.568 43.9989 12.4158 43.8533 12.3067Z" fill="#BB193B"/>
<path d="M39 8.66667V1.73334C39 1.50348 38.9087 1.28304 38.7462 1.12051C38.5836 0.957978 38.3632 0.866669 38.1333 0.866669H35.5333C35.3035 0.866669 35.083 0.957978 34.9205 1.12051C34.758 1.28304 34.6667 1.50348 34.6667 1.73334V5.41667L39 8.66667Z" fill="#EF314C"/>
<path d="M38.1333 0.866669H35.5333C35.7632 0.866669 35.9836 0.957978 36.1462 1.12051C36.3087 1.28304 36.4 1.50348 36.4 1.73334V6.71667L39 8.66667V1.73334C39 1.50348 38.9087 1.28304 38.7462 1.12051C38.5836 0.957978 38.3632 0.866669 38.1333 0.866669Z" fill="#BB193B"/>
<path d="M38.1333 26H32.0667C31.588 26 31.2 26.388 31.2 26.8667V30.3333C31.2 30.812 31.588 31.2 32.0667 31.2H38.1333C38.612 31.2 39 30.812 39 30.3333V26.8667C39 26.388 38.612 26 38.1333 26Z" fill="#02A9F4"/>
<path d="M38.1333 17.3333H32.0667C31.588 17.3333 31.2 17.7213 31.2 18.2V21.6667C31.2 22.1453 31.588 22.5333 32.0667 22.5333H38.1333C38.612 22.5333 39 22.1453 39 21.6667V18.2C39 17.7213 38.612 17.3333 38.1333 17.3333Z" fill="#02A9F4"/>
<path d="M25.1333 17.3333H19.0667C18.588 17.3333 18.2 17.7213 18.2 18.2V21.6667C18.2 22.1453 18.588 22.5333 19.0667 22.5333H25.1333C25.612 22.5333 26 22.1453 26 21.6667V18.2C26 17.7213 25.612 17.3333 25.1333 17.3333Z" fill="#02A9F4"/>
<path d="M51.3483 35.5151C50.9403 34.9706 50.371 34.5686 49.7214 34.3664C49.0718 34.1641 48.3749 34.1718 47.7299 34.3885L43.3333 35.8514V14.7333C43.6971 14.7333 44.0517 14.6189 44.3468 14.4062C44.642 14.1934 44.8627 13.8933 44.9777 13.5481C45.0928 13.203 45.0963 12.8304 44.9878 12.4832C44.8794 12.1359 44.6644 11.8316 44.3733 11.6133L39.8667 8.23333V1.73333C39.8667 1.27362 39.6841 0.832745 39.359 0.507682C39.0339 0.182619 38.593 0 38.1333 0L35.5333 0C35.0736 0 34.6327 0.182619 34.3077 0.507682C33.9826 0.832745 33.8 1.27362 33.8 1.73333V3.68333L29.64 0.563333C29.3396 0.339238 28.9748 0.218176 28.6 0.218176C28.2252 0.218176 27.8604 0.339238 27.56 0.563333L12.8267 11.6133C12.5356 11.8316 12.3207 12.1359 12.2122 12.4832C12.1037 12.8304 12.1072 13.203 12.2223 13.5481C12.3373 13.8933 12.558 14.1934 12.8532 14.4062C13.1483 14.6189 13.5029 14.7333 13.8667 14.7333V30.7901C12.9728 30.4898 12.0363 30.3355 11.0933 30.3333H9.37387C9.19526 29.8281 8.86493 29.3905 8.42807 29.0802C7.99121 28.7699 7.46916 28.6022 6.93333 28.6H2.6C1.91044 28.6 1.24912 28.8739 0.761522 29.3615C0.273928 29.8491 0 30.5104 0 31.2L0 49.4C0 50.0896 0.273928 50.7509 0.761522 51.2385C1.24912 51.7261 1.91044 52 2.6 52H6.93333C7.29693 51.9989 7.6562 51.9211 7.98772 51.7718C8.31923 51.6224 8.61555 51.4049 8.85733 51.1333H30.5933C31.8648 51.1334 33.1117 50.7838 34.1978 50.1228L50.44 40.2341C50.8259 39.9989 51.1585 39.6857 51.4164 39.3146C51.6743 38.9434 51.8518 38.5225 51.9376 38.0787C52.0231 37.6488 52.019 37.2059 51.9256 36.7777C51.8323 36.3494 51.6517 35.945 51.3951 35.5897C51.3829 35.5645 51.3665 35.5403 51.3483 35.5151ZM35.5333 1.73333H38.1333V6.93333L35.5333 4.98333V1.73333ZM28.6 1.95L43.3463 13H13.8667L28.6 1.95ZM15.6 14.7333H41.6V36.4295L31.6871 39.7332C31.4222 39.8216 31.1447 39.8667 30.8655 39.8667H30.3671C30.5706 39.3094 30.6472 38.7138 30.5913 38.1232C30.5354 37.5326 30.3483 36.962 30.0439 36.4529L29.9667 36.3246C29.2722 35.1755 28.1622 34.3376 26.8667 33.9846V26.8667C26.8667 26.407 26.684 25.9661 26.359 25.641C26.0339 25.316 25.593 25.1333 25.1333 25.1333H19.0667C18.607 25.1333 18.1661 25.316 17.841 25.641C17.516 25.9661 17.3333 26.407 17.3333 26.8667V32.7773C17.0693 32.621 16.816 32.4473 16.575 32.2573C16.2656 32.0126 15.9399 31.7894 15.6 31.5891V14.7333ZM25.1333 33.8H20.9733C20.3284 33.7979 19.6869 33.7072 19.0667 33.5305V26.8667H25.1333V33.8ZM6.93333 50.2667H2.6C2.37015 50.2667 2.14971 50.1754 1.98717 50.0128C1.82464 49.8503 1.73333 49.6299 1.73333 49.4V31.2C1.73333 30.9701 1.82464 30.7497 1.98717 30.5872C2.14971 30.4246 2.37015 30.3333 2.6 30.3333H6.93333C7.16319 30.3333 7.38363 30.4246 7.54616 30.5872C7.70869 30.7497 7.8 30.9701 7.8 31.2V49.4C7.8 49.6299 7.70869 49.8503 7.54616 50.0128C7.38363 50.1754 7.16319 50.2667 6.93333 50.2667ZM50.2389 37.7511C50.2005 37.9576 50.1189 38.1535 49.9994 38.3262C49.8799 38.4988 49.7252 38.6443 49.5456 38.753L33.2973 48.6417C32.4825 49.1374 31.5471 49.3997 30.5933 49.4H9.53333V32.0667H11.0933C12.6924 32.0687 14.2435 32.6129 15.4934 33.6102C17.0501 34.8523 18.9818 35.5302 20.9733 35.5333H25.506C26.1044 35.535 26.6923 35.6908 27.213 35.9858C27.7337 36.2807 28.1696 36.7049 28.4787 37.2173L28.5558 37.3455C28.787 37.7311 28.8981 38.1768 28.8751 38.6258C28.8521 39.0747 28.696 39.5067 28.4267 39.8667H23.1573C21.9798 39.8634 20.8149 40.1094 19.7392 40.5886C19.6525 40.6267 19.5555 40.6519 19.4671 40.6935L19.4575 40.6987C19.0736 40.8798 18.7031 41.0884 18.3491 41.3227L17.7164 41.7473C17.6604 41.7909 17.6103 41.8416 17.5673 41.8981C17.5349 41.9266 17.5045 41.9573 17.4763 41.99C17.4465 42.045 17.423 42.1031 17.4061 42.1633C17.3836 42.2073 17.3648 42.2531 17.3498 42.3003C17.345 42.3548 17.345 42.4096 17.3498 42.4641C17.3443 42.5217 17.3443 42.5798 17.3498 42.6374C17.3661 42.6904 17.3873 42.7417 17.4131 42.7908C17.4293 42.8477 17.4517 42.9026 17.4798 42.9546C17.5387 43.0385 17.6121 43.1113 17.6965 43.1695C17.7138 43.1817 17.7303 43.1947 17.7493 43.2059C17.8314 43.2574 17.9217 43.2943 18.0163 43.3151C18.03 43.3177 18.0439 43.3195 18.0579 43.3203C18.1396 43.3425 18.2258 43.3425 18.3075 43.3203C18.3361 43.3203 18.3629 43.3143 18.3941 43.3082C18.4937 43.2867 18.5887 43.248 18.6749 43.1938H18.6827L19.318 42.7709C19.6701 42.5408 20.0426 42.3435 20.4308 42.1815C21.291 41.8006 22.2209 41.6026 23.1617 41.6H30.8655C31.3312 41.6003 31.794 41.5251 32.2357 41.3773L48.2785 36.0299C48.5654 35.9314 48.8755 35.9223 49.1677 36.0038C49.4599 36.0854 49.7204 36.2538 49.9148 36.4867C49.9295 36.5118 49.9469 36.5361 49.9642 36.5603C50.0914 36.7282 50.1817 36.9211 50.229 37.1263C50.2764 37.3316 50.2798 37.5445 50.2389 37.7511Z" fill="black"/>
<path d="M32.0667 32.0667H38.1333C38.593 32.0667 39.0339 31.884 39.359 31.559C39.684 31.2339 39.8667 30.793 39.8667 30.3333V26.8667C39.8667 26.407 39.684 25.9661 39.359 25.641C39.0339 25.316 38.593 25.1333 38.1333 25.1333H32.0667C31.607 25.1333 31.1661 25.316 30.841 25.641C30.5159 25.9661 30.3333 26.407 30.3333 26.8667V30.3333C30.3333 30.793 30.5159 31.2339 30.841 31.559C31.1661 31.884 31.607 32.0667 32.0667 32.0667ZM32.0667 26.8667H38.1333V30.3333H32.0667V26.8667Z" fill="black"/>
<path d="M32.0667 23.4H38.1333C38.593 23.4 39.0339 23.2174 39.359 22.8923C39.684 22.5673 39.8667 22.1264 39.8667 21.6667V18.2C39.8667 17.7403 39.684 17.2994 39.359 16.9743C39.0339 16.6493 38.593 16.4667 38.1333 16.4667H32.0667C31.607 16.4667 31.1661 16.6493 30.841 16.9743C30.5159 17.2994 30.3333 17.7403 30.3333 18.2V21.6667C30.3333 22.1264 30.5159 22.5673 30.841 22.8923C31.1661 23.2174 31.607 23.4 32.0667 23.4ZM32.0667 18.2H38.1333V21.6667H32.0667V18.2Z" fill="black"/>
<path d="M19.0667 23.4H25.1333C25.593 23.4 26.0339 23.2174 26.359 22.8923C26.684 22.5673 26.8667 22.1264 26.8667 21.6667V18.2C26.8667 17.7403 26.684 17.2994 26.359 16.9743C26.0339 16.6493 25.593 16.4667 25.1333 16.4667H19.0667C18.607 16.4667 18.1661 16.6493 17.841 16.9743C17.5159 17.2994 17.3333 17.7403 17.3333 18.2V21.6667C17.3333 22.1264 17.5159 22.5673 17.841 22.8923C18.1661 23.2174 18.607 23.4 19.0667 23.4ZM19.0667 18.2H25.1333V21.6667H19.0667V18.2Z" fill="black"/>
</g>
<defs>
<clipPath id="clip0_70_503">
<rect width="52" height="52" fill="white"/>
</clipPath>
</defs>
</svg>
