<svg width="80" height="80" viewBox="0 0 80 80" fill="none" xmlns="http://www.w3.org/2000/svg">
<path d="M59.7502 21.0277C59.5458 21.0277 59.3389 20.9745 59.1502 20.8633L32.0169 4.82703C31.4552 4.495 31.2689 3.77062 31.601 3.20875C31.9328 2.64703 32.6574 2.46109 33.2191 2.79281L60.3524 18.8291C60.9139 19.1611 61.1003 19.8855 60.7683 20.4473C60.5477 20.8203 60.1541 21.0277 59.7502 21.0277Z" fill="#C8C0C8"/>
<path d="M64.1558 18.7272H57.8027C55.4204 18.7272 53.4893 20.6584 53.4893 23.0406V25.8514H68.3746V22.9458C68.3746 20.6159 66.4858 18.7272 64.1558 18.7272Z" fill="#B1ABB5"/>
<path d="M64.1558 18.7272H59.0642C61.4658 18.7272 63.4126 20.6741 63.4126 23.0756V25.8514H68.3744V22.9458C68.3745 20.6159 66.4858 18.7272 64.1558 18.7272Z" fill="#8F818F"/>
<path d="M70.1176 80H9.88232C6.3442 80 3.47607 77.1319 3.47607 73.5937V31.1595C3.47607 27.6214 6.3442 24.7533 9.88232 24.7533H70.1178C73.6559 24.7533 76.524 27.6214 76.524 31.1595V73.5937C76.5239 77.1319 73.6558 80 70.1176 80Z" fill="#FC840D"/>
<path d="M70.1176 24.7533H66.3908V63.4127C66.3908 66.9772 63.5011 69.8669 59.9365 69.8669H3.47607V73.5937C3.47607 77.1319 6.3442 80 9.88232 80H70.1178C73.6559 80 76.524 77.1319 76.524 73.5937V31.1595C76.5239 27.6216 73.6558 24.7533 70.1176 24.7533Z" fill="#F16600"/>
<path d="M60.9318 74.1859C65.9003 74.1859 69.928 70.1582 69.928 65.1897C69.928 60.2212 65.9003 56.1934 60.9318 56.1934C55.9633 56.1934 51.9355 60.2212 51.9355 65.1897C51.9355 70.1582 55.9633 74.1859 60.9318 74.1859Z" fill="#E0DDE2"/>
<path d="M65.9423 57.7175C66.9045 59.1495 67.4662 60.873 67.4662 62.728C67.4662 67.6964 63.4384 71.7242 58.4699 71.7242C56.6151 71.7242 54.8915 71.1623 53.4595 70.2003C55.0745 72.6041 57.8182 74.1861 60.9318 74.1861C65.9003 74.1861 69.9281 70.1583 69.9281 65.1898C69.9281 62.0761 68.346 59.3325 65.9423 57.7175Z" fill="#B1ABB5"/>
<path d="M60.9319 68.4948C62.7573 68.4948 64.237 67.0151 64.237 65.1897C64.237 63.3643 62.7573 61.8845 60.9319 61.8845C59.1065 61.8845 57.6267 63.3643 57.6267 65.1897C57.6267 67.0151 59.1065 68.4948 60.9319 68.4948Z" fill="#B1ABB5"/>
<path d="M61.89 62.0267C61.9819 62.3302 62.0322 62.6516 62.0322 62.9848C62.0322 64.8103 60.5524 66.29 58.727 66.29C58.3936 66.29 58.0724 66.2395 57.7689 66.1478C58.1799 67.5058 59.4399 68.4948 60.9319 68.4948C62.7574 68.4948 64.237 67.015 64.237 65.1897C64.237 63.6977 63.248 62.4377 61.89 62.0267Z" fill="#8F818F"/>
<path d="M67.1144 48.9262H12.8856C11.4186 48.9262 10.2294 47.737 10.2294 46.27V36.8934C10.2294 35.4264 11.4186 34.2372 12.8856 34.2372H67.1144C68.5814 34.2372 69.7706 35.4264 69.7706 36.8934V46.27C69.7706 47.737 68.5814 48.9262 67.1144 48.9262Z" fill="#F0F0F3"/>
<path d="M67.1144 34.2372H66.255V42.8744C66.255 44.2752 65.1195 45.4106 63.7187 45.4106H10.2294V46.27C10.2294 47.737 11.4186 48.9262 12.8856 48.9262H67.1144C68.5814 48.9262 69.7706 47.737 69.7706 46.27V36.8934C69.7706 35.4264 68.5814 34.2372 67.1144 34.2372Z" fill="#E0DDE2"/>
<path d="M24.5916 48.9263V39.0217C24.5916 38.3692 25.1205 37.8403 25.773 37.8403C26.4255 37.8403 26.9544 38.3692 26.9544 39.0217V48.9263H24.5916Z" fill="#8F818F"/>
<path d="M11.2926 70.4791C10.6401 70.4791 10.1112 69.9502 10.1112 69.2977V62.682C10.1112 62.0295 10.6401 61.5006 11.2926 61.5006C11.9451 61.5006 12.474 62.0295 12.474 62.682V69.2977C12.474 69.9502 11.9451 70.4791 11.2926 70.4791Z" fill="#F1F0F3"/>
<path d="M17.4949 70.4791C16.8424 70.4791 16.3135 69.9502 16.3135 69.2977V62.682C16.3135 62.0295 16.8424 61.5006 17.4949 61.5006C18.1474 61.5006 18.6763 62.0295 18.6763 62.682V69.2977C18.6763 69.9502 18.1474 70.4791 17.4949 70.4791Z" fill="#F1F0F3"/>
<path d="M23.697 70.4791C23.0445 70.4791 22.5156 69.9502 22.5156 69.2977V62.682C22.5156 62.0295 23.0445 61.5006 23.697 61.5006C24.3495 61.5006 24.8784 62.0295 24.8784 62.682V69.2977C24.8784 69.9502 24.3495 70.4791 23.697 70.4791Z" fill="#F1F0F3"/>
<path d="M29.8992 70.4791C29.2467 70.4791 28.7178 69.9502 28.7178 69.2977V62.682C28.7178 62.0295 29.2467 61.5006 29.8992 61.5006C30.5517 61.5006 31.0806 62.0295 31.0806 62.682V69.2977C31.0806 69.9502 30.5517 70.4791 29.8992 70.4791Z" fill="#F1F0F3"/>
<path d="M30.7856 5.10469C32.1952 5.10469 33.338 3.96196 33.338 2.55234C33.338 1.14272 32.1952 0 30.7856 0C29.376 0 28.2333 1.14272 28.2333 2.55234C28.2333 3.96196 29.376 5.10469 30.7856 5.10469Z" fill="#8F818F"/>
</svg>
