<svg width="80" height="80" viewBox="0 0 80 80" fill="none" xmlns="http://www.w3.org/2000/svg">
<g clip-path="url(#clip0_102_75)">
<path d="M40 19.6166L29.5503 2.77929L31.33 1.79409L40 15.4177L48.6699 1.79409L50.4497 2.77929L40 19.6166Z" fill="#E1E6E9"/>
<path d="M40 14.323C37.7534 14.323 35.9321 16.1443 35.9321 18.3909H44.0677C44.0679 16.1443 42.2466 14.323 40 14.323Z" fill="#64798A"/>
<path d="M6.94897 70.8117V76.9489C6.94897 78.6339 8.31496 79.9998 9.99989 79.9998H70.0004C71.6854 79.9998 73.0514 78.6339 73.0514 76.9489V70.8117H6.94897Z" fill="#3A556A"/>
<path d="M76.0027 75.3405H3.99738C2.81914 75.3405 1.86401 74.3854 1.86401 73.2072V22.558C1.86401 21.3798 2.81914 20.4247 3.99738 20.4247H76.0026C77.1808 20.4247 78.1359 21.3798 78.1359 22.558V73.2072C78.1359 74.3854 77.1808 75.3405 76.0027 75.3405Z" fill="#64798A"/>
<path d="M57.796 28.5625V67.207C57.796 68.8952 56.4333 70.2579 54.7451 70.2579H9.99891C8.31073 70.2579 6.948 68.8952 6.948 67.207V28.5625C6.948 26.8745 8.31073 25.5116 9.99891 25.5116H54.7451C56.4333 25.5116 57.796 26.8745 57.796 28.5625Z" fill="#EBF0F3"/>
<path d="M37.4581 25.5104H27.2886V70.257H37.4581V25.5104Z" fill="#27A2DB"/>
<path d="M27.2928 25.5051H17.1233V70.2518H27.2928V25.5051Z" fill="#44C4A1"/>
<path d="M17.1175 25.5116V70.2577H9.99891C8.31073 70.2577 6.948 68.895 6.948 67.2068V28.5625C6.948 26.8745 8.31073 25.5116 9.99891 25.5116H17.1175Z" fill="#FCD462"/>
<path d="M47.6234 25.5136H37.4539V70.2603H47.6234V25.5136Z" fill="#E56353"/>
<path d="M57.7959 28.5625V67.207C57.7959 68.8952 56.4332 70.2579 54.745 70.2579H47.6262V25.5116H54.745C56.4332 25.5116 57.7959 26.8745 57.7959 28.5625Z" fill="#EBF0F3"/>
<path d="M74.0672 36.7093C74.0672 39.6586 71.9723 42.1196 69.1961 42.6892C68.7994 42.7705 68.3826 42.8111 67.9656 42.8111C67.5486 42.8111 67.1318 42.7705 66.7351 42.6892C63.9587 42.1196 61.8638 39.6586 61.8638 36.7093C61.8638 33.75 63.9587 31.2992 66.7351 30.7297C67.1316 30.6482 67.5486 30.6075 67.9656 30.6075C68.3826 30.6075 68.7994 30.6482 69.1961 30.7297C71.9723 31.2992 74.0672 33.75 74.0672 36.7093Z" fill="#3A556A"/>
<path d="M65.2865 32.6416L72.0337 39.389C71.8559 39.6586 71.6435 39.9167 71.4083 40.1521C71.173 40.3874 70.9149 40.5997 70.6453 40.7775L63.8979 34.03C64.0758 33.7602 64.288 33.5021 64.5232 33.2669C64.7586 33.0316 65.0167 32.8193 65.2865 32.6416Z" fill="#64798A"/>
<path d="M74.0705 49.9093H61.8667V51.4346H74.0705V49.9093Z" fill="#D5D6DB"/>
<path d="M74.0705 54.4854H61.8667V56.0107H74.0705V54.4854Z" fill="#D5D6DB"/>
<path d="M74.0705 59.0603H61.8667V60.5857H74.0705V59.0603Z" fill="#D5D6DB"/>
<path d="M74.0705 63.6373H61.8667V65.1626H74.0705V63.6373Z" fill="#D5D6DB"/>
<path d="M50.1696 20.4247H29.8303V19.5071C29.8303 18.3289 30.7854 17.3737 31.9637 17.3737H48.0362C49.2144 17.3737 50.1696 18.3289 50.1696 19.5071V20.4247Z" fill="#3A556A"/>
<path d="M49.4315 4.57594C50.6951 4.57594 51.7195 3.55158 51.7195 2.28797C51.7195 1.02436 50.6951 0 49.4315 0C48.1679 0 47.1436 1.02436 47.1436 2.28797C47.1436 3.55158 48.1679 4.57594 49.4315 4.57594Z" fill="#64798A"/>
<path d="M30.5707 4.57594C31.8343 4.57594 32.8587 3.55158 32.8587 2.28797C32.8587 1.02436 31.8343 0 30.5707 0C29.3071 0 28.2827 1.02436 28.2827 2.28797C28.2827 3.55158 29.3071 4.57594 30.5707 4.57594Z" fill="#64798A"/>
</g>
<defs>
<clipPath id="clip0_102_75">
<rect width="80" height="80" fill="white"/>
</clipPath>
</defs>
</svg>
