<svg width="22" height="22" viewBox="0 0 22 22" fill="none" xmlns="http://www.w3.org/2000/svg">
<path opacity="0.4" d="M19.25 11.9166H2.75001C2.5069 11.9166 2.27374 11.8201 2.10183 11.6482C1.92992 11.4763 1.83334 11.2431 1.83334 11C1.83334 10.7569 1.92992 10.5237 2.10183 10.3518C2.27374 10.1799 2.5069 10.0833 2.75001 10.0833H19.25C19.4931 10.0833 19.7263 10.1799 19.8982 10.3518C20.0701 10.5237 20.1667 10.7569 20.1667 11C20.1667 11.2431 20.0701 11.4763 19.8982 11.6482C19.7263 11.8201 19.4931 11.9166 19.25 11.9166Z" fill="white"/>
<path d="M9.16685 18.3333C8.92375 18.3333 8.69063 18.2367 8.51876 18.0647L2.1021 11.6481C1.93025 11.4762 1.83371 11.2431 1.83371 11C1.83371 10.7569 1.93025 10.5238 2.1021 10.3519L8.51876 3.93524C8.60332 3.84769 8.70447 3.77786 8.81631 3.72982C8.92815 3.68178 9.04843 3.65649 9.17015 3.65543C9.29186 3.65437 9.41257 3.67757 9.52522 3.72366C9.63788 3.76975 9.74023 3.83781 9.82629 3.92388C9.91236 4.00995 9.98043 4.1123 10.0265 4.22495C10.0726 4.33761 10.0958 4.45831 10.0947 4.58003C10.0937 4.70174 10.0684 4.82203 10.0204 4.93386C9.97232 5.0457 9.90248 5.14685 9.81493 5.23141L4.04635 11L9.81493 16.7686C9.94309 16.8968 10.0304 17.0601 10.0657 17.2379C10.1011 17.4157 10.0829 17.6 10.0136 17.7674C9.94419 17.9349 9.82673 18.0781 9.67602 18.1788C9.52531 18.2795 9.34812 18.3333 9.16685 18.3333Z" fill="white"/>
</svg>
