<svg width="22" height="22" viewBox="0 0 22 22" fill="none" xmlns="http://www.w3.org/2000/svg">
<path opacity="0.4" d="M16.5 20.8542C18.9047 20.8542 20.8541 18.9048 20.8541 16.5C20.8541 14.0953 18.9047 12.1458 16.5 12.1458C14.0952 12.1458 12.1458 14.0953 12.1458 16.5C12.1458 18.9048 14.0952 20.8542 16.5 20.8542Z" fill="white"/>
<path d="M7.33331 1.14584H3.66665C2.27443 1.14584 1.14581 2.27446 1.14581 3.66668V7.33334C1.14581 8.72556 2.27443 9.85418 3.66665 9.85418H7.33331C8.72553 9.85418 9.85415 8.72556 9.85415 7.33334V3.66668C9.85415 2.27446 8.72553 1.14584 7.33331 1.14584Z" fill="white"/>
<path d="M7.33331 12.1458H3.66665C2.27443 12.1458 1.14581 13.2745 1.14581 14.6667V18.3333C1.14581 19.7256 2.27443 20.8542 3.66665 20.8542H7.33331C8.72553 20.8542 9.85415 19.7256 9.85415 18.3333V14.6667C9.85415 13.2745 8.72553 12.1458 7.33331 12.1458Z" fill="white"/>
<path d="M18.3333 1.14584H14.6666C13.2744 1.14584 12.1458 2.27446 12.1458 3.66668V7.33334C12.1458 8.72556 13.2744 9.85418 14.6666 9.85418H18.3333C19.7255 9.85418 20.8541 8.72556 20.8541 7.33334V3.66668C20.8541 2.27446 19.7255 1.14584 18.3333 1.14584Z" fill="white"/>
</svg>
