<svg width="80" height="80" viewBox="0 0 80 80" fill="none" xmlns="http://www.w3.org/2000/svg">
<g clip-path="url(#clip0_79_3093)">
<path d="M21.9637 72.7706C18.2917 68.5979 14.6199 64.2585 12.2832 59.0844C9.94655 53.5765 9.27887 47.2342 10.4473 41.2256C11.6156 35.217 14.286 29.5422 18.1249 24.702C17.7912 28.8747 19.2933 33.2141 22.1307 36.3854C20.4616 28.3739 23.1321 19.6948 28.473 13.3525C33.8139 7.01017 41.1578 2.83733 48.8354 0C44.9966 4.00572 44.4959 10.3481 45.998 15.6891C47.5002 21.03 50.6714 25.7034 53.5087 30.5436C56.3461 35.3838 59.0166 40.391 59.1836 45.8988C60.6857 43.0615 62.3548 40.224 63.3562 37.0529C64.3577 33.8817 64.8584 30.5436 64.0239 27.3724C67.0282 31.0443 68.6973 34.7161 69.5318 39.3895C70.3663 44.0629 70.1995 48.9031 69.6987 53.5765C69.0311 58.7506 67.6959 64.0915 64.8585 68.431C61.5205 73.6051 56.1794 77.2769 50.3378 79.2798C39.9894 81.1158 29.8082 79.6137 21.9637 72.7706Z" fill="#F3705A"/>
<path d="M34.6485 78.946C48.3346 84.287 61.8539 68.0972 54.3432 55.5793C54.3432 55.4124 54.1763 55.4124 54.1763 55.2456C54.8439 62.0886 53.1748 67.0958 50.0036 69.9333C51.6727 65.9276 50.5043 61.2542 48.5014 57.2484C46.4986 53.4097 43.6613 49.9047 41.4914 46.2327C39.3216 42.394 37.6527 38.0543 38.6541 33.7148C34.6484 36.7191 31.8111 41.2256 30.6427 46.0658C29.4743 50.906 30.142 56.247 32.3118 60.7534C29.8082 58.9175 27.9723 55.9133 27.8053 52.742C25.1348 55.9133 23.4659 60.0858 23.6327 64.2585C23.6328 70.7677 28.8068 76.6094 34.6485 78.946Z" fill="#FFD15C"/>
</g>
<defs>
<clipPath id="clip0_79_3093">
<rect width="80" height="80" fill="white"/>
</clipPath>
</defs>
</svg>
