<svg width="80" height="80" viewBox="0 0 80 80" fill="none" xmlns="http://www.w3.org/2000/svg">
<g clip-path="url(#clip0_76_2937)">
<path d="M9.61671 1.57638C8.80343 2.25873 6.68671 4.03498 5.87874 4.71295C5.39124 5.12201 5.32765 5.84873 5.73671 6.33607L67.2028 79.5884C67.6119 80.0759 68.3386 80.1395 68.8259 79.7304C69.6384 79.0486 71.7551 77.2725 72.5639 76.5939C73.0514 76.1848 73.115 75.4581 72.7059 74.9708L11.2398 1.71826C10.8309 1.23091 10.1042 1.16732 9.61671 1.57638Z" fill="#FEDBA6"/>
<path d="M11.174 0.269522L8.87686 2.19718C9.36436 1.78812 10.0911 1.85171 10.5 2.33921L71.9661 75.5916C72.3751 76.0791 72.3116 76.8058 71.8241 77.2147L74.1212 75.2872C74.6087 74.8781 74.6723 74.1514 74.2633 73.6641L12.7972 0.411554C12.3883 -0.0757902 11.6614 -0.139384 11.174 0.269522Z" fill="#FECE85"/>
<path d="M43.2977 12.5651C43.0944 12.7358 42.8338 12.8406 42.548 12.8467L36.088 12.9844C31.5313 13.0814 27.2375 11.1347 24.3078 7.64311C22.8302 5.88201 20.1952 5.65154 18.4341 7.12936C17.9233 7.55795 17.1619 7.49123 16.7333 6.98061C16.3047 6.46983 16.3713 5.70842 16.882 5.27983C19.663 2.94639 23.8239 3.3103 26.1573 6.09123C28.6142 9.01936 32.2152 10.6519 36.0364 10.5705L42.4964 10.4328C43.163 10.4186 43.715 10.9473 43.7291 11.614C43.7373 11.9947 43.5683 12.3381 43.2977 12.5651Z" fill="#596C76"/>
<path d="M44.8503 25.4673C44.4623 25.793 43.8947 25.85 43.4402 25.5695C37.81 22.0944 32.7989 17.7623 28.5459 12.6939L24.3078 7.64311C22.8302 5.88201 20.1952 5.65154 18.4341 7.12936C17.9233 7.55795 17.1619 7.49123 16.7333 6.98061C16.3047 6.46983 16.3713 5.70842 16.882 5.27983C19.663 2.94639 23.8239 3.3103 26.1573 6.09123L30.3955 11.142C34.4825 16.0126 39.298 20.1755 44.7083 23.515C45.2756 23.8651 45.4517 24.609 45.1014 25.1764C45.0317 25.2892 44.9466 25.3865 44.8503 25.4673Z" fill="#8D9CA8"/>
<path d="M60.5933 71.6813L66.0962 67.062L70.1706 71.9158L64.6677 76.5351L60.5933 71.6813Z" fill="#FEC165"/>
<path d="M22.1341 20.3083C23.0178 20.3083 23.7342 19.5919 23.7342 18.7081C23.7342 17.8244 23.0178 17.108 22.1341 17.108C21.2503 17.108 20.5339 17.8244 20.5339 18.7081C20.5339 19.5919 21.2503 20.3083 22.1341 20.3083Z" fill="#596C76"/>
<path d="M27.0713 26.1923C27.955 26.1923 28.6714 25.4759 28.6714 24.5922C28.6714 23.7084 27.955 22.992 27.0713 22.992C26.1875 22.992 25.4711 23.7084 25.4711 24.5922C25.4711 25.4759 26.1875 26.1923 27.0713 26.1923Z" fill="#596C76"/>
<path d="M32.0086 32.0764C32.8923 32.0764 33.6088 31.36 33.6088 30.4763C33.6088 29.5925 32.8923 28.8761 32.0086 28.8761C31.1249 28.8761 30.4084 29.5925 30.4084 30.4763C30.4084 31.36 31.1249 32.0764 32.0086 32.0764Z" fill="#596C76"/>
<path d="M36.9459 37.9605C37.8297 37.9605 38.5461 37.2441 38.5461 36.3603C38.5461 35.4766 37.8297 34.7602 36.9459 34.7602C36.0622 34.7602 35.3458 35.4766 35.3458 36.3603C35.3458 37.2441 36.0622 37.9605 36.9459 37.9605Z" fill="#596C76"/>
<path d="M41.8831 43.8444C42.7669 43.8444 43.4833 43.128 43.4833 42.2442C43.4833 41.3605 42.7669 40.6441 41.8831 40.6441C40.9994 40.6441 40.283 41.3605 40.283 42.2442C40.283 43.128 40.9994 43.8444 41.8831 43.8444Z" fill="#596C76"/>
<path d="M46.8205 49.7284C47.7042 49.7284 48.4206 49.012 48.4206 48.1283C48.4206 47.2446 47.7042 46.5281 46.8205 46.5281C45.9367 46.5281 45.2203 47.2446 45.2203 48.1283C45.2203 49.012 45.9367 49.7284 46.8205 49.7284Z" fill="#596C76"/>
<path d="M59.9866 65.4192C60.8703 65.4192 61.5867 64.7028 61.5867 63.8191C61.5867 62.9353 60.8703 62.2189 59.9866 62.2189C59.1028 62.2189 58.3864 62.9353 58.3864 63.8191C58.3864 64.7028 59.1028 65.4192 59.9866 65.4192Z" fill="#596C76"/>
<path d="M50.2772 24.8617L45.9436 22.1161C44.4513 21.1706 42.4752 21.6139 41.5297 23.1062C41.0019 23.9394 40.9078 24.9231 41.1866 25.7942C41.2617 25.4209 41.4017 25.0544 41.6177 24.7134C42.5631 23.2211 44.5394 22.7778 46.0316 23.7233L50.3653 26.4689C50.3909 26.4852 50.415 26.5027 50.4386 26.5208L50.5944 26.2748C50.8969 25.797 50.755 25.1644 50.2772 24.8617Z" fill="#FEA613"/>
<path d="M47.6115 8.16624L42.4869 8.40374C40.7222 8.48546 39.358 9.98234 39.4397 11.747C39.453 12.0347 39.5073 12.31 39.5909 12.5717C39.8745 11.1676 41.0791 10.0801 42.5748 10.0109L47.6995 9.77343C48.2108 9.74968 48.6505 10.1056 48.7492 10.592L48.682 9.14187C48.6558 8.57687 48.1765 8.14015 47.6115 8.16624Z" fill="#FE646F"/>
<path d="M50.4384 26.5208C50.3736 26.4712 46.1003 23.767 46.0314 23.7233C44.5391 22.7778 42.563 23.2211 41.6175 24.7134C41.4016 25.0544 41.2616 25.4208 41.1864 25.7942C41.4069 26.4836 41.8606 27.1025 42.5197 27.5201L46.8534 30.2658C47.3312 30.5684 47.9639 30.4266 48.2667 29.9487L50.4384 26.5208Z" fill="#FDB441"/>
<path d="M48.749 10.592C48.6503 10.1056 48.2104 9.74982 47.6994 9.77342L42.5747 10.0109C41.0789 10.0801 39.8744 11.1676 39.5908 12.5717C40.0198 13.9164 41.3058 14.8626 42.7828 14.7942L47.9075 14.5567C48.4725 14.5304 48.9094 14.0512 48.8831 13.4862L48.749 10.592Z" fill="#FD8087"/>
<path d="M17.3881 4.62438C17.3566 4.61532 17.3242 4.60938 17.2916 4.60657C17.3242 4.60938 17.3566 4.61547 17.3881 4.62438Z" fill="#FEC165"/>
<path d="M18.7567 10.7847L15.342 6.71517C15.1603 6.49861 14.8373 6.47032 14.6206 6.65204L9.26859 11.143C9.05188 11.3247 9.02375 11.6478 9.20547 11.8644L12.6202 15.9339C12.8019 16.1506 13.125 16.1788 13.3416 15.997L18.6936 11.5061C18.9103 11.3242 18.9386 11.0013 18.7567 10.7847Z" fill="#FEC165"/>
<path d="M16.9178 4.72437L14.6206 6.65203C14.8373 6.47031 15.1603 6.49843 15.342 6.71515L18.7567 10.7847C18.9384 11.0014 18.9103 11.3244 18.6936 11.5061L20.9908 9.57859C21.2075 9.39687 21.2356 9.07375 21.0539 8.85718L17.6392 4.78749C17.4573 4.57093 17.1344 4.54265 16.9178 4.72437Z" fill="#FDB441"/>
<path d="M65.356 67.6835L67.653 65.7553L71.7274 70.6091L69.4304 72.5373L65.356 67.6835Z" fill="#FECE85"/>
<path d="M65.356 67.6835L67.653 65.7553L71.7274 70.6091L69.4304 72.5373L65.356 67.6835Z" fill="#FDB441"/>
<path d="M65.3448 67.7006L67.642 65.7729L65.3448 67.7006Z" fill="#FECE85"/>
<path d="M67.642 65.7729L71.715 70.6272L69.4178 72.5547L71.715 70.6272L67.642 65.7729Z" fill="#FECE85"/>
<path d="M65.3448 67.7006L69.4178 72.5547L65.3448 67.7006Z" fill="#FECE85"/>
</g>
<defs>
<clipPath id="clip0_76_2937">
<rect width="80" height="80" fill="white"/>
</clipPath>
</defs>
</svg>
