<svg width="82" height="81" viewBox="0 0 82 81" fill="none" xmlns="http://www.w3.org/2000/svg">
<path d="M11.2812 60.4219H0.65625V51.125C0.656172 48.8779 1.4346 46.7002 2.85911 44.9624C4.28362 43.2246 6.26622 42.0339 8.46961 41.593L20.5781 39.1719H33.8594L45.9679 41.593C48.1713 42.0339 50.1539 43.2246 51.5784 44.9624C53.0029 46.7002 53.7813 48.8779 53.7812 51.125V60.4219H43.1562V80.3438H11.2812V60.4219Z" fill="#EEAB45"/>
<path d="M45.9679 41.593L33.8594 39.1719H20.5781L14.2709 40.4336C15.2671 48.4226 18.5103 55.9648 23.6236 62.1833C28.737 68.4019 35.5103 73.0414 43.1563 75.5625V60.4219H53.7813V51.125C53.7813 48.8779 53.0029 46.7002 51.5784 44.9624C50.1539 43.2246 48.1713 42.0339 45.9679 41.593Z" fill="#F3C350"/>
<path d="M20.5781 36.0654V39.1719C20.5781 40.9331 21.2778 42.6222 22.5231 43.8675C23.7685 45.1129 25.4575 45.8125 27.2188 45.8125C28.98 45.8125 30.669 45.1129 31.9144 43.8675C33.1597 42.6222 33.8594 40.9331 33.8594 39.1719V36.0667L20.5781 36.0654Z" fill="#EEB8AB"/>
<path d="M9.95312 17.9883V7.29688C9.95313 5.53567 10.6528 3.8466 11.8981 2.60124C13.1435 1.35589 14.8325 0.65625 16.5938 0.65625H33.8594C35.2683 0.65625 36.6196 1.21596 37.6159 2.21225C38.6122 3.20853 39.1719 4.55979 39.1719 5.96875V7.29688C40.5808 7.29688 41.9321 7.85658 42.9284 8.85287C43.9247 9.84916 44.4844 11.2004 44.4844 12.6094V17.9883H9.95312Z" fill="#747574"/>
<path d="M44.4844 12.6094C44.4844 11.2004 43.9247 9.84916 42.9284 8.85287C41.9321 7.85658 40.5808 7.29688 39.1719 7.29688V5.96875C39.1719 4.55979 38.6122 3.20853 37.6159 2.21225C36.6196 1.21596 35.2683 0.65625 33.8594 0.65625H16.5938C15.4893 0.663583 14.4045 0.949062 13.4395 1.48633C12.9022 2.45134 12.6167 3.53616 12.6094 4.64062C12.6094 7.47616 13.7358 10.1956 15.7408 12.2006C17.7458 14.2056 20.4652 15.332 23.3008 15.332H44.4844V12.6094Z" fill="#9D9E9D"/>
<path d="M40.5 17.9219V24.5625C40.5 28.0849 39.1007 31.463 36.61 33.9538C34.1193 36.4445 30.7412 37.8438 27.2188 37.8438C23.6963 37.8438 20.3182 36.4445 17.8275 33.9538C15.3368 31.463 13.9375 28.0849 13.9375 24.5625V17.9219H22.723C24.8343 17.9218 26.8971 17.2892 28.6454 16.1055C30.3937 14.9219 31.7472 13.2415 32.5312 11.2812L33.2139 12.9892C33.7966 14.4452 34.8022 15.6933 36.1008 16.5724C37.3995 17.4516 38.9317 17.9216 40.5 17.9219Z" fill="#EEB8AB"/>
<path d="M33.2139 14.3173L32.5312 12.6094C31.7472 14.5696 30.3937 16.25 28.6454 17.4337C26.8971 18.6173 24.8343 19.25 22.723 19.25H13.9375V24.5625C13.9375 28.0849 15.3368 31.463 17.8275 33.9538C20.3182 36.4445 23.6963 37.8438 27.2188 37.8438C30.7412 37.8438 34.1193 36.4445 36.61 33.9538C39.1007 31.463 40.5 28.0849 40.5 24.5625V19.25C38.9317 19.2498 37.3995 18.7798 36.1008 17.9006C34.8022 17.0214 33.7966 15.7733 33.2139 14.3173Z" fill="#FFE1D3"/>
<path d="M13.9375 17.9219H10.6172C9.73659 17.9219 8.89205 18.2717 8.26937 18.8944C7.64669 19.5171 7.29688 20.3616 7.29688 21.2422C7.29688 22.1228 7.64669 22.9673 8.26937 23.59C8.89205 24.2127 9.73659 24.5625 10.6172 24.5625H13.9375" fill="#DDAFA6"/>
<path d="M40.5 17.9219H43.8203C44.7009 17.9219 45.5455 18.2717 46.1681 18.8944C46.7908 19.5171 47.1406 20.3616 47.1406 21.2422C47.1406 22.1228 46.7908 22.9673 46.1681 23.59C45.5455 24.2127 44.7009 24.5625 43.8203 24.5625H40.5" fill="#DDAFA6"/>
<path d="M53.7812 60.4219V61.75C53.7813 63.3703 53.3618 64.963 52.5635 66.373C51.7651 67.783 50.6152 68.9622 49.2258 69.7958L36.5688 76.2956C34.7887 77.2111 32.8157 77.6883 30.814 77.6875C30.3417 77.6875 29.8741 77.5945 29.4378 77.4137C29.0016 77.2329 28.6052 76.968 28.2713 76.634C27.9374 76.3 27.6726 75.9035 27.492 75.4672C27.3114 75.0308 27.2186 74.5632 27.2188 74.0909C27.2188 73.9581 27.2187 73.8253 27.2334 73.7031L30.7874 67.9444C31.1326 67.3322 31.6529 66.8373 32.2816 66.5233C32.7714 66.2783 33.3116 66.1507 33.8594 66.1507C34.4071 66.1507 34.9473 66.2783 35.4372 66.5233L36.5156 67.0625L43.1562 63.0781V60.4219H53.7812Z" fill="#EEB8AB"/>
<path d="M45.8125 60.4219H43.1562V63.0781L37.6684 66.3705L36.5156 67.0625L35.4385 66.5233C35.3575 66.4834 35.2712 66.4675 35.1888 66.433C35.1065 66.4662 35.0188 66.4834 34.9391 66.5233C34.3105 66.8373 33.7901 67.3322 33.445 67.9444L29.8896 73.7031C29.8803 73.8359 29.875 73.9608 29.875 74.0909C29.8762 74.8831 30.1397 75.6525 30.6243 76.2792C31.109 76.9058 31.7874 77.3543 32.5538 77.5547C33.9534 77.3644 35.3108 76.9391 36.5688 76.297L49.2258 69.7971C50.6154 68.9634 51.7655 67.784 52.5638 66.3738C53.3621 64.9635 53.7816 63.3705 53.7812 61.75V60.4219H45.8125Z" fill="#FFE1D3"/>
<path d="M9.95312 53.7812H12.6094V60.4219H9.95312V53.7812Z" fill="#CE903E"/>
<path d="M11.2812 65.7344H19.25L19.6391 65.3452C19.9369 65.0475 20.2903 64.8114 20.6793 64.6503C21.0683 64.4892 21.4852 64.4062 21.9062 64.4062C22.3273 64.4062 22.7442 64.4892 23.1332 64.6503C23.5222 64.8114 23.8756 65.0475 24.1734 65.3452L24.5625 65.7344H27.2188C28.2755 65.7344 29.2889 66.1542 30.0361 66.9014C30.7833 67.6486 31.2031 68.662 31.2031 69.7188C31.2031 70.7755 30.7833 71.7889 30.0361 72.5361C29.2889 73.2833 28.2755 73.7031 27.2188 73.7031H7.29688C5.53567 73.7031 3.8466 73.0035 2.60124 71.7581C1.35589 70.5128 0.65625 68.8237 0.65625 67.0625V60.4219H11.2812V65.7344Z" fill="#FFE1D3"/>
<path d="M7.29688 64.4062H11.2812V67.0625H7.29688V64.4062Z" fill="#EEB8AB"/>
<path d="M31.2031 55.1094H39.1719V57.7656H31.2031V55.1094Z" fill="#EEAB45"/>
<path d="M41.8281 53.7812H44.4844V60.4219H41.8281V53.7812Z" fill="#CE903E"/>
<path d="M32.5312 28.5469C32.5312 29.9558 31.9715 31.3071 30.9753 32.3034C29.979 33.2997 28.6277 33.8594 27.2188 33.8594C25.8098 33.8594 24.4585 33.2997 23.4622 32.3034C22.466 31.3071 21.9062 29.9558 21.9062 28.5469H32.5312Z" fill="#DD5E56"/>
<path d="M23.3738 23.8281L22.9369 22.9541C22.7797 22.6392 22.5379 22.3742 22.2386 22.189C21.9392 22.0039 21.5942 21.9058 21.2422 21.9058C20.8902 21.9058 20.5452 22.0039 20.2458 22.189C19.9465 22.3742 19.7047 22.6392 19.5475 22.9541L19.1106 23.8281L16.7332 22.6407L17.1715 21.7668C17.5492 21.0105 18.1302 20.3744 18.8492 19.9298C19.5682 19.4852 20.3968 19.2497 21.2422 19.2497C22.0876 19.2497 22.9162 19.4852 23.6352 19.9298C24.3542 20.3744 24.9352 21.0105 25.3129 21.7668L25.7512 22.6407L23.3738 23.8281Z" fill="#684D42"/>
<path d="M35.327 23.8281L34.89 22.9541C34.7329 22.6392 34.4911 22.3742 34.1917 22.189C33.8924 22.0039 33.5473 21.9058 33.1953 21.9058C32.8433 21.9058 32.4983 22.0039 32.1989 22.189C31.8996 22.3742 31.6578 22.6392 31.5006 22.9541L31.0637 23.8281L28.6863 22.6407L29.1246 21.7668C29.5023 21.0105 30.0833 20.3744 30.8023 19.9298C31.5213 19.4852 32.35 19.2497 33.1953 19.2497C34.0407 19.2497 34.8693 19.4852 35.5884 19.9298C36.3074 20.3744 36.8883 21.0105 37.266 21.7668L37.7043 22.6407L35.327 23.8281Z" fill="#684D42"/>
<path d="M72.8996 48.4688L72.3816 53.6484L75.0246 53.9141L76.3527 40.6328L73.7098 40.3672L73.1652 45.8125H65.3944L64.385 40.2623L61.7712 40.7377L64.4275 55.3471L67.0412 54.8716L65.8765 48.4688H72.8996Z" fill="#447B3B"/>
<path d="M79.0674 63.442L81.6201 62.7142L78.9638 53.4173C78.8919 53.1663 78.7477 52.942 78.549 52.7725C78.3504 52.6031 78.1062 52.4959 77.847 52.4644C77.5878 52.433 77.3251 52.4786 77.0916 52.5956C76.8582 52.7127 76.6645 52.8959 76.5347 53.1225L71.2222 62.4194L73.5278 63.7369L74.6633 61.7447H78.5826L79.0674 63.442ZM76.1814 59.0937L77.2758 57.1773L77.8203 59.0937H76.1814Z" fill="#447B3B"/>
<path d="M65.7344 18.8768V23.2344H68.3906V8.625H65.7344V16.1502L56.0151 18.3934L55.0934 12.4075L52.4691 12.8113L55.1253 30.0769L57.7497 29.6731L56.4202 21.0257L65.7344 18.8768Z" fill="#447B3B"/>
<path d="M68.2233 31.8473L70.0574 28.5469H76.382L77.8017 31.7423L80.2295 30.6639L74.917 18.7108C74.8167 18.485 74.6555 18.2917 74.4514 18.1526C74.2472 18.0135 74.0084 17.934 73.7616 17.9232C73.5144 17.909 73.2684 17.9657 73.0524 18.0866C72.8363 18.2076 72.6594 18.3877 72.5424 18.6059L65.9017 30.559L68.2233 31.8473ZM73.5703 22.2223L75.2013 25.8906H71.533L73.5703 22.2223Z" fill="#447B3B"/>
<path d="M27.2188 45.8125C28.8237 45.8099 30.3731 45.2241 31.5784 44.1642C32.7836 43.1043 33.5626 41.6426 33.7704 40.0511H20.6671C20.8749 41.6426 21.6539 43.1043 22.8591 44.1642C24.0644 45.2241 25.6138 45.8099 27.2188 45.8125Z" fill="#FFE1D3"/>
</svg>
