<svg width="80" height="80" viewBox="0 0 80 80" fill="none" xmlns="http://www.w3.org/2000/svg">
<g clip-path="url(#clip0_80_3201)">
<path d="M27.7929 72.3073C28.366 71.9722 28.5613 71.2374 28.2293 70.6618C27.8961 70.0838 27.1575 69.8855 26.5795 70.2193C26.4215 70.3103 22.713 72.5069 23.3184 77.1175C23.3984 77.7254 23.9172 78.1679 24.5141 78.1679C24.5666 78.1679 24.6197 78.1643 24.6728 78.1576C25.3344 78.0709 25.8001 77.4642 25.7128 76.8026C25.3228 73.8283 27.6782 72.3763 27.7929 72.3073Z" fill="#FFA812"/>
<path d="M33.8238 72.1564C33.3044 71.7377 32.5445 71.8195 32.1252 72.3383C32.1038 72.3651 31.994 72.5037 31.8377 72.7314C31.8878 72.4128 31.8127 72.0752 31.5991 71.8006C31.1895 71.2744 30.4309 71.1798 29.9047 71.5888C29.7674 71.6956 26.5521 74.2414 26.6058 78.0762C26.6156 78.7372 27.1539 79.267 27.8131 79.267C27.8192 79.267 27.8247 79.267 27.8308 79.2664C28.4973 79.2572 29.0307 78.7091 29.021 78.042C28.9874 75.644 30.9832 73.8385 31.3366 73.5376C30.5981 74.8554 29.7265 77.0685 30.5609 79.2273C30.7458 79.7058 31.203 80 31.6876 80C31.8322 80 31.9793 79.9738 32.1228 79.9182C32.7447 79.6778 33.0542 78.9789 32.8137 78.3564C32.1722 76.6962 33.4576 74.5429 34.0075 73.852C34.4244 73.3332 34.3426 72.5745 33.8238 72.1564Z" fill="#FFA812"/>
<path d="M53.7884 70.2191C53.2104 69.8853 52.4682 70.0812 52.135 70.6592C51.8017 71.2372 51.9958 71.9739 52.5738 72.3066C52.6751 72.367 55.0469 73.8184 54.6551 76.8024C54.5684 77.464 55.0341 78.0707 55.6951 78.1574C55.7482 78.1641 55.8013 78.1678 55.8538 78.1678C56.4508 78.1678 56.9696 77.7253 57.0501 77.1173C57.655 72.5067 53.9465 70.3101 53.7884 70.2191Z" fill="#FFA812"/>
<path d="M50.4638 71.5894C49.9389 71.181 49.1839 71.275 48.7731 71.7987C48.5571 72.074 48.482 72.4152 48.5339 72.7362C48.3752 72.5055 48.2641 72.3651 48.2427 72.3383C47.8234 71.8195 47.0636 71.7377 46.5441 72.1564C46.0247 72.5751 45.9436 73.3356 46.3623 73.855C46.3818 73.8794 48.3227 76.3684 47.5543 78.3569C47.3138 78.9789 47.6232 79.6784 48.2452 79.9188C48.3886 79.9738 48.5357 80 48.6804 80C49.165 80 49.6221 79.7064 49.8071 79.2273C50.6414 77.0691 49.7698 74.856 49.0313 73.5382C49.3859 73.8397 51.3806 75.6452 51.347 78.0426C51.3378 78.7091 51.8707 79.2578 52.5372 79.267H52.5549C53.2141 79.267 53.753 78.7378 53.7622 78.0762C53.8159 74.2413 50.6005 71.6956 50.4638 71.5894Z" fill="#FFA812"/>
<path d="M19.8113 46.7615C19.8113 46.7615 19.812 46.7615 19.8126 46.7621C17.2698 45.3967 15.1892 43.7122 13.554 41.7401L13.5498 41.7395C13.5498 41.7395 2.70991 62.2498 20.6817 65.5975C15.7965 57.6666 19.8113 46.7615 19.8113 46.7615Z" fill="#DD8858"/>
<path d="M10.4467 51.7163C9.77596 57.4506 11.3183 63.8531 20.6817 65.5975C19.7436 64.0741 19.1345 62.4414 18.7616 60.7971C13.1726 59.1766 10.9802 55.5994 10.4467 51.7163Z" fill="#D97F4A"/>
<path d="M60.5572 46.7615C60.5566 46.7615 60.556 46.7615 60.556 46.7621C63.0981 45.3967 65.1788 43.7122 66.8139 41.7401L66.8182 41.7395C66.8182 41.7395 77.6586 62.2498 59.6862 65.5975C64.5715 57.6666 60.5572 46.7615 60.5572 46.7615Z" fill="#DD8858"/>
<path d="M61.6064 60.7971C61.2335 62.4414 60.6243 64.0741 59.6862 65.5975C69.0496 63.8531 70.592 57.4506 69.9212 51.7169C69.3878 55.5994 67.1954 59.1766 61.6064 60.7971Z" fill="#D97F4A"/>
<path d="M60.5572 46.7615C55.5645 49.4427 48.8025 50.8972 40.1843 50.8972C31.5655 50.8972 24.8034 49.4427 19.8114 46.7615C19.8114 46.7615 9.89499 73.6902 40.1843 73.6902C70.473 73.6902 60.5572 46.7615 60.5572 46.7615Z" fill="#AD5E2E"/>
<path d="M40.1843 69.3427C23.5113 69.3427 19.021 61.1829 18.3532 53.847C17.6879 61.8256 20.0787 73.6902 40.1843 73.6902C60.2893 73.6902 62.68 61.8256 62.0147 53.847C61.347 61.1829 56.8566 69.3427 40.1843 69.3427Z" fill="#A05528"/>
<path d="M40.1842 50.8972C60.0652 50.8972 70.0762 43.161 71.2444 30.4626C72.4401 17.4548 64.5562 6.69735 64.5562 6.69735C66.2511 5.05672 67.4645 3.40145 68.3007 2.03792C68.9599 0.962482 67.9095 -0.339398 66.7199 0.080524C53.5454 4.73384 40.1842 4.19246 40.1842 4.19246C40.1842 4.19246 26.8224 4.73384 13.648 0.080524C12.4584 -0.339398 11.408 0.962482 12.0672 2.03792C12.9034 3.40145 14.1167 5.05672 15.8117 6.69735C15.8117 6.69735 7.92777 17.4548 9.12345 30.4626C10.2917 43.161 20.3026 50.8972 40.1842 50.8972Z" fill="#DD8858"/>
<path d="M71.2445 26.1145C70.0762 38.8135 60.0653 46.5497 40.1843 46.5497C20.3027 46.5497 10.2917 38.8135 9.12409 26.1145C9.107 25.9296 9.09235 25.7446 9.07893 25.5603C8.96723 27.1448 8.96967 28.7848 9.12409 30.4626C10.2917 43.161 20.3027 50.8972 40.1843 50.8972C60.0653 50.8972 70.0762 43.161 71.2445 30.4626C71.3983 28.7848 71.4007 27.1448 71.2896 25.5603C71.2762 25.7446 71.2609 25.9296 71.2445 26.1145Z" fill="#D97F4A"/>
<path d="M55.7757 11.7413C45.8636 8.14636 40.1843 16.8768 40.1843 16.8768C40.1843 16.8768 34.5044 8.14636 24.5922 11.7413C14.6801 15.3363 14.2724 30.2557 18.3447 36.756C21.831 42.3206 30.9674 44.1425 36.9006 37.644C36.5216 36.6998 36.3018 35.6464 36.3018 34.649C36.3018 31.8396 38.0401 30.5389 40.1843 30.5389C42.3278 30.5389 44.0661 31.8396 44.0661 34.649C44.0661 35.6464 43.8464 36.6998 43.4674 37.644C49.4006 44.1425 58.5369 42.3206 62.0233 36.756C66.0962 30.2563 65.6884 15.3363 55.7757 11.7413Z" fill="#FFE9C8"/>
<path d="M36.3513 33.8647C30.418 39.6808 21.7254 37.8046 18.3447 32.4084C17.1136 30.4437 16.2927 27.7087 16.0192 24.7504C15.5993 29.259 16.5234 33.8495 18.3447 36.756C21.831 42.3212 30.9674 44.1425 36.9006 37.644C36.5216 36.6998 36.3018 35.647 36.3018 34.649C36.3018 34.3732 36.3189 34.1119 36.3513 33.8647Z" fill="#FFDCA7"/>
<path d="M62.0233 32.4084C58.6425 37.8046 49.9499 39.6808 44.0167 33.8647C44.049 34.1119 44.0661 34.3732 44.0661 34.649C44.0661 35.6464 43.8464 36.6998 43.4673 37.644C49.4006 44.1425 58.5369 42.3206 62.0233 36.756C63.8445 33.8495 64.7686 29.259 64.3487 24.7504C64.0753 27.7087 63.2543 30.4437 62.0233 32.4084Z" fill="#FFDCA7"/>
<path d="M44.0661 34.649C44.0661 31.8396 42.3278 30.5389 40.1843 30.5389C38.0401 30.5389 36.3018 31.8396 36.3018 34.649C36.3018 37.4585 38.0401 40.7135 40.1843 40.7135C42.3278 40.7135 44.0661 37.4585 44.0661 34.649Z" fill="#FFA812"/>
<path d="M40.1843 36.366C38.6334 36.366 37.2961 34.6637 36.6735 32.6587C36.4355 33.2098 36.3018 33.8715 36.3018 34.649C36.3018 37.4591 38.0401 40.7135 40.1843 40.7135C42.3278 40.7135 44.0661 37.4585 44.0661 34.649C44.0661 33.8715 43.9324 33.2098 43.6944 32.6587C43.0724 34.6637 41.7346 36.366 40.1843 36.366Z" fill="#FF9A00"/>
<path d="M27.5866 21.5918C25.6902 21.5918 24.2053 23.5321 24.2053 26.0101C24.2053 28.4875 25.6902 30.4285 27.5866 30.4285C29.4824 30.4285 30.9673 28.4875 30.9673 26.0101C30.9673 23.5321 29.4824 21.5918 27.5866 21.5918Z" fill="#433F43"/>
<path d="M52.7819 21.5918C50.8856 21.5918 49.4006 23.5321 49.4006 26.0101C49.4006 28.4875 50.8856 30.4285 52.7819 30.4285C54.6777 30.4285 56.1633 28.4875 56.1633 26.0101C56.1633 23.5321 54.6777 21.5918 52.7819 21.5918Z" fill="#433F43"/>
</g>
<defs>
<clipPath id="clip0_80_3201">
<rect width="80" height="80" fill="white"/>
</clipPath>
</defs>
</svg>
