<svg width="98" height="75" viewBox="0 0 98 75" fill="none" xmlns="http://www.w3.org/2000/svg">
<path d="M42.2994 48.7775C42.0583 48.7775 41.8136 48.7184 41.5874 48.5937C38.0887 46.6671 38.0927 43.2489 38.5837 41.7106C38.8321 40.9325 39.6642 40.503 40.4422 40.7513C41.2157 40.9982 41.6446 41.8218 41.406 42.5957C41.2988 42.9649 40.8848 44.8301 43.0141 46.0027C43.7296 46.3966 43.9903 47.296 43.5962 48.0115C43.3269 48.5009 42.821 48.7775 42.2994 48.7775Z" fill="#E1D3CE"/>
<path d="M92.8897 8.42868C92.8897 7.37155 91.8676 6.62583 90.855 6.93017C87.9479 7.80355 85.8298 10.5007 85.8298 13.6922C85.8298 17.5911 88.9905 20.7518 92.8895 20.7518V8.42868H92.8897Z" fill="#E1D3CE"/>
<path d="M96.5945 25.5025H61.3689V13.6924H96.5945C97.3709 13.6924 98 14.3217 98 15.0978V24.0968C98 24.8732 97.3707 25.5025 96.5945 25.5025Z" fill="#F3EAE6"/>
<path d="M86.0289 25.5025L56.1368 20.752L61.3687 30.707H85.0024C85.5691 30.707 86.0287 30.2475 86.0287 29.6807V25.5025H86.0289Z" fill="#E1D3CE"/>
<path d="M97.9988 20.2034V24.0982C97.9988 24.8741 97.3703 25.5025 96.5945 25.5025H61.369V21.6078H96.5945C97.3705 21.6078 97.9988 20.9794 97.9988 20.2034Z" fill="#E1D3CE"/>
<path d="M27.5388 24.2484C19.1481 21.96 15.3202 16.3401 13.6505 12.5841C13.1056 11.3583 14.3951 10.128 15.5895 10.7386C19.5345 12.7556 26.6315 15.5878 33.5365 14.3114L27.5388 24.2484Z" fill="#F3EAE6"/>
<path d="M42.6545 56.594H39.9729C33.9304 56.594 29.0145 51.6781 29.0145 45.6356V34.5367C29.0145 33.1333 30.1522 31.9956 31.5556 31.9956H51.0716C52.475 31.9956 53.6127 33.1333 53.6127 34.5367V45.6356C53.6129 51.6781 48.697 56.594 42.6545 56.594ZM34.0967 37.078V45.6358C34.0967 48.8759 36.7326 51.5117 39.9727 51.5117H42.6543C45.8944 51.5117 48.5305 48.8759 48.5305 45.6358V37.078H34.0967Z" fill="#E1D3CE"/>
<path d="M34.0967 42.1604C27.9679 42.1604 22.9994 47.1289 22.9994 53.2577V63.7627C22.9994 66.7316 20.5926 69.1383 17.6237 69.1383H5.37717C2.03081 69.1383 -0.502256 66.1137 0.0849783 62.8194L1.3274 55.8488C3.90334 41.3969 16.4705 30.8718 31.1502 30.8718H34.0967V42.1604Z" fill="#DD7F66"/>
<path d="M34.0973 30.872V30.9855C20.5649 32.151 9.31594 42.2649 6.89503 55.8498L5.65166 62.8193C5.06557 66.1143 7.59826 69.1383 10.944 69.1383H5.37737C2.03159 69.1383 -0.501096 66.1143 0.0849899 62.8193L1.32836 55.8498C3.90335 41.3975 16.472 30.872 31.1514 30.872H34.0973Z" fill="#D6694B"/>
<path d="M57.2699 27.2363H34.0967V42.1602H54.1094C55.8548 42.1602 57.2697 40.7453 57.2697 38.9999V27.2363H57.2699Z" fill="#F3EAE6"/>
<path d="M65.5319 12.7545L64.1655 32.2836C64.0175 34.4151 62.5585 36.1623 60.6103 36.7578C60.141 36.9017 59.6441 36.9786 59.1315 36.9786H39.543C35.7216 36.9786 32.261 35.4288 29.7568 32.9245C27.2526 30.4203 25.7026 26.9616 25.7026 23.1383C25.7026 15.4954 31.9001 9.29977 39.543 9.29977H62.31C64.1812 9.29977 65.6621 10.8871 65.5319 12.7545Z" fill="#F3EAE6"/>
<path d="M64.154 32.4299C63.8998 35.0031 61.7331 36.9785 59.1309 36.9785H39.5438C35.722 36.9785 32.2625 35.43 29.7587 32.9245C27.2532 30.4205 25.7047 26.9595 25.7047 23.1394C25.7047 17.5149 29.0591 12.6748 33.8755 10.5098C32.2355 12.7834 31.2716 15.5735 31.2716 18.5906C31.2716 22.4124 32.82 25.8719 35.3256 28.3757C37.8293 30.8797 41.2888 32.4297 45.1106 32.4297H64.154V32.4299Z" fill="#E1D3CE"/>
<path d="M59.1309 13.8491V20.9761H39.6622C37.6936 20.9761 36.0979 19.3804 36.0979 17.4135C36.0979 16.4293 36.4977 15.5381 37.1414 14.8927C37.7868 14.2472 38.678 13.8491 39.6622 13.8491H59.1309Z" fill="#F9F3F1"/>
<path d="M59.1309 25.3011V32.4299H39.6622C37.6936 32.4299 36.0979 30.8341 36.0979 28.8655C36.0979 27.8813 36.4977 26.9901 37.1414 26.3447C37.7868 25.6993 38.678 25.3011 39.6622 25.3011H59.1309Z" fill="#F9F3F1"/>
<path d="M60.6103 9.29977V36.7578C60.141 36.9017 59.6441 36.9786 59.1315 36.9786H57.6527V9.29977H60.6103Z" fill="#E1D3CE"/>
</svg>
