<svg width="80" height="80" viewBox="0 0 80 80" fill="none" xmlns="http://www.w3.org/2000/svg">
<path fill-rule="evenodd" clip-rule="evenodd" d="M10.0061 31.687C-9.3994 65.4962 61.872 63.9813 50.5151 33.9087C49.5886 33.6487 48.8721 31.4538 47.8912 31.322C39.1626 30.1306 30.813 30.9979 19.3237 30.4596C17.544 30.423 13.3417 30.3271 10.0061 31.687Z" fill="#E6E6E6"/>
<path fill-rule="evenodd" clip-rule="evenodd" d="M0 47.793V66.8701C0 68.9368 1.68823 70.625 3.75488 70.625H76.2445C78.3069 70.625 80 68.9368 80 66.8695V47.793H11.6168C10.7318 47.793 10.0061 47.0679 10.0061 46.1823V15.9045C10.0061 13.1531 7.75696 10.9033 5.00549 10.9033C2.24976 10.9039 0 13.1531 0 15.9045L0 47.793Z" fill="#B5722F"/>
<path fill-rule="evenodd" clip-rule="evenodd" d="M17.1924 30.4505C17.4072 38.6359 23.2153 45.5072 31.1456 47.793H46.0522L50.0995 41.0767L47.2937 33.9087C47.0837 35.9302 46.4081 37.2992 44.9115 38.805C44.8749 38.8416 44.834 38.8825 44.7931 38.9185C43.5107 40.1734 41.8909 41.1548 40.1666 41.8299C36.9727 43.0707 33.4137 43.2489 30.9357 42.1216L25.1318 39.48C21.1255 37.6593 19.3964 34.1596 19.3237 30.4596C18.7939 30.4505 18.0554 30.4322 17.1924 30.4505Z" fill="#C2C7CC"/>
<path fill-rule="evenodd" clip-rule="evenodd" d="M39.9976 52.0959C39.4592 58.0548 45.683 64.3054 51.8201 64.7571H70.3906C77.796 64.7571 80 63.2153 80 56.1841V47.7936H41.0516C40.6042 49.0936 40.1575 50.3436 39.9976 52.0959Z" fill="#91561A"/>
<path fill-rule="evenodd" clip-rule="evenodd" d="M37.1277 16.817L36.2378 18.7653L40.6458 20.7727C41.12 20.9869 41.5857 21.2659 42.0374 21.5942C42.7948 19.9835 41.9373 17.4378 40.2991 16.6937L39.0125 16.1096C38.3002 15.7855 37.4518 16.1005 37.1277 16.817Z" fill="#EDA93B"/>
<path fill-rule="evenodd" clip-rule="evenodd" d="M34.8419 18.1311C33.8879 33.1287 26.8616 29.0173 25.1318 39.48L30.9357 42.1216C33.4137 43.2489 36.9727 43.0707 40.1666 41.8298C41.9458 41.1359 43.6115 40.1141 44.9121 38.8049C46.4087 37.2992 47.0837 35.9302 47.2937 33.9087C47.312 33.7677 47.3212 33.6212 47.3346 33.4662C47.3712 32.9321 47.3712 32.3895 47.3346 31.842C47.2479 30.5505 46.9604 29.2456 46.5222 28.0048C45.5872 25.3674 43.949 23.0042 42.0374 21.5942C41.5857 21.2659 41.12 20.9869 40.6458 20.7727L36.2378 18.7653L34.8419 18.1311Z" fill="#FFDDA6"/>
<path fill-rule="evenodd" clip-rule="evenodd" d="M34.8419 18.1311C26.355 14.2712 19.4196 22.4652 19.3237 30.0531C19.3188 30.1904 19.3188 30.3271 19.3237 30.4596C19.3964 34.1595 21.1261 37.6593 25.1318 39.48C26.8616 29.0179 33.8879 33.1286 34.8419 18.1311Z" fill="#808080"/>
<path fill-rule="evenodd" clip-rule="evenodd" d="M34.8419 18.1311C28.8824 15.4205 23.6902 18.6511 21.0895 23.4467C23.941 20.2893 28.1982 18.6877 32.9346 20.8453L34.3311 21.4801L34.4769 21.5485C34.6411 20.531 34.7644 19.3994 34.8419 18.1311Z" fill="#666666"/>
<path fill-rule="evenodd" clip-rule="evenodd" d="M34.8419 18.1311C34.7644 19.3677 34.6454 20.4761 34.4904 21.4709L38.7335 23.4009C39.2126 23.62 39.6783 23.8983 40.1257 24.2267C42.0416 25.6317 43.6755 27.9956 44.6106 30.6372C45.0537 31.8781 45.3363 33.1787 45.423 34.4745C45.4596 35.0171 45.4596 35.5646 45.423 36.0986C45.4138 36.2494 45.4004 36.4001 45.3864 36.5411C45.2905 37.4402 45.1031 38.2117 44.7931 38.9185C44.8346 38.8818 44.8755 38.8409 44.9121 38.8043C46.4087 37.2992 47.0837 35.9302 47.2937 33.9087C47.312 33.7671 47.3212 33.6212 47.3346 33.4662C47.3712 32.9321 47.3712 32.3895 47.3346 31.8414C47.2479 30.5505 46.9604 29.2456 46.5222 28.0048C45.5872 25.3674 43.949 23.0035 42.0374 21.5936C41.5857 21.2653 41.12 20.9869 40.6458 20.7727L36.2378 18.7653L34.8419 18.1311Z" fill="#FCC368"/>
<path fill-rule="evenodd" clip-rule="evenodd" d="M46.0529 47.793C45.5963 52.6892 48.5987 57.0691 53.4265 58.1958H71.8463C78.1293 58.1958 80 56.9275 80 51.1511V25.8148C80 24.3091 78.7677 23.0768 77.2626 23.0768H57.9297C47.9828 23.0768 47.8913 26.6223 47.3346 31.842C47.3712 32.3895 47.3712 32.9321 47.3346 33.4662C47.3212 33.6212 47.312 33.7671 47.2937 33.9087C49.032 42.8699 46.4539 43.5089 46.0529 47.793Z" fill="#F78411"/>
<path fill-rule="evenodd" clip-rule="evenodd" d="M57.9798 46.0138L57.414 47.793L56.6474 50.2112C56.3373 51.1969 55.6617 51.7035 55.2283 51.4343C52.6826 49.837 50.5652 53.2452 53.5175 54.9158C54.2426 55.3217 53.6225 56.4032 53.5267 56.8091C53.476 57.0367 53.4443 57.2559 53.426 57.475C53.4034 57.7216 53.4034 57.9633 53.426 58.1958C53.7501 61.9055 59.0839 63.3881 61.5888 58.1958C61.7853 57.7899 61.9629 57.3425 62.1229 56.8542L65.0428 47.793C65.7459 45.6165 65.5817 44.0106 64.9109 41.8616L63.3637 36.9019H57.4824L57.464 40.9943L58.1531 43.4949C58.3356 44.6906 58.3405 44.873 57.9798 46.0138Z" fill="#FFDDA6"/>
<path fill-rule="evenodd" clip-rule="evenodd" d="M61.972 41.8616C62.6385 44.0106 62.8076 45.6165 62.1045 47.793L59.9969 54.3359L59.1803 56.8549C59.0247 57.3431 58.847 57.7899 58.6505 58.1958C57.8522 59.848 56.7712 60.824 55.6531 61.2665C57.5055 62.038 60.0653 61.344 61.5894 58.1958C61.7853 57.7899 61.9635 57.3425 62.1234 56.8549L62.8851 54.491L65.0433 47.7936C65.0433 47.7887 65.0433 47.7844 65.0482 47.7795C65.0482 47.7795 65.0482 47.7753 65.0482 47.7704C65.1074 47.5928 65.1575 47.4188 65.2032 47.2504C65.7141 45.343 65.5225 43.833 64.9109 41.8707C64.9109 41.8665 64.9109 41.8665 64.9109 41.8616L63.3643 36.9025L63.3093 36.9708C63.3093 36.9751 63.3093 36.9751 63.3051 36.9751C63.3002 36.9843 63.2959 36.9891 63.291 36.9977C62.981 37.3901 62.5977 37.7374 62.1918 38.0566C61.8176 38.3441 61.4252 38.6133 61.037 38.8776L61.972 41.8616Z" fill="#FCC368"/>
<path fill-rule="evenodd" clip-rule="evenodd" d="M47.3346 31.842L52.0526 38.4125C53.2525 40.0867 55.3924 41.4325 57.464 40.9949C57.7563 40.935 58.0481 40.8392 58.3356 40.7025C59.0478 40.3607 59.8828 39.685 60.5444 39.22C61.4978 38.5443 62.5928 37.8967 63.3093 36.9702L63.3636 36.9018C64.7827 35.0177 64.9017 32.3437 63.4686 30.318L59.8138 25.1349C59.2212 24.3182 58.5864 23.6383 57.9297 23.0768C52.6233 18.5876 45.7287 22.1234 46.5228 28.0047C46.9604 29.2456 47.2479 30.5505 47.3346 31.842Z" fill="#64B0D9"/>
<path fill-rule="evenodd" clip-rule="evenodd" d="M56.994 27.4481L60.6488 32.6312C61.2921 33.5437 61.6211 34.5844 61.662 35.6287C61.6803 36.0535 61.6437 36.4819 61.5662 36.9019C61.4069 37.7326 61.0596 38.526 60.5444 39.22C60.5487 39.2151 60.553 39.2108 60.5627 39.2059C61.0919 38.8318 61.662 38.4668 62.1912 38.056C62.6068 37.7319 62.9901 37.381 63.3044 36.9745C63.3093 36.9745 63.3093 36.9745 63.3093 36.9702L63.3636 36.9019C63.6603 36.5094 63.8977 36.0761 64.0802 35.6287C64.7644 33.9221 64.6002 31.919 63.4686 30.318L59.8138 25.1343C59.2212 24.3176 58.5864 23.6377 57.9297 23.0768C54.0649 19.8053 49.3518 20.7953 47.3895 23.8526C49.6436 22.9309 52.5592 23.2367 55.1099 25.3943C55.7666 25.9515 56.4014 26.6315 56.994 27.4481Z" fill="#4A83C9"/>
<path d="M54.74 13.6127H48.9453C48.4528 13.6127 48.0084 13.316 47.8204 12.8601C47.6324 12.4042 47.738 11.8805 48.0872 11.5326L51.5082 8.12866H48.7579C48.0859 8.12866 47.5415 7.58362 47.5415 6.91101C47.5415 6.23901 48.0859 5.69397 48.7579 5.69397H54.4574C54.95 5.69397 55.3943 5.99121 55.5817 6.44714C55.7697 6.90247 55.6647 7.42676 55.3149 7.77466L51.8939 11.1786H54.74C55.412 11.1786 55.9564 11.7236 55.9564 12.3956C55.9564 13.0682 55.412 13.6127 54.74 13.6127Z" fill="#666666"/>
<path d="M66.6901 7.91382H60.8954C60.4028 7.91382 59.9585 7.61658 59.7705 7.16064C59.5825 6.70471 59.6881 6.18103 60.0378 5.83374L63.4564 2.43408H60.708C60.036 2.43408 59.4916 1.88965 59.4916 1.21704C59.4916 0.545044 60.036 0 60.708 0H66.4075C66.9 0 67.3444 0.297241 67.5317 0.753174C67.7197 1.20911 67.6141 1.7334 67.265 2.08069L63.8458 5.47974H66.6901C67.3621 5.47974 67.9071 6.02478 67.9071 6.69678C67.9071 7.36877 67.3621 7.91382 66.6901 7.91382Z" fill="#666666"/>
</svg>
