<svg width="90" height="82" viewBox="0 0 90 82" fill="none" xmlns="http://www.w3.org/2000/svg">
<g clip-path="url(#clip0_80_5056)">
<path d="M73.125 29.5312C72.3484 29.5312 71.7188 28.9016 71.7188 28.125V23.9062H18.2812V28.125C18.2812 28.9016 17.6516 29.5312 16.875 29.5312C16.0984 29.5312 15.4688 28.9016 15.4688 28.125V22.5C15.4688 21.7234 16.0984 21.0938 16.875 21.0938H73.125C73.9016 21.0938 74.5312 21.7234 74.5312 22.5V28.125C74.5312 28.9016 73.9016 29.5312 73.125 29.5312Z" fill="#867383"/>
<path d="M64.6875 0H25.3125C24.5359 0 23.9062 0.629654 23.9062 1.40625V52.0312C23.9062 52.8078 24.5359 53.4375 25.3125 53.4375H64.6875C65.4641 53.4375 66.0938 52.8078 66.0938 52.0312V1.40625C66.0938 0.629654 65.4641 0 64.6875 0Z" fill="#F0EDEF"/>
<path d="M29.5312 52.0312V1.40625C29.5312 0.629654 30.1609 0 30.9375 0H25.3125C24.5359 0 23.9062 0.629654 23.9062 1.40625V52.0312C23.9062 52.8078 24.5359 53.4375 25.3125 53.4375H30.9375C30.1609 53.4375 29.5312 52.8078 29.5312 52.0312Z" fill="#D2CAD0"/>
<path d="M47.8125 9.84375H30.9375C30.1609 9.84375 29.5312 9.2141 29.5312 8.4375C29.5312 7.6609 30.1609 7.03125 30.9375 7.03125H47.8125C48.5891 7.03125 49.2188 7.6609 49.2188 8.4375C49.2188 9.2141 48.5891 9.84375 47.8125 9.84375Z" fill="#D2CAD0"/>
<path d="M59.0625 9.84375H53.4375C52.6609 9.84375 52.0312 9.2141 52.0312 8.4375C52.0312 7.6609 52.6609 7.03125 53.4375 7.03125H59.0625C59.8391 7.03125 60.4688 7.6609 60.4688 8.4375C60.4688 9.2141 59.8391 9.84375 59.0625 9.84375Z" fill="#D2CAD0"/>
<path d="M37.9688 15.4688H30.9375C30.1609 15.4688 29.5312 14.8391 29.5312 14.0625C29.5312 13.2859 30.1609 12.6562 30.9375 12.6562H37.9688C38.7453 12.6562 39.375 13.2859 39.375 14.0625C39.375 14.8391 38.7453 15.4688 37.9688 15.4688Z" fill="#D2CAD0"/>
<path d="M59.0625 15.4688H43.5938C42.8172 15.4688 42.1875 14.8391 42.1875 14.0625C42.1875 13.2859 42.8172 12.6562 43.5938 12.6562H59.0625C59.8391 12.6562 60.4688 13.2859 60.4688 14.0625C60.4688 14.8391 59.8391 15.4688 59.0625 15.4688Z" fill="#D2CAD0"/>
<path d="M49.2188 21.0938H30.9375C30.1609 21.0938 29.5312 20.4641 29.5312 19.6875C29.5312 18.9109 30.1609 18.2812 30.9375 18.2812H49.2188C49.9953 18.2812 50.625 18.9109 50.625 19.6875C50.625 20.4641 49.9953 21.0938 49.2188 21.0938Z" fill="#D2CAD0"/>
<path d="M88.5938 30.9375H7.03125V17.4573L10.838 13.6505C11.3873 13.1012 11.3873 12.2113 10.838 11.662C10.2887 11.1127 9.3988 11.1127 8.84949 11.662L4.63074 15.8807C4.36707 16.1444 4.21875 16.5022 4.21875 16.875V30.9375H1.40625C0.629654 30.9375 0 31.5672 0 32.3438C0 33.1203 0.629654 33.75 1.40625 33.75H88.5938C89.3703 33.75 90 33.1203 90 32.3438C90 31.5672 89.3703 30.9375 88.5938 30.9375Z" fill="#867383"/>
<path d="M88.5938 25.3125H84.375C83.5984 25.3125 82.9688 25.9422 82.9688 26.7188V37.9688C82.9688 38.7453 83.5984 39.375 84.375 39.375H88.5938C89.3703 39.375 90 38.7453 90 37.9688V26.7188C90 25.9422 89.3703 25.3125 88.5938 25.3125Z" fill="#FFE06F"/>
<path d="M64.6875 37.9688H25.3125C24.5359 37.9688 23.9062 38.5984 23.9062 39.375V61.875C23.9062 62.6516 24.5359 63.2812 25.3125 63.2812H64.6875C65.4641 63.2812 66.0938 62.6516 66.0938 61.875V39.375C66.0938 38.5984 65.4641 37.9688 64.6875 37.9688Z" fill="#867383"/>
<path d="M54.8438 49.2188C45.4374 49.2188 37.0589 44.8208 31.6509 37.9688H25.3125C24.5359 37.9688 23.9062 38.5984 23.9062 39.375V61.875C23.9062 62.6516 24.5359 63.2812 25.3125 63.2812H64.6875C65.4641 63.2812 66.0938 62.6516 66.0938 61.875V46.9981C62.6262 48.4284 58.8277 49.2188 54.8438 49.2188Z" fill="#685064"/>
<path d="M88.2552 46.8972L80.0175 37.2869L77.2895 27.7384C77.1172 27.1349 76.5651 26.7188 75.9375 26.7188H70.1559C69.4391 26.7188 68.8369 27.2578 68.7586 27.9705C67.419 40.0836 57.2051 49.2188 45 49.2188C32.7949 49.2188 22.581 40.0836 21.2414 27.9705C21.1631 27.2578 20.5609 26.7188 19.8441 26.7188H14.0625C13.4349 26.7188 12.8828 27.1349 12.7105 27.7384L9.98245 37.2869L1.74477 46.8972C1.52641 47.1519 1.40625 47.4767 1.40625 47.8125V80.1562C1.40625 80.9328 2.0359 81.5625 2.8125 81.5625H87.1875C87.9641 81.5625 88.5938 80.9328 88.5938 80.1562V47.8125C88.5938 47.4767 88.4736 47.1519 88.2552 46.8972Z" fill="#ED8193"/>
<path d="M7.03125 80.1562V47.8125C7.03125 47.4767 7.15141 47.1519 7.36977 46.8972L15.6075 37.2869L18.3355 27.7384C18.5078 27.1349 19.0599 26.7188 19.6875 26.7188H14.0625C13.4349 26.7188 12.8828 27.1349 12.7105 27.7384L9.98245 37.2869L1.74477 46.8972C1.52641 47.1519 1.40625 47.4767 1.40625 47.8125V80.1562C1.40625 80.9328 2.0359 81.5625 2.8125 81.5625H8.4375C7.6609 81.5625 7.03125 80.9328 7.03125 80.1562Z" fill="#E7576F"/>
<path d="M81.5625 54.8438H75.9375C75.1609 54.8438 74.5312 55.4734 74.5312 56.25V61.875C74.5312 62.6516 75.1609 63.2812 75.9375 63.2812H81.5625C82.3391 63.2812 82.9688 62.6516 82.9688 61.875V56.25C82.9688 55.4734 82.3391 54.8438 81.5625 54.8438Z" fill="#867383"/>
<path d="M77.3438 60.4688V54.8438H75.9375C75.1609 54.8438 74.5312 55.4734 74.5312 56.25V61.875C74.5312 62.6516 75.1609 63.2812 75.9375 63.2812H81.5625C82.3391 63.2812 82.9688 62.6516 82.9688 61.875H78.75C77.9734 61.875 77.3438 61.2453 77.3438 60.4688Z" fill="#685064"/>
<path d="M70.3125 54.8438H64.6875C63.9109 54.8438 63.2812 55.4734 63.2812 56.25V61.875C63.2812 62.6516 63.9109 63.2812 64.6875 63.2812H70.3125C71.0891 63.2812 71.7188 62.6516 71.7188 61.875V56.25C71.7188 55.4734 71.0891 54.8438 70.3125 54.8438Z" fill="#867383"/>
<path d="M66.0938 60.4688V54.8438H64.6875C63.9109 54.8438 63.2812 55.4734 63.2812 56.25V61.875C63.2812 62.6516 63.9109 63.2812 64.6875 63.2812H70.3125C71.0891 63.2812 71.7188 62.6516 71.7188 61.875H67.5C66.7234 61.875 66.0938 61.2453 66.0938 60.4688Z" fill="#685064"/>
<path d="M59.0625 54.8438H53.4375C52.6609 54.8438 52.0312 55.4734 52.0312 56.25V61.875C52.0312 62.6516 52.6609 63.2812 53.4375 63.2812H59.0625C59.8391 63.2812 60.4688 62.6516 60.4688 61.875V56.25C60.4688 55.4734 59.8391 54.8438 59.0625 54.8438Z" fill="#867383"/>
<path d="M54.8438 60.4688V54.8438H53.4375C52.6609 54.8438 52.0312 55.4734 52.0312 56.25V61.875C52.0312 62.6516 52.6609 63.2812 53.4375 63.2812H59.0625C59.8391 63.2812 60.4688 62.6516 60.4688 61.875H56.25C55.4734 61.875 54.8438 61.2453 54.8438 60.4688Z" fill="#685064"/>
<path d="M47.8125 54.8438H42.1875C41.4109 54.8438 40.7812 55.4734 40.7812 56.25V61.875C40.7812 62.6516 41.4109 63.2812 42.1875 63.2812H47.8125C48.5891 63.2812 49.2188 62.6516 49.2188 61.875V56.25C49.2188 55.4734 48.5891 54.8438 47.8125 54.8438Z" fill="#867383"/>
<path d="M43.5938 60.4688V54.8438H42.1875C41.4109 54.8438 40.7812 55.4734 40.7812 56.25V61.875C40.7812 62.6516 41.4109 63.2812 42.1875 63.2812H47.8125C48.5891 63.2812 49.2188 62.6516 49.2188 61.875H45C44.2234 61.875 43.5938 61.2453 43.5938 60.4688Z" fill="#685064"/>
<path d="M36.5625 54.8438H30.9375C30.1609 54.8438 29.5312 55.4734 29.5312 56.25V61.875C29.5312 62.6516 30.1609 63.2812 30.9375 63.2812H36.5625C37.3391 63.2812 37.9688 62.6516 37.9688 61.875V56.25C37.9688 55.4734 37.3391 54.8438 36.5625 54.8438Z" fill="#867383"/>
<path d="M32.3438 60.4688V54.8438H30.9375C30.1609 54.8438 29.5312 55.4734 29.5312 56.25V61.875C29.5312 62.6516 30.1609 63.2812 30.9375 63.2812H36.5625C37.3391 63.2812 37.9688 62.6516 37.9688 61.875H33.75C32.9734 61.875 32.3438 61.2453 32.3438 60.4688Z" fill="#685064"/>
<path d="M25.3125 54.8438H19.6875C18.9109 54.8438 18.2812 55.4734 18.2812 56.25V61.875C18.2812 62.6516 18.9109 63.2812 19.6875 63.2812H25.3125C26.0891 63.2812 26.7188 62.6516 26.7188 61.875V56.25C26.7188 55.4734 26.0891 54.8438 25.3125 54.8438Z" fill="#867383"/>
<path d="M21.0938 60.4688V54.8438H19.6875C18.9109 54.8438 18.2812 55.4734 18.2812 56.25V61.875C18.2812 62.6516 18.9109 63.2812 19.6875 63.2812H25.3125C26.0891 63.2812 26.7188 62.6516 26.7188 61.875H22.5C21.7234 61.875 21.0938 61.2453 21.0938 60.4688Z" fill="#685064"/>
<path d="M14.0625 54.8438H8.4375C7.6609 54.8438 7.03125 55.4734 7.03125 56.25V61.875C7.03125 62.6516 7.6609 63.2812 8.4375 63.2812H14.0625C14.8391 63.2812 15.4688 62.6516 15.4688 61.875V56.25C15.4688 55.4734 14.8391 54.8438 14.0625 54.8438Z" fill="#867383"/>
<path d="M9.84375 60.4688V54.8438H8.4375C7.6609 54.8438 7.03125 55.4734 7.03125 56.25V61.875C7.03125 62.6516 7.6609 63.2812 8.4375 63.2812H14.0625C14.8391 63.2812 15.4688 62.6516 15.4688 61.875H11.25C10.4734 61.875 9.84375 61.2453 9.84375 60.4688Z" fill="#685064"/>
<path d="M75.9375 66.0938H70.3125C69.5359 66.0938 68.9062 66.7234 68.9062 67.5V73.125C68.9062 73.9016 69.5359 74.5312 70.3125 74.5312H75.9375C76.7141 74.5312 77.3438 73.9016 77.3438 73.125V67.5C77.3438 66.7234 76.7141 66.0938 75.9375 66.0938Z" fill="#867383"/>
<path d="M71.7188 71.7188V66.0938H70.3125C69.5359 66.0938 68.9062 66.7234 68.9062 67.5V73.125C68.9062 73.9016 69.5359 74.5312 70.3125 74.5312H75.9375C76.7141 74.5312 77.3438 73.9016 77.3438 73.125H73.125C72.3484 73.125 71.7188 72.4953 71.7188 71.7188Z" fill="#685064"/>
<path d="M64.6875 66.0938H59.0625C58.2859 66.0938 57.6562 66.7234 57.6562 67.5V73.125C57.6562 73.9016 58.2859 74.5312 59.0625 74.5312H64.6875C65.4641 74.5312 66.0938 73.9016 66.0938 73.125V67.5C66.0938 66.7234 65.4641 66.0938 64.6875 66.0938Z" fill="#867383"/>
<path d="M60.4688 71.7188V66.0938H59.0625C58.2859 66.0938 57.6562 66.7234 57.6562 67.5V73.125C57.6562 73.9016 58.2859 74.5312 59.0625 74.5312H64.6875C65.4641 74.5312 66.0938 73.9016 66.0938 73.125H61.875C61.0984 73.125 60.4688 72.4953 60.4688 71.7188Z" fill="#685064"/>
<path d="M53.4375 66.0938H36.5625C35.7859 66.0938 35.1562 66.7234 35.1562 67.5V73.125C35.1562 73.9016 35.7859 74.5312 36.5625 74.5312H53.4375C54.2141 74.5312 54.8438 73.9016 54.8438 73.125V67.5C54.8438 66.7234 54.2141 66.0938 53.4375 66.0938Z" fill="#867383"/>
<path d="M37.9688 71.7188V66.0938H36.5625C35.7859 66.0938 35.1562 66.7234 35.1562 67.5V73.125C35.1562 73.9016 35.7859 74.5312 36.5625 74.5312H53.4375C54.2141 74.5312 54.8438 73.9016 54.8438 73.125H39.375C38.5984 73.125 37.9688 72.4953 37.9688 71.7188Z" fill="#685064"/>
<path d="M30.9375 66.0938H25.3125C24.5359 66.0938 23.9062 66.7234 23.9062 67.5V73.125C23.9062 73.9016 24.5359 74.5312 25.3125 74.5312H30.9375C31.7141 74.5312 32.3438 73.9016 32.3438 73.125V67.5C32.3438 66.7234 31.7141 66.0938 30.9375 66.0938Z" fill="#867383"/>
<path d="M26.7188 71.7188V66.0938H25.3125C24.5359 66.0938 23.9062 66.7234 23.9062 67.5V73.125C23.9062 73.9016 24.5359 74.5312 25.3125 74.5312H30.9375C31.7141 74.5312 32.3438 73.9016 32.3438 73.125H28.125C27.3484 73.125 26.7188 72.4953 26.7188 71.7188Z" fill="#685064"/>
<path d="M19.6875 66.0938H14.0625C13.2859 66.0938 12.6562 66.7234 12.6562 67.5V73.125C12.6562 73.9016 13.2859 74.5312 14.0625 74.5312H19.6875C20.4641 74.5312 21.0938 73.9016 21.0938 73.125V67.5C21.0938 66.7234 20.4641 66.0938 19.6875 66.0938Z" fill="#867383"/>
<path d="M15.4688 71.7188V66.0938H14.0625C13.2859 66.0938 12.6562 66.7234 12.6562 67.5V73.125C12.6562 73.9016 13.2859 74.5312 14.0625 74.5312H19.6875C20.4641 74.5312 21.0938 73.9016 21.0938 73.125H16.875C16.0984 73.125 15.4688 72.4953 15.4688 71.7188Z" fill="#685064"/>
<path d="M50.625 35.1562H39.375C38.5984 35.1562 37.9688 34.5266 37.9688 33.75V30.9375C37.9688 30.1609 38.5984 29.5312 39.375 29.5312H50.625C51.4016 29.5312 52.0312 30.1609 52.0312 30.9375V33.75C52.0312 34.5266 51.4016 35.1562 50.625 35.1562Z" fill="#FFE06F"/>
</g>
<defs>
<clipPath id="clip0_80_5056">
<rect width="90" height="82" fill="white"/>
</clipPath>
</defs>
</svg>
