<svg width="85" height="85" viewBox="0 0 85 85" fill="none" xmlns="http://www.w3.org/2000/svg">
<path d="M64.328 20.7661C63.6502 20.7661 63.1003 20.2162 63.1003 19.5384V14.2232C63.1003 13.2153 62.2811 12.3953 61.2732 12.3953H54.7703C52.4092 12.3953 50.4877 10.4738 50.4877 8.11274C50.4877 7.10485 49.6677 6.28558 48.6606 6.28558H44.8544C44.1766 6.28558 43.6267 5.73568 43.6267 5.05789C43.6267 4.3801 44.1766 3.8302 44.8544 3.8302H48.6606C51.0216 3.8302 52.9431 5.75167 52.9431 8.11274C52.9431 9.12063 53.7624 9.93989 54.7703 9.93989H61.2732C63.6343 9.93989 65.5557 11.8614 65.5557 14.2232V19.5384C65.5557 20.2162 65.0058 20.7661 64.328 20.7661Z" fill="#C6C6F7"/>
<path d="M74.654 60.2697H10.3464C7.95251 60.2697 6.01184 58.3291 6.01184 55.9351V25.8781C6.01184 23.4842 7.95251 21.5435 10.3464 21.5435H74.654C77.0479 21.5435 78.9886 23.4842 78.9886 25.8781V55.9351C78.9886 58.3291 77.0479 60.2697 74.654 60.2697Z" fill="#5B5E8B"/>
<path d="M13.5571 60.2652H10.1356C7.85972 60.2652 6.01147 58.4169 6.01147 56.1411V25.6685C6.01147 23.3926 7.85972 21.5444 10.1356 21.5444H13.5571C11.2812 21.5444 9.43303 23.3926 9.43303 25.6685V56.1411C9.43303 58.4169 11.2812 60.2652 13.5571 60.2652Z" fill="#312E4B"/>
<path d="M69.1718 21.5429H59.4836V19.9794C59.4836 18.6285 60.5788 17.5334 61.9297 17.5334H66.7258C68.0767 17.5334 69.1718 18.6285 69.1718 19.9794V21.5429Z" fill="#312E4B"/>
<path d="M16.783 32.3314H12.9235C12.4806 32.3314 12.1216 31.9724 12.1216 31.5296V28.4553C12.1216 28.0124 12.4806 27.6534 12.9235 27.6534H16.783C17.2259 27.6534 17.5849 28.0124 17.5849 28.4553V31.5296C17.5849 31.9724 17.2259 32.3314 16.783 32.3314Z" fill="#DEDDFF"/>
<path d="M25.9986 32.3314H22.139C21.6962 32.3314 21.3372 31.9724 21.3372 31.5296V28.4553C21.3372 28.0124 21.6962 27.6534 22.139 27.6534H25.9986C26.4415 27.6534 26.8005 28.0124 26.8005 28.4553V31.5296C26.8005 31.9724 26.4415 32.3314 25.9986 32.3314Z" fill="#DEDDFF"/>
<path d="M35.2143 32.3314H31.3547C30.9119 32.3314 30.5529 31.9724 30.5529 31.5296V28.4553C30.5529 28.0124 30.9119 27.6534 31.3547 27.6534H35.2143C35.6572 27.6534 36.0162 28.0124 36.0162 28.4553V31.5296C36.0162 31.9724 35.6572 32.3314 35.2143 32.3314Z" fill="#DEDDFF"/>
<path d="M44.4299 32.3314H40.5703C40.1274 32.3314 39.7684 31.9724 39.7684 31.5296V28.4553C39.7684 28.0124 40.1274 27.6534 40.5703 27.6534H44.4299C44.8727 27.6534 45.2318 28.0124 45.2318 28.4553V31.5296C45.2318 31.9724 44.8727 32.3314 44.4299 32.3314Z" fill="#DEDDFF"/>
<path d="M53.6456 32.3314H49.786C49.3431 32.3314 48.9841 31.9724 48.9841 31.5296V28.4553C48.9841 28.0124 49.3431 27.6534 49.786 27.6534H53.6456C54.0884 27.6534 54.4475 28.0124 54.4475 28.4553V31.5296C54.4475 31.9724 54.0884 32.3314 53.6456 32.3314Z" fill="#DEDDFF"/>
<path d="M62.8611 32.3314H59.0016C58.5587 32.3314 58.1997 31.9724 58.1997 31.5296V28.4553C58.1997 28.0124 58.5587 27.6534 59.0016 27.6534H62.8611C63.304 27.6534 63.663 28.0124 63.663 28.4553V31.5296C63.663 31.9724 63.304 32.3314 62.8611 32.3314Z" fill="#DEDDFF"/>
<path d="M72.0767 32.3314H68.2172C67.7743 32.3314 67.4153 31.9724 67.4153 31.5296V28.4553C67.4153 28.0124 67.7743 27.6534 68.2172 27.6534H72.0767C72.5196 27.6534 72.8786 28.0124 72.8786 28.4553V31.5296C72.8786 31.9724 72.5196 32.3314 72.0767 32.3314Z" fill="#DEDDFF"/>
<path d="M16.783 39.6076H12.9235C12.4806 39.6076 12.1216 39.2486 12.1216 38.8057V35.7315C12.1216 35.2886 12.4806 34.9296 12.9235 34.9296H16.783C17.2259 34.9296 17.5849 35.2886 17.5849 35.7315V38.8057C17.5849 39.2486 17.2259 39.6076 16.783 39.6076Z" fill="#DEDDFF"/>
<path d="M25.9986 39.6076H22.139C21.6962 39.6076 21.3372 39.2486 21.3372 38.8057V35.7315C21.3372 35.2886 21.6962 34.9296 22.139 34.9296H25.9986C26.4415 34.9296 26.8005 35.2886 26.8005 35.7315V38.8057C26.8005 39.2486 26.4415 39.6076 25.9986 39.6076Z" fill="#DEDDFF"/>
<path d="M35.2143 39.6076H31.3547C30.9119 39.6076 30.5529 39.2486 30.5529 38.8057V35.7315C30.5529 35.2886 30.9119 34.9296 31.3547 34.9296H35.2143C35.6572 34.9296 36.0162 35.2886 36.0162 35.7315V38.8057C36.0162 39.2486 35.6572 39.6076 35.2143 39.6076Z" fill="#DEDDFF"/>
<path d="M44.4299 39.6076H40.5703C40.1274 39.6076 39.7684 39.2486 39.7684 38.8057V35.7315C39.7684 35.2886 40.1274 34.9296 40.5703 34.9296H44.4299C44.8727 34.9296 45.2318 35.2886 45.2318 35.7315V38.8057C45.2318 39.2486 44.8727 39.6076 44.4299 39.6076Z" fill="#DEDDFF"/>
<path d="M53.6456 39.6076H49.786C49.3431 39.6076 48.9841 39.2486 48.9841 38.8057V35.7315C48.9841 35.2886 49.3431 34.9296 49.786 34.9296H53.6456C54.0884 34.9296 54.4475 35.2886 54.4475 35.7315V38.8057C54.4475 39.2486 54.0884 39.6076 53.6456 39.6076Z" fill="#DEDDFF"/>
<path d="M62.8611 39.6076H59.0016C58.5587 39.6076 58.1997 39.2486 58.1997 38.8057V35.7315C58.1997 35.2886 58.5587 34.9296 59.0016 34.9296H62.8611C63.304 34.9296 63.663 35.2886 63.663 35.7315V38.8057C63.663 39.2486 63.304 39.6076 62.8611 39.6076Z" fill="#DEDDFF"/>
<path d="M72.0767 39.6076H68.2172C67.7743 39.6076 67.4153 39.2486 67.4153 38.8057V35.7315C67.4153 35.2886 67.7743 34.9296 68.2172 34.9296H72.0767C72.5196 34.9296 72.8786 35.2886 72.8786 35.7315V38.8057C72.8786 39.2486 72.5196 39.6076 72.0767 39.6076Z" fill="#DEDDFF"/>
<path d="M16.783 46.8838H12.9235C12.4806 46.8838 12.1216 46.5248 12.1216 46.0819V43.0076C12.1216 42.5648 12.4806 42.2057 12.9235 42.2057H16.783C17.2259 42.2057 17.5849 42.5648 17.5849 43.0076V46.0819C17.5849 46.5248 17.2259 46.8838 16.783 46.8838Z" fill="#DEDDFF"/>
<path d="M25.9986 46.8838H22.139C21.6962 46.8838 21.3372 46.5248 21.3372 46.0819V43.0076C21.3372 42.5648 21.6962 42.2057 22.139 42.2057H25.9986C26.4415 42.2057 26.8005 42.5648 26.8005 43.0076V46.0819C26.8005 46.5248 26.4415 46.8838 25.9986 46.8838Z" fill="#DEDDFF"/>
<path d="M35.2143 46.8838H31.3547C30.9119 46.8838 30.5529 46.5248 30.5529 46.0819V43.0076C30.5529 42.5648 30.9119 42.2057 31.3547 42.2057H35.2143C35.6572 42.2057 36.0162 42.5648 36.0162 43.0076V46.0819C36.0162 46.5248 35.6572 46.8838 35.2143 46.8838Z" fill="#DEDDFF"/>
<path d="M44.4299 46.8838H40.5703C40.1274 46.8838 39.7684 46.5248 39.7684 46.0819V43.0076C39.7684 42.5648 40.1274 42.2057 40.5703 42.2057H44.4299C44.8727 42.2057 45.2318 42.5648 45.2318 43.0076V46.0819C45.2318 46.5248 44.8727 46.8838 44.4299 46.8838Z" fill="#DEDDFF"/>
<path d="M53.6456 46.8838H49.786C49.3431 46.8838 48.9841 46.5248 48.9841 46.0819V43.0076C48.9841 42.5648 49.3431 42.2057 49.786 42.2057H53.6456C54.0884 42.2057 54.4475 42.5648 54.4475 43.0076V46.0819C54.4475 46.5248 54.0884 46.8838 53.6456 46.8838Z" fill="#DEDDFF"/>
<path d="M62.8611 46.8838H59.0016C58.5587 46.8838 58.1997 46.5248 58.1997 46.0819V43.0076C58.1997 42.5648 58.5587 42.2057 59.0016 42.2057H62.8611C63.304 42.2057 63.663 42.5648 63.663 43.0076V46.0819C63.663 46.5248 63.304 46.8838 62.8611 46.8838Z" fill="#DEDDFF"/>
<path d="M72.0767 46.8838H68.2172C67.7743 46.8838 67.4153 46.5248 67.4153 46.0819V43.0076C67.4153 42.5648 67.7743 42.2057 68.2172 42.2057H72.0767C72.5196 42.2057 72.8786 42.5648 72.8786 43.0076V46.0819C72.8786 46.5248 72.5196 46.8838 72.0767 46.8838Z" fill="#DEDDFF"/>
<path d="M16.783 54.16H12.9235C12.4806 54.16 12.1216 53.8009 12.1216 53.3581V50.2838C12.1216 49.8409 12.4806 49.4819 12.9235 49.4819H16.783C17.2259 49.4819 17.5849 49.8409 17.5849 50.2838V53.3581C17.5849 53.8009 17.2259 54.16 16.783 54.16Z" fill="#DEDDFF"/>
<path d="M25.9986 54.16H22.139C21.6962 54.16 21.3372 53.8009 21.3372 53.3581V50.2838C21.3372 49.8409 21.6962 49.4819 22.139 49.4819H25.9986C26.4415 49.4819 26.8005 49.8409 26.8005 50.2838V53.3581C26.8005 53.8009 26.4415 54.16 25.9986 54.16Z" fill="#DEDDFF"/>
<path d="M53.6455 54.16H31.3547C30.9119 54.16 30.5529 53.8009 30.5529 53.3581V50.2838C30.5529 49.8409 30.9119 49.4819 31.3547 49.4819H53.6455C54.0884 49.4819 54.4474 49.8409 54.4474 50.2838V53.3581C54.4474 53.8009 54.0884 54.16 53.6455 54.16Z" fill="#DEDDFF"/>
<path d="M44.4299 54.16H40.5703C40.1274 54.16 39.7684 53.8009 39.7684 53.3581V50.2838C39.7684 49.8409 40.1274 49.4819 40.5703 49.4819H44.4299C44.8727 49.4819 45.2318 49.8409 45.2318 50.2838V53.3581C45.2318 53.8009 44.8727 54.16 44.4299 54.16Z" fill="#DEDDFF"/>
<path d="M53.6456 54.16H49.786C49.3431 54.16 48.9841 53.8009 48.9841 53.3581V50.2838C48.9841 49.8409 49.3431 49.4819 49.786 49.4819H53.6456C54.0884 49.4819 54.4475 49.8409 54.4475 50.2838V53.3581C54.4475 53.8009 54.0884 54.16 53.6456 54.16Z" fill="#DEDDFF"/>
<path d="M62.8611 54.16H59.0016C58.5587 54.16 58.1997 53.8009 58.1997 53.3581V50.2838C58.1997 49.8409 58.5587 49.4819 59.0016 49.4819H62.8611C63.304 49.4819 63.663 49.8409 63.663 50.2838V53.3581C63.663 53.8009 63.304 54.16 62.8611 54.16Z" fill="#DEDDFF"/>
<path d="M72.0767 54.16H68.2172C67.7743 54.16 67.4153 53.8009 67.4153 53.3581V50.2838C67.4153 49.8409 67.7743 49.4819 68.2172 49.4819H72.0767C72.5196 49.4819 72.8786 49.8409 72.8786 50.2838V53.3581C72.8786 53.8009 72.5196 54.16 72.0767 54.16Z" fill="#DEDDFF"/>
<path d="M71.7312 55.8477L71.7688 68.0737C71.7736 69.6312 70.9988 71.1022 69.7779 71.9513C69.1173 72.4226 68.7174 73.1864 68.7199 73.9992L68.7367 79.446C68.7395 80.3678 67.996 81.1243 67.0659 81.1271L55.1834 81.1636C54.2617 81.1664 53.5052 80.4146 53.5023 79.4928L53.487 74.5069C53.4854 73.9622 53.3161 73.4264 52.9712 72.9917C49.2193 68.277 45.729 58.6761 44.7313 55.7797C44.5537 55.2607 44.8369 54.6901 45.356 54.5376C49.7178 53.2254 52.1529 60.2821 52.1529 60.2821L52.1026 43.8913C52.0984 42.5338 53.1928 41.4327 54.5419 41.4286C55.2206 41.4265 55.8248 41.7011 56.2703 42.1439C56.7158 42.5867 56.9942 43.1976 56.9963 43.8763L57.0167 50.5298C57.0143 49.7421 57.3809 49.0455 57.9661 48.5995C58.3757 48.2715 58.8946 48.0771 59.4645 48.0754C60.1349 48.0733 60.7558 48.3479 61.1929 48.7908C61.6384 49.2335 61.9168 49.836 61.9189 50.5148L61.9294 53.942C61.927 53.1543 62.3019 52.4493 62.8787 52.0034C63.2884 51.6837 63.8073 51.4894 64.3688 51.4877C65.0391 51.4856 65.6601 51.7602 66.0972 52.203C66.5426 52.6374 66.8211 53.2566 66.8231 53.927L66.8291 55.8627C66.8266 55.0666 67.2016 54.3616 67.7868 53.9157C68.1964 53.6044 68.7154 53.4101 69.2684 53.4083C69.9472 53.4063 70.5598 53.6809 71.0053 54.1237C71.4508 54.5665 71.7292 55.1689 71.7312 55.8477Z" fill="#FFAF93"/>
<path d="M62.2125 80.8829L67.9383 80.8654C67.685 81.0248 67.3839 81.1209 67.0667 81.1219L55.1711 81.1584C54.2513 81.1612 53.5034 80.4179 53.5006 79.4981L53.4853 74.5019C53.4836 73.9626 53.3233 73.4239 52.9731 72.9967C49.2154 68.2817 45.7283 58.6806 44.736 55.7811C44.5598 55.2582 44.8436 54.6864 45.3507 54.5421C45.9688 54.3657 46.5396 54.3323 47.0793 54.4415C46.7786 54.6804 46.653 55.1091 46.7812 55.5052C47.7735 58.4047 51.2606 68.0058 55.0183 72.7208C55.3686 73.148 55.5288 73.6867 55.5305 74.2418V74.2418C55.5417 77.9057 58.5487 80.8942 62.2125 80.8829Z" fill="#EE8778"/>
<path d="M57.9661 48.5995L58.0088 62.5099C58.0096 62.7696 57.7924 62.9882 57.5326 62.989C57.2645 62.9898 57.0459 62.7726 57.0451 62.5128L57.0021 48.5019C57.002 48.4516 57.0018 48.4014 57.0101 48.3594L57.0167 50.5298C57.0143 49.7421 57.3809 49.0454 57.9661 48.5995Z" fill="#EE8778"/>
<path d="M62.8788 52.0034L62.9063 60.9613C62.9071 61.2295 62.6899 61.448 62.4302 61.4488C62.162 61.4496 61.9518 61.2324 61.951 60.9642L61.9295 53.942C61.927 53.1543 62.3019 52.4493 62.8788 52.0034Z" fill="#EE8778"/>
<path d="M67.7868 53.9157L67.8091 61.1725C67.8099 61.4239 67.5843 61.6509 67.3329 61.6517C67.0564 61.6525 66.8462 61.4269 66.8454 61.1755L66.8291 55.8627C66.8267 55.0667 67.2016 54.3616 67.7868 53.9157Z" fill="#EE8778"/>
<path d="M40.271 55.782C39.2607 58.6688 35.7805 68.2754 32.0276 72.9905C31.6748 73.4235 31.5145 73.9689 31.5145 74.5141L31.4985 79.4858C31.4985 80.416 30.7286 81.1698 29.8145 81.1698L17.9305 81.1216C17.0003 81.1216 16.2626 80.3679 16.2626 79.4537L16.2787 74.0009C16.2787 72.2525 14.9795 72.0795 14.0494 70.7773C13.5362 69.9914 13.2314 69.0613 13.2314 68.0669L13.2636 55.8461C13.2636 55.1726 13.5522 54.5631 13.9852 54.1302C14.4343 53.6811 15.0437 53.4085 15.7333 53.4085C16.2787 53.4085 16.7918 53.6009 17.2088 53.9217C17.8022 54.3546 18.1711 55.0603 18.1711 55.8622V53.9217C18.1711 53.2641 18.4598 52.6386 18.8928 52.2056C19.3418 51.7565 19.9513 51.4839 20.6248 51.4839C21.1862 51.4839 21.7154 51.6764 22.1163 51.9971C22.6937 52.4461 23.0626 53.1518 23.0626 53.9376L23.0786 45.999C23.0786 45.3254 23.3513 44.7159 23.8004 44.2669C24.2333 43.8339 24.8588 43.5613 25.5324 43.5613C26.0937 43.5613 26.6229 43.7537 27.0239 44.0745C27.5852 44.4915 27.938 45.149 27.9862 45.8868L28.0022 43.882C28.0022 43.1924 28.2749 42.583 28.7239 42.1499C29.173 41.7009 29.7824 41.4282 30.456 41.4282C31.8032 41.4282 32.8937 42.5348 32.8937 43.8981L32.8456 60.2886C32.8456 60.2886 35.2833 53.232 39.6455 54.5311C40.1588 54.6915 40.4474 55.2527 40.271 55.782Z" fill="#FFAF93"/>
<path d="M20.1136 81.1216L29.9127 81.1537C29.8806 81.1698 29.8485 81.1698 29.8165 81.1698L17.9324 81.1216C17.0023 81.1216 16.2646 80.3679 16.2646 79.4537L16.2806 74.0008C16.2806 72.2525 14.9815 72.0795 14.0513 70.7772C13.5381 69.9914 13.2334 69.0613 13.2334 68.0669L13.2655 55.8461C13.2655 55.1726 13.5542 54.5631 13.9872 54.1302C14.4362 53.6811 15.0457 53.4084 15.7353 53.4084C16.1202 53.4084 16.4891 53.5047 16.8098 53.6811C16.5693 53.7933 16.3608 53.9376 16.1683 54.1302C15.7353 54.5631 15.4466 55.1726 15.4466 55.8461L15.4145 68.0669C15.4145 69.0613 15.7192 69.9914 16.2324 70.7772C17.1666 72.0852 18.4617 72.2463 18.4617 74.0008L18.4457 79.4537C18.4457 80.3679 19.1834 81.1216 20.1136 81.1216Z" fill="#EE8778"/>
<path d="M27.9862 45.8868L27.954 56.8245C27.954 57.0811 27.7295 57.3056 27.4569 57.3056C27.2003 57.3056 26.9918 57.0811 26.9918 56.8245L27.0238 44.0745C27.5852 44.4915 27.938 45.149 27.9862 45.8868Z" fill="#EE8778"/>
<path d="M22.1171 52.0034L22.0896 60.9613C22.0888 61.2295 22.3059 61.4481 22.5657 61.4488C22.8339 61.4497 23.044 61.2324 23.0449 60.9643L23.0664 53.9421C23.0688 53.1544 22.6939 52.4493 22.1171 52.0034Z" fill="#EE8778"/>
<path d="M17.2091 53.9157L17.1868 61.1725C17.186 61.4239 17.4116 61.6509 17.663 61.6517C17.9395 61.6525 18.1497 61.4269 18.1505 61.1755L18.1668 55.8627C18.1692 55.0667 17.7943 54.3616 17.2091 53.9157Z" fill="#EE8778"/>
</svg>
