<svg width="90" height="90" viewBox="0 0 90 90" fill="none" xmlns="http://www.w3.org/2000/svg">
<g clip-path="url(#clip0_80_3829)">
<path d="M80.0116 68.5218L69.5744 64.1449C68.2868 63.6049 66.8273 64.3785 66.5513 65.7471L65.0406 73.2396C64.9208 73.8345 64.1735 74.0377 63.7687 73.5855L56.6033 65.5798C55.4307 64.2697 53.2721 64.7858 52.8187 66.4845L47.0426 88.1344C46.8583 88.8253 45.8974 88.8755 45.6419 88.2079L40.2757 74.1825C39.6357 72.5096 37.3764 72.2519 36.376 73.7376L30.7366 82.112C30.3963 82.6174 29.6248 82.5152 29.4277 81.9388L25.5978 70.7388C25.2478 69.715 24.2084 69.095 23.1414 69.2729L9.77483 71.5031C9.20407 71.5983 8.75108 71.0288 8.97239 70.4941L14.6287 56.8248C17.7701 49.2332 17.8757 40.7248 14.924 33.0574L10.8371 22.4413C10.6038 21.8354 11.2113 21.2455 11.81 21.4966L22.2033 25.8551C23.4909 26.3951 24.9504 25.6215 25.2264 24.2529L26.737 16.7604C26.8569 16.1655 27.6041 15.9623 28.009 16.4145L35.1743 24.4202C36.347 25.7303 38.5056 25.2142 38.9589 23.5155L44.7351 1.86557C44.9193 1.17475 45.8803 1.12447 46.1357 1.79209L51.502 15.8175C52.142 17.4904 54.4013 17.7481 55.4017 16.2624L61.0411 7.88801C61.3814 7.38264 62.1529 7.48477 62.35 8.06133L65.8079 18.1737C66.2922 19.5901 68.0143 20.1261 69.217 19.2349L79.9077 11.3131C80.4637 10.9011 81.2297 11.4131 81.0617 12.0844L76.0224 32.2075C73.9343 40.5461 74.3806 49.3179 77.3044 57.4014L80.9902 67.5914C81.2083 68.1952 80.6038 68.7702 80.0116 68.5218Z" fill="#FD8087"/>
<path d="M77.304 57.4014C74.3802 49.3179 73.9338 40.5461 76.022 32.2075L78.2193 23.4336C76.8818 23.6672 75.6397 24.2054 74.578 24.9894C73.2059 23.2291 71.1722 22.0087 68.8637 21.707L67.7992 21.5736C67.4422 21.5286 67.079 21.5061 66.7197 21.5061C64.772 21.5061 62.9355 22.1534 61.4565 23.2845C59.8642 21.2975 57.4186 20.0324 54.6936 20.0324C54.5312 20.0324 54.3665 20.0371 54.2048 20.0463C49.9307 20.2862 46.5479 23.6018 46.0818 27.7196C44.8112 27.3676 43.4951 27.1835 42.1603 27.1835C39.8777 27.1835 37.6497 27.7188 35.6124 28.72C34.178 27.2478 32.2203 26.2754 30.0134 26.122C29.8132 26.1081 29.61 26.101 29.4096 26.101C26.7778 26.101 24.3942 27.296 22.7965 29.1839C21.2933 27.9749 19.3946 27.2804 17.3675 27.2804C17.0622 27.2804 16.753 27.2967 16.4577 27.3282L15.3849 27.4477C14.551 27.5407 13.7517 27.7546 13.0038 28.0693L14.9238 33.0574C17.8755 40.7248 17.7699 49.233 14.6285 56.8248L9.55212 69.0927C10.1085 69.2067 10.6806 69.2668 11.2618 69.2668C11.5673 69.2666 11.8765 69.2502 12.1808 69.2179L13.2084 69.1086C16.1562 68.795 18.684 66.9932 19.996 64.4532C21.6109 66.4325 24.0458 67.6239 26.7013 67.6239C27.0067 67.6239 27.3157 67.6076 27.6203 67.5752L28.658 67.4647C32.0379 67.105 34.8066 64.8373 35.9017 61.7667C37.8598 62.6785 39.9851 63.1643 42.1601 63.1643C45.4363 63.1643 48.6002 62.062 51.249 60.06C52.3252 60.7769 53.5721 61.2622 54.9236 61.4387L55.9489 61.5726C56.3203 61.6212 56.6982 61.6458 57.0721 61.6458C59.6466 61.6458 62.0274 60.5144 63.6444 58.6297C64.8976 61.2009 67.3866 63.0663 70.3197 63.4495L71.3542 63.5843C71.7261 63.6328 72.1044 63.6574 72.4788 63.6574C74.86 63.6574 77.0528 62.7006 78.6396 61.0943L77.304 57.4014Z" fill="#FE646F"/>
<path d="M28.0567 61.8142L27.0184 61.9247C25.695 62.0655 24.4383 61.3128 23.9378 60.0796L17.8667 45.1167L15.2349 60.9796C15.0154 62.3023 13.9405 63.3162 12.6072 63.4583L11.5792 63.5676C10.152 63.7195 8.81907 62.8339 8.40598 61.4594L1.4454 38.2982C0.971141 36.72 1.86587 35.056 3.44421 34.5818C5.02202 34.1088 6.68614 35.0024 7.1604 36.5806L11.0736 49.6014L13.4012 35.572C13.6198 34.2547 14.687 33.2429 16.0141 33.0949L17.0354 32.9811C17.0404 32.9806 17.0455 32.9801 17.0504 32.9795C18.3731 32.8387 19.6301 33.5911 20.1308 34.8247L25.4995 48.0561L26.4364 34.5607C26.5507 32.9168 27.9754 31.6763 29.6196 31.7907C31.2635 31.905 32.5037 33.3301 32.3896 34.974L30.7179 59.0539C30.6174 60.4974 29.4957 61.6611 28.0567 61.8142Z" fill="#99E6FC"/>
<path d="M72.0904 57.9498L71.0549 57.8146C69.7351 57.6424 68.689 56.6167 68.4908 55.3006L66.0845 39.3333L59.8186 54.1418C59.296 55.3767 58.014 56.1113 56.6844 55.9378L55.6594 55.8039C54.2363 55.6181 53.1472 54.4454 53.0668 53.0124L51.7116 28.8659C51.6191 27.2206 52.8781 25.8119 54.5234 25.7196C56.168 25.627 57.5772 26.8861 57.6695 28.5314L58.4315 42.1065L63.9732 29.0093C64.4935 27.7798 65.7674 27.0453 67.0923 27.2115L68.1118 27.3392C68.1169 27.34 68.122 27.3407 68.1271 27.3412C69.446 27.5134 70.4926 28.5384 70.691 29.8552L72.8189 43.9748L76.8836 31.072C77.3788 29.5003 79.0543 28.6274 80.626 29.1225C82.1977 29.6177 83.0704 31.2933 82.5754 32.8649L75.3227 55.8874C74.8878 57.2679 73.5253 58.1372 72.0904 57.9498Z" fill="#99E6FC"/>
<path d="M42.16 57.4819C39.2851 57.4819 36.5134 56.0783 34.5556 53.631C32.725 51.3427 31.717 48.3393 31.717 45.1738C31.717 42.0084 32.7251 39.005 34.5556 36.7167C36.5134 34.2694 39.2851 32.8658 42.16 32.8658C45.0349 32.8658 47.8067 34.2694 49.7645 36.7167C51.5951 39.005 52.603 42.0084 52.603 45.1738C52.603 48.3393 51.5949 51.3427 49.7645 53.631C47.8068 56.0783 45.0351 57.4819 42.16 57.4819ZM42.16 38.8334C39.7341 38.8334 37.6845 41.737 37.6845 45.1738C37.6845 48.6107 39.7341 51.5143 42.16 51.5143C44.586 51.5143 46.6356 48.6107 46.6356 45.1738C46.6356 41.737 44.5862 38.8334 42.16 38.8334Z" fill="#99E6FC"/>
<path d="M85.6978 47.2925C84.05 47.2925 82.7141 45.9568 82.7141 44.3088V22.4743C82.7141 20.8264 84.05 19.4906 85.6978 19.4906C87.3456 19.4906 88.6815 20.8264 88.6815 22.4743V44.3088C88.6815 45.9568 87.3456 47.2925 85.6978 47.2925Z" fill="#99E6FC"/>
<path d="M85.6978 58.909C87.3457 58.909 88.6815 57.5732 88.6815 55.9253C88.6815 54.2775 87.3457 52.9416 85.6978 52.9416C84.05 52.9416 82.7141 54.2775 82.7141 55.9253C82.7141 57.5732 84.05 58.909 85.6978 58.909Z" fill="#62DBFB"/>
<path d="M29.6195 31.7906C27.9752 31.6761 26.5505 32.9166 26.4363 34.5605L25.4994 48.0558L23.2638 42.5461C22.9563 45.3888 22.2936 48.3281 21.2467 51.2634C21.1103 51.6461 20.9677 52.0239 20.8213 52.3983L23.9379 60.0792C24.4383 61.3125 25.695 62.0652 27.0185 61.9244L28.0568 61.814C29.4957 61.6609 30.6174 60.4972 30.7176 59.0535L32.3893 34.9736C32.5035 33.33 31.2634 31.9048 29.6195 31.7906Z" fill="#62DBFB"/>
<path d="M49.7647 36.7167C49.2855 36.1178 48.7569 35.5823 48.1907 35.1137C47.8471 37.6395 47.2236 40.2316 46.3025 42.8208C46.5163 43.5526 46.6358 44.3475 46.6358 45.1738C46.6358 48.6107 44.5862 51.5143 42.1602 51.5143C42.0795 51.5143 41.9992 51.5106 41.9194 51.5043C40.6759 53.3266 39.3073 54.9636 37.8522 56.3864C39.1936 57.0976 40.6622 57.4817 42.16 57.4817C45.0349 57.4817 47.8067 56.0781 49.7645 53.6309C51.5951 51.3425 52.603 48.3391 52.603 45.1737C52.603 42.0082 51.5951 39.005 49.7647 36.7167Z" fill="#62DBFB"/>
<path d="M80.626 29.1229C79.0542 28.6277 77.3788 29.5005 76.8836 31.0723L72.8189 43.9752L71.812 37.2939C71.5408 38.3038 71.2265 39.3172 70.8652 40.3302C69.916 42.9915 68.7203 45.4556 67.342 47.6782L68.4908 55.3008C68.6891 56.6168 69.7351 57.6424 71.0549 57.8148L72.0904 57.95C73.5253 58.1373 74.888 57.2681 75.3227 55.8879L82.5754 32.8655C83.0704 31.2934 82.1978 29.6181 80.626 29.1229Z" fill="#62DBFB"/>
<path d="M87.7095 33.5034C86.4365 37.073 84.7203 40.2877 82.7141 43.0397V44.3088C82.7141 45.9568 84.05 47.2925 85.6978 47.2925C87.3456 47.2925 88.6815 45.9568 88.6815 44.3088V30.3741C88.4049 31.4147 88.0818 32.4592 87.7095 33.5034Z" fill="#62DBFB"/>
<path d="M34.3615 11.5319C33.7756 11.5319 33.2409 11.1385 33.0866 10.5451L30.7782 1.66674C30.595 0.961853 31.0178 0.242205 31.7225 0.0590405C32.4267 -0.123948 33.147 0.298279 33.3302 1.00316L35.6385 9.88152C35.8217 10.5864 35.399 11.3061 34.6942 11.4892C34.583 11.518 34.4714 11.5319 34.3615 11.5319Z" fill="#99E6FC"/>
<path d="M28.8588 11.8868C28.4659 11.8868 28.0771 11.7121 27.8173 11.3778L24.0884 6.58351C23.6414 6.00871 23.745 5.1806 24.3196 4.73359C24.8944 4.2864 25.7225 4.38994 26.1695 4.96474L29.8984 9.759C30.3454 10.3338 30.2418 11.1619 29.6672 11.6089C29.4267 11.7961 29.1416 11.8868 28.8588 11.8868Z" fill="#99E6FC"/>
<path d="M73.2322 8.67444C72.961 8.67444 72.6875 8.59095 72.4523 8.41798C71.8657 7.98679 71.7398 7.16167 72.171 6.57491L76.6102 0.53753C77.0416 -0.0490518 77.8668 -0.175087 78.4533 0.256456C79.0398 0.687647 79.1657 1.51276 78.7345 2.09952L74.2953 8.1369C74.0369 8.48812 73.6372 8.67444 73.2322 8.67444Z" fill="#99E6FC"/>
<path d="M62.2247 85.2061C61.7246 85.2061 61.2465 84.9201 61.025 84.4355L58.1839 78.2207C57.8812 77.5584 58.1726 76.7763 58.8348 76.4736C59.4968 76.1708 60.2792 76.4622 60.5819 77.1246L63.423 83.3393C63.7257 84.0016 63.4343 84.7837 62.7721 85.0864C62.5946 85.1676 62.4081 85.2061 62.2247 85.2061Z" fill="#99E6FC"/>
<path d="M75.5428 79.1685C75.1167 79.1685 74.6987 78.9623 74.4447 78.5812L71.6036 74.3196C71.1996 73.7138 71.3633 72.8952 71.9692 72.4915C72.5749 72.0875 73.3936 72.2514 73.7973 72.8571L76.6385 77.1187C77.0424 77.7245 76.8788 78.5431 76.2729 78.9469C76.0482 79.0968 75.7942 79.1685 75.5428 79.1685Z" fill="#99E6FC"/>
<path d="M15.3467 82.8972C14.9769 82.8972 14.6092 82.7423 14.3483 82.4405C13.8725 81.8894 13.9333 81.0569 14.4844 80.5811L18.3909 77.2073C18.9422 76.7311 19.7745 76.7927 20.2505 77.3432C20.7264 77.8943 20.6655 78.7268 20.1145 79.2026L16.2079 82.5764C15.9588 82.7917 15.6519 82.8972 15.3467 82.8972Z" fill="#99E6FC"/>
<path d="M19.2515 90C18.9947 90 18.7351 89.9249 18.5071 89.7688C17.9066 89.357 17.7537 88.5364 18.1654 87.936L22.427 81.7212C22.8387 81.1208 23.6594 80.968 24.2599 81.3795C24.8603 81.7914 25.0133 82.6119 24.6016 83.2124L20.3399 89.4271C20.0844 89.7996 19.6714 90 19.2515 90Z" fill="#99E6FC"/>
</g>
<defs>
<clipPath id="clip0_80_3829">
<rect width="90" height="90" fill="white"/>
</clipPath>
</defs>
</svg>
