<svg width="80" height="80" viewBox="0 0 80 80" fill="none" xmlns="http://www.w3.org/2000/svg">
<g clip-path="url(#clip0_112_713)">
<path d="M0 48.884H2.76043L6.48696 40.4997L0 39.223V48.884Z" fill="#C3C9D1"/>
<path d="M76.5266 49.3837L76.0502 49.2648C75.0635 49.0176 74.1845 48.4535 73.548 47.6585L66.7991 39.223C64.7026 36.6047 61.5313 35.0813 58.1777 35.0824H0V39.223L6.48696 40.4997L28.0559 44.7433L38.0095 55.8041C39.5799 57.5487 41.8174 58.545 44.1647 58.545H75.3989C77.9676 58.5465 80.0498 56.4664 80.0514 53.8983C80.053 51.7633 78.5993 49.8997 76.5266 49.3837Z" fill="#DD381A"/>
<path d="M38.6445 15.7604H41.4044V29.5621H38.6445V15.7604Z" fill="#A4B0BF"/>
<path d="M52.4455 35.0824H27.6033L30.9389 29.5219C31.437 28.691 32.3355 28.1818 33.3058 28.1818H46.743C47.7133 28.1818 48.6118 28.691 49.1099 29.5219L52.4455 35.0824Z" fill="#C43117"/>
<path d="M8.28076 35.0824H0V24.0412H4.14064L8.28076 35.0824Z" fill="#D0D7DF"/>
<path d="M51.0652 40.6032L56.586 48.884H48.3053L42.7844 40.6032H51.0652Z" fill="#4394CC"/>
<path d="M44.1648 58.545H46.9252V65.446H44.1648V58.545Z" fill="#B7BDC4"/>
<path d="M67.6274 58.545H70.3879V65.446H67.6274V58.545Z" fill="#B7BDC4"/>
<path d="M72.8224 66.8263H41.7303C39.3138 66.8315 37.1042 65.4666 36.0288 63.3026L38.4992 62.0687C39.1067 63.2968 40.3596 64.0711 41.7303 64.0653H72.8224C74.1931 64.0711 75.446 63.2968 76.0534 62.0687L78.5239 63.3026C77.4484 65.4666 75.2389 66.8331 72.8224 66.8263Z" fill="#B7BDC4"/>
<path d="M62.9695 48.7113L74.9615 48.8233C74.4174 48.5333 73.9373 48.1376 73.548 47.6585L67.9035 40.6032H57.9663L62.9695 48.7113Z" fill="#4394CC"/>
<path d="M44.1648 58.545H46.9252V61.3054H44.1648V58.545Z" fill="#A4B0BF"/>
<path d="M67.6274 58.545H70.3879V61.3054H67.6274V58.545Z" fill="#A4B0BF"/>
<path d="M35.0473 18.5209H2.76043C1.23548 18.5209 0 17.2854 0 15.7604C0 14.2355 1.23548 13 2.76043 13H35.0473C35.5929 13 36.1254 13.1616 36.5796 13.4638L40.0241 15.7604L36.5738 18.0571C36.1212 18.3592 35.5914 18.5193 35.0473 18.5209Z" fill="#B7BDC4"/>
<path d="M45.001 13H77.2884C78.8133 13 80.0488 14.2355 80.0488 15.7604C80.0488 17.2854 78.8133 18.5209 77.2884 18.5209H45.001C44.4559 18.5209 43.9234 18.3592 43.4692 18.0571L40.0242 15.7604L43.475 13.4638C43.9276 13.1632 44.4574 13.0016 45.001 13Z" fill="#B7BDC4"/>
<path d="M69.7332 48.7752L59.4331 42.9812L62.9695 48.7113L69.7332 48.7752Z" fill="#3E89BD"/>
<path d="M53.6726 48.884L45.0854 44.0535L48.3054 48.884H53.6726Z" fill="#3E89BD"/>
</g>
<defs>
<clipPath id="clip0_112_713">
<rect width="80" height="80" fill="white"/>
</clipPath>
</defs>
</svg>
