<svg width="90" height="90" viewBox="0 0 90 90" fill="none" xmlns="http://www.w3.org/2000/svg">
<path d="M51.222 57.9024L49.5422 61.4265C49.8727 62.1535 53.4615 67.9473 53.9283 69.698C54.5168 71.9044 52.3681 77.3185 52.3681 77.3185C52.3681 77.3185 50.3396 78.5841 51.4625 79.4947H54.4571C54.6807 79.4947 58.7975 74.1797 59.8585 70.7323C60.3332 68.8682 60.6923 66.9764 60.9336 65.0679C61.0643 64.2242 61.3189 62.6773 61.5727 61.1628C61.7743 59.9561 61.5662 58.7166 60.9816 57.6418C60.397 56.5671 59.4694 55.719 58.3468 55.2326C57.0446 54.6684 55.5744 54.6314 54.2455 55.1293C52.9166 55.6273 51.8327 56.6214 51.222 57.9024Z" fill="#413454"/>
<path d="M15.8112 58.088C15.8112 58.088 15.6066 73.5167 13.4122 76.7117C11.1741 78.0962 12.0425 79.4947 12.0425 79.4947H15.9744C15.9744 79.4947 20.9708 73.2326 21.9348 66.444C22.0754 65.4596 22.5064 62.5022 22.5064 62.5022C22.627 61.6697 22.5081 60.8201 22.1636 60.0526C21.819 59.2852 21.2631 58.6318 20.5608 58.1687C19.8585 57.7057 19.0388 57.4522 18.1977 57.4379C17.3567 57.4236 16.5289 57.6491 15.8112 58.088Z" fill="#413454"/>
<path d="M56.1622 60.6741C49.4909 60.9195 38.3133 64.0217 30.9523 63.3249C30.8409 63.3156 30.7288 63.3332 30.6256 63.3762C30.5224 63.4192 30.431 63.4863 30.3591 63.5719C30.2871 63.6575 30.2368 63.7591 30.2123 63.8682C30.1878 63.9773 30.1898 64.0907 30.2182 64.1989C31.8797 71.0297 31.3432 77.9183 29.5735 79.4672L25.179 79.4954C24.7922 78.3774 26.6977 77.3157 26.6977 77.3157C24.4125 64.3571 18.8086 66.6774 15.4547 57.136C14.5829 54.668 10.5118 49.9219 6.35629 48.9797C1.52582 47.8758 1.50473 45.0352 1.68051 44.1282C1.94067 42.8274 3.77582 42.1172 3.83911 40.8797C4.04301 36.7172 8.22661 34.8891 8.22661 34.8891C8.22661 34.8891 8.69067 31.8024 9.47817 30.6071C9.59877 30.4251 9.75684 30.271 9.94179 30.1551C10.1267 30.0391 10.3343 29.964 10.5507 29.9347C10.767 29.9054 10.9871 29.9226 11.1962 29.9852C11.4053 30.0478 11.5987 30.1544 11.7633 30.2977C15.5883 33.961 15.3 37.0758 19.9336 39.5719C32.0696 46.0547 52.1016 37.6876 64.5469 40.718C68.4704 41.5407 77.6743 34.4251 77.85 27.5907C77.9766 22.4719 76.7321 17.7399 78.8485 14.386C82.4133 8.74694 88.3688 9.0774 88.3688 13.1977C88.3688 16.1579 84.0516 16.411 83.004 18.6188C81.4993 21.811 83.1375 26.311 82.5118 30.8954C81.5274 38.1024 74.2641 44.2055 70.7204 46.3852C70.3855 46.5955 70.1243 46.9047 69.9731 47.2701C69.8219 47.6355 69.7882 48.0389 69.8766 48.4243C70.5057 51.7625 70.5698 55.1827 70.0665 58.5422C69.1243 62.529 70.7836 65.6368 70.9946 67.9641C71.3532 71.8102 67.3594 79.4954 66.5157 79.4954H63.5204C62.318 78.4618 64.2164 77.3157 64.2164 77.3157L65.2641 71.8735C65.4201 71.0624 65.3571 70.2244 65.0815 69.4458C64.8059 68.6672 64.3277 67.9761 63.6961 67.4438C61.7977 65.8505 59.045 63.5766 57.3511 61.2324C57.2143 61.0486 57.0341 60.9015 56.8267 60.8041C56.6193 60.7067 56.391 60.662 56.1622 60.6741Z" fill="#4F4066"/>
<path d="M5.91763 40.6112L6.60951 39.8947C6.70951 39.7911 6.83402 39.7144 6.97152 39.6716C7.10902 39.6289 7.25507 39.6215 7.39618 39.6502C7.53728 39.6789 7.66888 39.7427 7.77881 39.8356C7.88873 39.9286 7.97344 40.0479 8.02508 40.1823C8.07673 40.3167 8.09366 40.4619 8.0743 40.6046C8.05494 40.7473 7.99992 40.8828 7.91433 40.9986C7.82873 41.1143 7.71532 41.2067 7.58459 41.267C7.45386 41.3274 7.31003 41.3538 7.16638 41.3438L6.17427 41.2735C6.12264 41.2699 6.07223 41.256 6.02597 41.2328C5.9797 41.2096 5.93848 41.1775 5.90469 41.1382C5.8709 41.099 5.8452 41.0535 5.82908 41.0043C5.81296 40.9551 5.80673 40.9032 5.81076 40.8516C5.81712 40.7614 5.85494 40.6763 5.91763 40.6112Z" fill="#4C2235"/>
<path d="M5.91763 40.6112L6.60951 39.8947C6.70951 39.7911 6.83402 39.7144 6.97152 39.6716C7.10902 39.6289 7.25507 39.6215 7.39618 39.6502C7.53728 39.6789 7.66888 39.7427 7.77881 39.8356C7.88873 39.9286 7.97344 40.0479 8.02508 40.1823C8.07673 40.3167 8.09366 40.4619 8.0743 40.6046C8.05494 40.7473 7.99992 40.8828 7.91433 40.9986C7.82873 41.1143 7.71532 41.2067 7.58459 41.267C7.45386 41.3274 7.31003 41.3538 7.16638 41.3438L6.17427 41.2735C6.12264 41.2699 6.07223 41.256 6.02597 41.2328C5.9797 41.2096 5.93848 41.1775 5.90469 41.1382C5.8709 41.099 5.8452 41.0535 5.82908 41.0043C5.81296 40.9551 5.80673 40.9032 5.81076 40.8516C5.81712 40.7614 5.85494 40.6763 5.91763 40.6112Z" fill="#4C2235"/>
<path d="M5.91763 40.6112L6.60951 39.8947C6.70951 39.7911 6.83402 39.7144 6.97152 39.6716C7.10902 39.6289 7.25507 39.6215 7.39618 39.6502C7.53728 39.6789 7.66888 39.7427 7.77881 39.8356C7.88873 39.9286 7.97344 40.0479 8.02508 40.1823C8.07673 40.3167 8.09366 40.4619 8.0743 40.6046C8.05494 40.7473 7.99992 40.8828 7.91433 40.9986C7.82873 41.1143 7.71532 41.2067 7.58459 41.267C7.45386 41.3274 7.31003 41.3538 7.16638 41.3438L6.17427 41.2735C6.12264 41.2699 6.07223 41.256 6.02597 41.2328C5.9797 41.2096 5.93848 41.1775 5.90469 41.1382C5.8709 41.099 5.8452 41.0535 5.82908 41.0043C5.81296 40.9551 5.80673 40.9032 5.81076 40.8516C5.81712 40.7614 5.85494 40.6763 5.91763 40.6112Z" fill="#D8396E"/>
</svg>
