<svg width="90" height="90" viewBox="0 0 90 90" fill="none" xmlns="http://www.w3.org/2000/svg">
<path d="M68.3342 45.8674C68.6356 45.5509 68.9604 45.2494 69.3016 44.959L71.0251 50.6059C68.5985 52.1378 66.9849 54.8405 66.9849 57.9221C66.9849 62.6985 70.8569 66.5698 75.6332 66.5698C80.4088 66.5698 84.2808 62.6985 84.2808 57.9221C84.2808 53.7061 81.081 50.0161 77.0875 49.2519L84.6173 46.6776C87.7944 49.313 89.9999 53.472 89.9999 57.9228C89.9999 65.857 83.5674 72.2895 75.6332 72.2895C69.1877 72.2895 63.3711 67.8634 61.5508 62.0173C61.9607 56.8201 64.7416 49.6398 68.3342 45.8674Z" fill="#576574"/>
<path d="M71.3753 69.7558C66.9821 66.817 65.0946 61.2757 66.6663 56.2289C67.5342 53.4418 68.81 50.6217 70.3309 48.3311L69.3016 44.959C68.9604 45.2494 68.6363 45.5509 68.3348 45.8674C64.7416 49.6398 61.9607 56.8201 61.5508 62.0173C63.3711 67.8641 69.1877 72.2895 75.6332 72.2895C76.3034 72.2895 76.9625 72.2401 77.6087 72.1508C75.3537 71.8363 73.2238 70.9918 71.3753 69.7558Z" fill="#3E4B5A"/>
<path d="M75.053 41.8196C75.3132 41.8073 75.5749 41.7983 75.8385 41.7983C79.5045 41.7983 82.9989 43.1668 85.6953 45.2419C86.2 45.6298 86.0689 46.4243 85.4667 46.6303L75.8873 49.9049L73.4092 42.5358L75.053 41.8196Z" fill="#FECA57"/>
<path d="M79.0088 42.1389C77.9774 41.9192 76.9159 41.7983 75.8385 41.7983C75.5749 41.7983 75.3132 41.8073 75.053 41.8196L73.4092 42.5358L75.8873 49.9049L81.0289 48.1471L79.0088 42.1389Z" fill="#F4B537"/>
<path d="M18.5689 31.9937L24.3463 36.7426C25.6434 37.8089 27.3511 38.2353 28.9977 37.9044L32.1075 42.4953L26.6541 42.8393C24.9643 42.9464 23.2978 42.406 21.9925 41.3294L12.97 33.8861L18.5689 31.9937Z" fill="#576574"/>
<path d="M27.8235 41.3294L19.9957 34.8715C19.4746 34.4416 19.6284 33.6067 20.2683 33.3904L18.5689 31.9937L12.97 33.8861L21.9925 41.3294C23.2978 42.406 24.965 42.9464 26.6541 42.8393L30.2851 42.61C29.3918 42.3628 28.5513 41.9295 27.8235 41.3294Z" fill="#3E4B5A"/>
<path d="M60.2366 30.6012C58.2583 31.3833 50.9359 35.4455 46.8937 37.5061C45.1283 38.4063 43.7104 39.8627 42.8582 41.6514L41.956 43.5465L31.5217 31.4527C39.0069 21.2573 44.1237 23.7842 50.9119 25.323C55.7514 26.4195 61.2658 30.2057 61.2658 30.2057C60.9253 30.2181 60.5806 30.4653 60.2366 30.6012Z" fill="#FECA57"/>
<path d="M41.6353 29.2355C43.8106 26.7217 45.7957 25.29 47.7053 24.5505C42.3906 23.2981 37.7853 22.9211 31.5217 31.4527L41.956 43.5465L42.8582 41.6514C43.5119 40.2802 44.4986 39.1053 45.7188 38.225L41.6367 33.4941C40.582 32.2711 40.5786 30.4563 41.6353 29.2355Z" fill="#F4B537"/>
<path d="M14.3667 43.5555C19.371 43.5555 23.7751 46.1153 26.348 49.9948L21.1013 52.4997C19.5158 50.5338 17.0892 49.2745 14.3667 49.2745C9.59106 49.2745 5.71907 53.1465 5.71907 57.9221C5.71907 62.6985 9.59106 66.5698 14.3667 66.5698C18.7928 66.5698 22.4403 63.2437 22.9511 58.9556L28.7141 58.6761C28.3221 66.2601 22.0489 72.2895 14.3667 72.2895C6.4325 72.2895 0 65.857 0 57.9228C0 49.988 6.4325 43.5555 14.3667 43.5555Z" fill="#576574"/>
<path d="M4.98024 57.9228C4.98024 50.8353 10.1136 44.9507 16.864 43.7738C16.0531 43.6317 15.2188 43.5555 14.3667 43.5555C6.4325 43.5555 0 49.988 0 57.9228C0 65.857 6.4325 72.2895 14.3667 72.2895C15.2168 72.2895 16.0483 72.2119 16.8578 72.0698C10.1102 70.8908 4.98024 65.0076 4.98024 57.9228Z" fill="#3E4B5A"/>
<path d="M2.9278 22.9348H5.88999C7.18431 22.9348 8.43195 23.4251 9.38021 24.3074L12.97 27.6459L18.8017 32.4387L13.2961 34.1841C11.3832 34.6572 9.04238 33.8415 7.78719 32.3226L1.87654 25.1678C1.14183 24.2779 1.77423 22.9348 2.9278 22.9348Z" fill="#FF6B6B"/>
<path d="M13.5138 32.3226L7.60317 25.1678C7.10123 24.5601 7.23856 23.7409 7.74324 23.2823C7.15753 23.055 6.52925 22.9348 5.8893 22.9348H2.9278C1.77423 22.9348 1.14183 24.2779 1.87654 25.1678L7.78719 32.3226C9.04238 33.8422 11.3832 34.6572 13.2961 34.1841L15.1192 33.606C14.4985 33.275 13.9423 32.841 13.5138 32.3226Z" fill="#EE5253"/>
<path d="M37.7689 57.1847C37.2807 56.1788 37.0335 55.098 37.0335 53.9726C37.0335 52.8197 37.2938 51.7142 37.8074 50.6863L37.8548 50.5915L34.7237 45.9697L13.0367 56.1492L13.036 56.1499C11.2898 56.9828 11.9188 59.6697 13.8998 59.577L31.3598 58.7461L31.2286 58.4955C31.1119 58.2723 31.1215 58.0094 31.254 57.7903C31.3873 57.5706 31.6118 57.4449 31.87 57.4449H37.8953L37.7689 57.1847Z" fill="#E4EAF8"/>
<path d="M22.2631 56.1499L22.2638 56.1492L36.9498 49.256L34.7237 45.9697L13.0367 56.1492L13.036 56.1499C11.2898 56.9828 11.9188 59.6697 13.8998 59.577L21.9088 59.1959C20.9798 58.4399 20.9544 56.7741 22.2631 56.1499Z" fill="#C7D2E5"/>
<path d="M35.8581 36.253L41.9555 43.0034L39.6573 47.8278C38.6562 48.5426 37.8377 49.4956 37.2836 50.6053L28.7341 37.9854L35.8581 36.253Z" fill="#C7D2E5"/>
<path d="M36.1526 41.0993C35.3445 39.9059 35.9748 38.2731 37.3749 37.9325L35.8581 36.253L28.7341 37.9854L37.2836 50.6053C37.8377 49.4956 38.6562 48.5426 39.6573 47.8278L40.0919 46.9145L36.1526 41.0993Z" fill="#AABCD6"/>
<path d="M65.9756 32.7435C65.782 32.8232 65.5876 32.9049 65.394 32.9859L63.8985 28.4822L59.9427 25.8895C58.8105 25.1472 58.5056 23.6448 59.2602 22.5331C60.0155 21.4215 61.5447 21.1214 62.6763 21.8637L67.3427 24.922C67.8028 25.2234 68.1461 25.6677 68.3171 26.1847L69.6855 30.3046C68.8245 31.2281 67.6229 32.0651 65.9756 32.7435Z" fill="#576574"/>
<path d="M73.3892 42.1671L78.2534 57.0817C78.6798 58.3884 77.9657 59.7933 76.659 60.2197C76.4029 60.3034 76.1434 60.3426 75.8873 60.3426C74.8394 60.3426 73.8644 59.6758 73.5218 58.6253L69.0435 44.8937C70.2986 43.8253 71.7942 42.9244 73.3892 42.1671Z" fill="#576574"/>
<path d="M67.6113 28.4822L63.6548 25.8895C62.5232 25.1479 62.2177 23.6455 62.973 22.5338C63.0492 22.4212 63.135 22.3196 63.2264 22.2241L62.6764 21.8637C61.5448 21.1221 60.0156 21.4221 59.2603 22.5338C58.505 23.6455 58.8105 25.1479 59.9421 25.8895L63.8986 28.4822L65.3934 32.9859C65.5877 32.9049 65.7821 32.8232 65.9757 32.7436C66.9974 32.3226 67.8475 31.8406 68.5513 31.3153L67.6113 28.4822Z" fill="#3E4B5A"/>
<path d="M77.2345 58.6253L73.2038 46.2684C72.9271 45.419 73.2292 44.4811 73.9619 43.9695L73.9743 43.9606L73.3892 42.1671C71.7942 42.9244 70.2986 43.8253 69.0435 44.8937L73.5218 58.6253C73.8644 59.6758 74.8394 60.3426 75.8873 60.3426C76.1427 60.3426 76.4029 60.3034 76.659 60.2197C77.093 60.0782 77.4597 59.8269 77.7426 59.509C77.5208 59.2604 77.3443 58.9631 77.2345 58.6253Z" fill="#3E4B5A"/>
<path d="M46.5148 46.9599C45.7917 46.7298 45.0213 46.6042 44.2214 46.6042C42.5865 46.6042 40.8932 46.9441 39.6572 47.8278L42.8584 41.1083C43.7105 39.3196 45.1284 37.8632 46.8938 36.963C50.9361 34.9024 58.2585 31.2027 60.2367 30.4206C63.0114 29.3234 66.0313 32.9241 66.0313 32.9241C61.0428 35.0143 55.6966 37.778 51.9008 39.7693C49.0038 41.2882 47.1684 43.8322 46.5148 46.9599Z" fill="#E4EAF8"/>
<path d="M45.1566 42.8894C46.0087 41.1007 47.4266 39.6443 49.192 38.7441C53.2343 36.6835 60.5567 32.9839 62.5349 32.2018C63.6225 31.7713 64.7479 32.0645 65.7147 32.5794C64.8702 31.7053 62.4738 29.5355 60.236 30.4206C58.2585 31.2027 50.9354 34.9024 46.8931 36.963C45.1284 37.8632 43.7105 39.3195 42.8584 41.1083L39.6572 47.8278C40.6796 47.0972 42.0152 46.7388 43.3713 46.6364L45.1566 42.8894Z" fill="#C7D2E5"/>
<path d="M46.7104 49.6529C46.4529 49.5396 46.286 49.2821 46.286 48.9964C46.286 48.2645 46.3616 47.5311 46.5113 46.8163L46.5442 46.6564L46.389 46.6069C45.6296 46.3645 44.8393 46.2423 44.04 46.2423C39.7766 46.2423 36.3091 49.7099 36.3091 53.9733C36.3091 55.1536 36.5686 56.2872 37.0809 57.3426L37.1303 57.4449H39.8535C40.076 57.4449 40.2854 57.5493 40.4262 57.7306C41.4328 59.0222 42.9716 59.7679 44.5983 59.7679C44.7157 59.7679 44.8331 59.7637 44.9512 59.7562C47.5234 59.5852 49.6293 57.5218 49.8504 54.9565C50.0454 52.6933 48.7834 50.562 46.7104 49.6529Z" fill="#576574"/>
<path d="M46.216 57.7299C46.0746 57.5486 45.8658 57.4449 45.6427 57.4449H44.5578C42.8611 57.4449 42.368 55.9831 42.2506 55.4949C42.1511 54.9984 42.0982 54.4903 42.0982 53.9726C42.0982 50.9108 43.8883 48.2583 46.4762 47.0079C46.4886 46.9441 46.4982 46.8795 46.5113 46.8157L46.5442 46.6564L46.389 46.6062C45.6296 46.3645 44.8393 46.2416 44.04 46.2416C39.7766 46.2416 36.3091 49.7099 36.3091 53.9726C36.3091 55.1536 36.5686 56.2872 37.0809 57.3426L37.1303 57.4449H39.8535C40.076 57.4449 40.2854 57.5486 40.4262 57.7299C41.4328 59.0222 42.9716 59.7679 44.5983 59.7679C44.7157 59.7679 44.8331 59.7637 44.9512 59.7562C45.8782 59.6944 46.744 59.3861 47.4836 58.8979C47.0063 58.5841 46.5765 58.1934 46.216 57.7299Z" fill="#3E4B5A"/>
<path d="M48.9962 51.9257H48.9955C49.505 52.7991 49.7645 53.8366 49.6698 54.9407C49.4562 57.4195 47.4217 59.4101 44.9388 59.5749C43.1631 59.693 41.5674 58.8999 40.5697 57.6187C40.3966 57.3969 40.135 57.2637 39.8535 57.2637H31.5073C30.7781 57.2637 30.3503 58.0835 30.7664 58.6823L36.6077 67.0724C36.7766 67.3148 37.0534 67.459 37.3486 67.459H60.3306C60.788 67.459 61.1725 67.117 61.226 66.6631C61.4286 64.9541 62.015 60.736 63.2818 56.3765L48.9962 51.9257Z" fill="#FF6B6B"/>
<path d="M43.0334 67.459C42.7381 67.459 42.4621 67.3148 42.2932 67.0724L36.4519 58.6823C36.0351 58.0835 36.4628 57.2643 37.1921 57.2637H31.5073C30.7781 57.2637 30.3503 58.0835 30.7664 58.6823L36.6084 67.0724C36.7766 67.3148 37.0534 67.459 37.3486 67.459H60.3313H43.0334Z" fill="#EE5253"/>
<path d="M47.4211 58.7228C50.4589 60.8026 55.0106 58.9418 55.3546 54.9407C55.3849 54.5878 55.3752 54.2404 55.3347 53.9005L48.9963 51.9257H48.9956C49.5051 52.7991 49.7647 53.8366 49.6699 54.9407C49.5346 56.5104 48.6688 57.8837 47.4211 58.7228Z" fill="#EE5253"/>
<path d="M85.9667 34.8584C86.1672 34.8584 86.3636 34.8667 86.5586 34.8776L85.3542 31.1677C84.9986 30.0732 84.5303 29.0226 83.9603 28.0297L80.0671 27.6486C78.8682 27.5312 77.7833 26.8865 77.1076 25.8888L71.7367 17.9559L70.9484 18.4393C70.2817 18.8486 70.0091 19.6863 70.3181 20.4059C71.4778 23.1051 73.3112 29.6179 65.8501 32.7435C61.2097 34.6874 56.419 37.0571 52.7173 38.981C54.9846 39.0147 57.4709 39.5207 59.9387 40.5486C63.4578 42.0146 66.2552 44.2531 67.9292 46.6783C68.0624 46.5238 68.197 46.3741 68.3344 46.2293C72.2366 42.1327 79.7203 40.2644 84.2123 39.4789C82.3378 39.1376 81.0036 38.2676 81.0036 37.2459C81.0043 35.9275 83.2263 34.8584 85.9667 34.8584Z" fill="#FECA57"/>
<path d="M57.5856 39.4068C57.85 39.2681 58.1246 39.1252 58.4027 38.9803C58.4027 38.9803 58.4027 38.9803 58.402 38.9803C58.4714 38.9446 58.6575 38.8485 58.7584 38.7963C62.4086 36.9067 67.0414 34.6256 71.5355 32.7429C75.5798 31.0489 76.8927 28.3593 77.0623 25.8208L71.7367 17.9553L70.9491 18.4387C70.2817 18.8486 70.0098 19.6856 70.3181 20.4052C71.4778 23.1051 73.3112 29.6172 65.8501 32.7429C61.2104 34.6868 56.419 37.0571 52.7173 38.9803C54.1448 39.0016 55.6596 39.2111 57.2018 39.6189C57.3281 39.5461 57.4558 39.4747 57.5856 39.4068Z" fill="#F4B537"/>
<path d="M79.8865 27.8299C78.6869 27.7125 77.602 27.067 76.927 26.0694L71.5225 18.0871L73.1141 17.1093C73.7733 16.7042 74.6288 16.8353 75.1376 17.4183L82.0728 25.3745C82.8432 26.2582 83.5127 27.2195 84.0778 28.2398L79.8865 27.8299Z" fill="#8AC2FF"/>
<path d="M81.7939 26.1545C80.5951 26.0371 79.5102 25.3923 78.8345 24.3946L73.752 16.8875C73.5315 16.9143 73.3139 16.9871 73.1141 17.1093L71.5217 18.0871L76.9263 26.0694C77.602 27.067 78.6869 27.7125 79.8858 27.8292L84.0777 28.2392C83.6939 27.547 83.2579 26.8837 82.7786 26.2506L81.7939 26.1545Z" fill="#54A0FF"/>
<path d="M53.8336 55.3747C52.1726 54.6826 50.6819 53.8085 49.4075 52.8211C48.9413 51.4766 47.9312 50.3862 46.6376 49.8184C46.3128 49.6762 46.1047 49.3521 46.1047 48.9964C46.1047 44.9713 48.3356 41.2765 51.9007 39.4068C52.2777 39.2097 52.6711 39.0044 53.0735 38.7963C55.2749 38.797 57.7084 39.2756 60.1205 40.2802C63.6938 41.7688 66.4823 44.1013 68.008 46.5891C65.7929 49.1152 64.2514 52.9618 63.1981 56.669C60.4694 57.1421 57.1316 56.748 53.8336 55.3747Z" fill="#EE5253"/>
<path d="M46.6376 49.8184C47.9312 50.3862 48.9413 51.4766 49.4068 52.8211C50.6812 53.8085 52.1726 54.6826 53.8336 55.3747C54.2841 55.5621 54.7345 55.7297 55.1849 55.8808C55.2666 55.5821 55.3264 55.2696 55.3545 54.9407C55.5454 52.7236 54.2868 50.6801 52.3223 49.8184C51.9968 49.6762 51.7895 49.3521 51.7895 48.9964C51.7895 44.9754 54.0156 41.2847 57.5738 39.4129C56.022 38.9989 54.499 38.7963 53.0735 38.7963C52.6711 39.0044 52.277 39.209 51.9007 39.4068C48.3356 41.2765 46.1047 44.9713 46.1047 48.9964C46.1047 49.3521 46.3121 49.6762 46.6376 49.8184Z" fill="#D83941"/>
<path d="M13.0139 27.5937C14.3158 26.0714 16.5639 25.8222 18.2166 26.9538C23.3898 30.4948 31.5218 31.4527 31.5218 31.4527L36.0866 36.5064L28.734 37.9861C27.1149 38.3116 25.4353 37.892 24.1595 36.8435L12.97 27.6459C12.9844 27.628 12.9988 27.6109 13.0139 27.5937Z" fill="#3E4B5A"/>
<path d="M33.169 36.8435L24.8009 29.9647C22.5851 29.2753 20.1866 28.3023 18.2173 26.9538C16.5639 25.8222 14.3158 26.0714 13.0139 27.5937C12.9995 27.6109 12.9844 27.628 12.97 27.6459L24.1595 36.8435C25.4353 37.892 27.1149 38.3116 28.734 37.9854L33.4258 37.0413C33.3386 36.9781 33.2528 36.9122 33.169 36.8435Z" fill="#374451"/>
<path d="M80.8806 37.2321C80.8806 35.8959 83.0401 34.8131 85.7036 34.8131C85.9927 34.8131 86.2749 34.8261 86.5496 34.8509L87.2678 37.0639C87.5843 38.0383 86.9451 39.0614 85.9309 39.2056C85.3926 39.2825 84.7588 39.382 84.0577 39.5063C82.2045 39.1692 80.8806 38.2779 80.8806 37.2321Z" fill="#576574"/>
<path d="M84.5631 37.2321C84.5631 36.4006 85.3994 35.6673 86.6732 35.2319L86.5489 34.8509C86.2749 34.8261 85.992 34.8131 85.7036 34.8131C83.0401 34.8131 80.8806 35.8959 80.8806 37.2321C80.8806 38.2779 82.2045 39.1692 84.0577 39.5063C84.7581 39.382 85.3919 39.2825 85.9309 39.2056C86.0696 39.1863 86.2001 39.1486 86.323 39.0984C85.2497 38.6549 84.5631 37.984 84.5631 37.2321Z" fill="#3E4B5A"/>
</svg>
