<svg width="80" height="80" viewBox="0 0 80 80" fill="none" xmlns="http://www.w3.org/2000/svg">
<g clip-path="url(#clip0_100_1361)">
<path d="M29.1529 21.8939C35.3197 34.81 24.7668 46.5264 24.7668 46.5264C24.7668 46.5264 9.02084 47.3666 2.85412 34.4505C-2.659 22.9038 1.3499 4.27189 2.26193 0.451109C2.34881 0.0873594 2.74865 -0.103422 3.086 0.0576719C6.63037 1.75064 23.6397 10.3472 29.1529 21.8939Z" fill="#EE6161"/>
<path d="M2.26203 0.451124C2.10671 1.10237 1.8614 2.18347 1.58875 3.5855C7.7339 6.84566 20.2208 14.3939 24.7952 23.9746C29.3695 33.5552 24.745 42.4743 22.0512 46.4425C23.7152 46.5819 24.7669 46.5263 24.7669 46.5263C24.7669 46.5263 35.3198 34.8099 29.153 21.8938C23.6398 10.3474 6.63093 1.75097 3.08609 0.0578428C2.74843 -0.103407 2.34875 0.0872178 2.26203 0.451124Z" fill="#E94444"/>
<path d="M44.2056 22.6003C41.3514 20.7506 40.8047 18.4426 41.9045 16.7455C43.0044 15.0483 45.3344 14.6047 48.1886 16.4545C51.0428 18.3044 52.677 22.7708 52.2406 23.4441C51.8042 24.1173 47.0598 24.4501 44.2056 22.6003Z" fill="#EE6161"/>
<path d="M17.4585 67.9785C20.6495 66.8016 22.8249 67.7466 23.5247 69.6439C24.2245 71.5413 23.1838 73.6725 19.9927 74.8496C16.8016 76.0264 12.2464 74.6588 11.9688 73.9061C11.6911 73.1533 14.2674 69.1553 17.4585 67.9785Z" fill="#FE7D43"/>
<path d="M36.7278 59.2079C36.6355 55.8079 38.2278 54.05 40.2494 53.9952C42.2709 53.9404 43.9563 55.6091 44.0486 59.0091C44.1409 62.4091 41.3858 66.2857 40.5838 66.3076C39.7817 66.3293 36.8202 62.6079 36.7278 59.2079Z" fill="#FFC344"/>
<path d="M64.6743 3.24952C67.8653 2.07265 70.0407 3.01765 70.7405 4.91499C71.4403 6.81233 70.3996 8.94358 67.2085 10.1206C64.0174 11.2975 59.4622 9.92983 59.1846 9.17718C58.9071 8.42421 61.4832 4.4264 64.6743 3.24952Z" fill="#FFC344"/>
<path d="M29.8392 54.4908C30.1173 55.0752 29.8704 55.7736 29.286 56.0533C29.1235 56.1314 28.9517 56.1674 28.7813 56.1674C28.3438 56.1674 27.9251 55.922 27.7235 55.5002L23.4376 46.5252L21.0235 41.4689L6.98916 40.1939C6.19697 39.4361 5.44541 38.5877 4.75322 37.6392L19.8501 39.008L15.5954 30.1002L0.956348 28.772C0.78291 27.9861 0.636035 27.1861 0.51416 26.3783L14.422 27.6408L9.93916 18.2517L0.0219727 17.3517C0.0407227 16.5595 0.0750977 15.7767 0.12041 15.0064L8.76416 15.7908L4.98916 7.88298L0.91416 7.51267C1.03604 6.69079 1.16416 5.91423 1.29072 5.19392L3.81416 5.42361L1.99541 1.61423C2.09932 1.14236 2.19025 0.751107 2.26182 0.451107C2.34869 0.0870442 2.749 -0.102956 3.08666 0.0584505C3.34822 0.18345 3.68307 0.345794 4.08119 0.543919L5.92963 4.41423L7.36088 2.27204C7.99994 2.62517 8.68432 3.01267 9.4015 3.43611L7.10307 6.87361L10.8796 14.7814L15.7296 7.52673C16.3578 7.97673 16.9874 8.44236 17.6156 8.92361L12.0531 17.2408L16.5359 26.6299L24.3265 14.9783C24.8796 15.5814 25.4093 16.197 25.9124 16.8267L17.7109 29.0908L21.964 37.9986L30.4312 25.3377C30.7343 26.4705 30.9234 27.5877 31.0156 28.6783L23.139 40.458L25.5656 45.5392L29.8392 54.4908Z" fill="#D83131"/>
<path d="M78.066 58.1061C84.2329 45.19 73.6799 33.4736 73.6799 33.4736C73.6799 33.4736 57.934 32.6334 51.7673 45.5495C46.2542 57.0963 50.2632 75.7281 51.1751 79.5489C51.262 79.9127 51.6618 80.1034 51.9992 79.9424C55.5437 78.2494 72.5531 69.6528 78.066 58.1061Z" fill="#FE7D43"/>
<path d="M51.1752 79.5489C51.0199 78.8977 50.7746 77.8166 50.502 76.4146C56.6471 73.1544 69.134 65.6061 73.7084 56.0255C78.2827 46.4449 73.6582 37.5258 70.9645 33.5575C72.6284 33.4182 73.6801 33.4738 73.6801 33.4738C73.6801 33.4738 84.233 45.1902 78.0662 58.1063C72.5532 69.6529 55.5443 78.2494 51.9995 79.9425C51.6618 80.1035 51.2621 79.9129 51.1752 79.5489Z" fill="#FD6930"/>
<path d="M78.7524 25.5093C79.0305 24.9249 78.7836 24.2265 78.1992 23.9468C78.0367 23.8686 77.8649 23.8327 77.6946 23.8327C77.2571 23.8327 76.8383 24.078 76.6367 24.4999L72.3508 33.4749L69.9367 38.5311L55.9024 39.8061C55.1102 40.564 54.3586 41.4124 53.6664 42.3608L68.7633 40.9921L64.5086 49.8999L49.8696 51.228C49.6961 52.014 49.5492 52.8139 49.4274 53.6218L63.3352 52.3593L58.8524 61.7483L48.9352 62.6483C48.9539 63.4405 48.9883 64.2233 49.0336 64.9936L57.6774 64.2093L53.9024 72.1171L49.8274 72.4874C49.9492 73.3093 50.0774 74.0858 50.2039 74.8061L52.7274 74.5765L50.9086 78.3858C51.0125 78.8577 51.1035 79.249 51.175 79.549C51.2619 79.913 51.6622 80.103 51.9999 79.9416C52.2614 79.8166 52.5963 79.6543 52.9944 79.4561L54.8428 75.5858L56.2741 77.728C56.9131 77.3749 57.5975 76.9874 58.3147 76.5639L56.0163 73.1264L59.7928 65.2186L64.6428 72.4733C65.271 72.0233 65.9007 71.5577 66.5288 71.0765L60.9663 62.7593L65.4491 53.3702L73.2397 65.0218C73.7928 64.4186 74.3225 63.803 74.8256 63.1733L66.6241 50.9093L70.8772 42.0014L79.3444 54.6624C79.6475 53.5296 79.8366 52.4124 79.9288 51.3218L72.0522 39.5421L74.4788 34.4608L78.7524 25.5093Z" fill="#FD5426"/>
</g>
<defs>
<clipPath id="clip0_100_1361">
<rect width="80" height="80" fill="white"/>
</clipPath>
</defs>
</svg>
