<svg width="80" height="80" viewBox="0 0 80 80" fill="none" xmlns="http://www.w3.org/2000/svg">
<path d="M72.4163 21.1387C74.1414 18.1308 75.0333 14.7173 75 11.25C75.0207 8.22159 74.3483 5.2286 73.0344 2.49999C72.8936 2.50112 72.7565 2.54591 72.6422 2.62818C72.5278 2.71046 72.4418 2.82617 72.396 2.95937C71.7007 4.89987 70.5369 6.63864 69.0081 8.02127C67.4792 9.40389 65.6326 10.3876 63.6322 10.885C56.9568 5.44956 48.6085 2.48745 40 2.49999C31.3916 2.48743 23.0432 5.44954 16.3679 10.885C14.3675 10.3876 12.5209 9.40386 10.992 8.02123C9.4632 6.63861 8.29944 4.89985 7.6041 2.95937C7.55827 2.82617 7.47226 2.71046 7.35792 2.62818C7.24357 2.54591 7.10653 2.50112 6.96567 2.49999C5.65176 5.2286 4.9794 8.22159 5.00004 11.25C4.96676 14.7173 5.85865 18.1308 7.58379 21.1387C4.24484 26.863 2.49016 33.3731 2.50004 40V46.25C2.50004 54.538 5.79244 62.4866 11.653 68.3471C17.5135 74.2076 25.462 77.5 33.75 77.5H46.25C54.5381 77.5 62.4866 74.2076 68.3471 68.3471C74.2076 62.4866 77.5 54.538 77.5 46.25V40C77.5099 33.3731 75.7552 26.863 72.4163 21.1387Z" fill="#F15143"/>
<path d="M77.5001 40V46.25C77.5001 54.538 74.2077 62.4866 68.3472 68.3471C62.4867 74.2076 54.5381 77.5 46.2501 77.5H33.7501C27.4662 77.5005 21.3281 75.607 16.1365 72.0666C10.945 68.5262 6.94099 63.5033 4.64697 57.6531C7.44437 62.1937 11.3581 65.9421 16.015 68.5411C20.672 71.1401 25.917 72.503 31.2501 72.5H43.7501C52.0381 72.5 59.9867 69.2076 65.8472 63.3471C71.7077 57.4866 75.0001 49.538 75.0001 41.25V35C75.0063 30.1281 74.0593 25.3021 72.2126 20.7937C75.6839 26.598 77.5116 33.2369 77.5001 40Z" fill="#D43232"/>
<path d="M64.1137 20.3203C64.9009 20.2325 65.3325 20.9141 64.6844 21.2191C63.9875 21.5466 63.2709 21.8441 62.5462 22.1253C61.1059 22.6784 59.6197 23.1587 58.094 23.5775C56.5684 23.9962 55.0022 24.3506 53.3897 24.6325C52.5672 24.7712 51.7365 24.8972 50.8856 24.9912C50.099 25.0781 49.6668 24.3975 50.315 24.0925C51.0159 23.7622 51.7372 23.4637 52.4665 23.1781C53.9259 22.6205 55.4123 22.1366 56.9203 21.7284C58.4475 21.3122 60.014 20.9578 61.6262 20.6759C62.4437 20.5397 63.2687 20.4147 64.1137 20.3203Z" fill="#4F3816"/>
<path d="M15.3157 21.2188C14.6663 20.9138 15.0991 20.2322 15.8863 20.32C16.73 20.4138 17.5566 20.5387 18.3738 20.6772C19.9863 20.9584 21.5529 21.3131 23.0797 21.7297C24.5877 22.1379 26.0742 22.6217 27.5335 23.1794C28.2629 23.465 28.9841 23.7634 29.685 24.0937C30.3329 24.3991 29.901 25.0794 29.1144 24.9925C28.2635 24.8987 27.4329 24.7738 26.6104 24.6338C24.9979 24.3519 23.4297 24.0002 21.906 23.5788C20.3804 23.1603 18.8941 22.6797 17.4538 22.1266C16.7294 21.8438 16.0125 21.5463 15.3157 21.2188Z" fill="#4F3816"/>
<path d="M56.25 39.375V40C56.2496 43.9291 54.8252 47.725 52.2406 50.6844C52.075 50.8781 51.9031 51.0656 51.725 51.25C50.2086 52.8308 48.3882 54.0886 46.3733 54.9478C44.3584 55.8071 42.1905 56.25 40 56.25C37.8095 56.25 35.6416 55.8071 33.6267 54.9478C31.6118 54.0886 29.7914 52.8308 28.275 51.25C28.0375 51.0031 27.8063 50.7469 27.5906 50.4844C25.1109 47.5537 23.7501 43.839 23.75 40V39.375C23.75 38.8777 23.9475 38.4008 24.2992 38.0492C24.6508 37.6975 25.1277 37.5 25.625 37.5H54.375C54.8723 37.5 55.3492 37.6975 55.7008 38.0492C56.0525 38.4008 56.25 38.8777 56.25 39.375Z" fill="#4F3816"/>
<path d="M52.2406 50.7269C52.075 50.9231 51.9031 51.1131 51.725 51.3C50.2196 52.8998 48.4029 54.1746 46.3865 55.046C44.37 55.9174 42.1966 56.367 40 56.367C37.8033 56.367 35.6299 55.9174 33.6134 55.046C31.597 54.1746 29.7803 52.8998 28.275 51.3C28.0375 51.05 27.8062 50.79 27.5906 50.5241C28.2809 49.5813 29.1849 48.8157 30.2284 48.29C31.2719 47.7643 32.4253 47.4936 33.5937 47.5C34.8653 47.511 36.1146 47.8344 37.2317 48.4419C38.3489 49.0493 39.2995 49.9221 40 50.9834C41.2937 48.9522 43.4531 47.5 46.0937 47.5C47.3042 47.4932 48.4979 47.7839 49.5697 48.3466C50.6415 48.9092 51.5587 49.7266 52.2406 50.7269Z" fill="#D43232"/>
<path d="M63.75 28.75V29.375C63.7513 30.3126 63.5174 31.2356 63.0697 32.0594C62.6221 32.8832 61.9749 33.5816 61.1875 34.0906C58.7501 33.6365 56.2499 33.6365 53.8125 34.0906C53.0251 33.5816 52.3779 32.8832 51.9303 32.0594C51.4826 31.2356 51.2487 30.3126 51.25 29.375V28.75C51.25 27.0924 51.9085 25.5027 53.0806 24.3306C54.2527 23.1585 55.8424 22.5 57.5 22.5C59.1576 22.5 60.7473 23.1585 61.9194 24.3306C63.0915 25.5027 63.75 27.0924 63.75 28.75Z" fill="#4F3816"/>
<path d="M16.25 28.75V29.375C16.2487 30.3126 16.4826 31.2356 16.9303 32.0594C17.3779 32.8832 18.0251 33.5816 18.8125 34.0906C21.2499 33.6365 23.7501 33.6365 26.1875 34.0906C26.9749 33.5816 27.6221 32.8832 28.0697 32.0594C28.5174 31.2356 28.7513 30.3126 28.75 29.375V28.75C28.75 27.0924 28.0915 25.5027 26.9194 24.3306C25.7473 23.1585 24.1576 22.5 22.5 22.5C20.8424 22.5 19.2527 23.1585 18.0806 24.3306C16.9085 25.5027 16.25 27.0924 16.25 28.75Z" fill="#4F3816"/>
</svg>
