<svg width="80" height="80" viewBox="0 0 80 80" fill="none" xmlns="http://www.w3.org/2000/svg">
<path d="M68.1386 28.8579L68.9 28.1802C73.7727 23.8432 76.9649 17.9307 77.918 11.4774C78.2501 9.22875 77.7454 6.93657 76.4997 5.03529L76.3296 4.77575C74.4106 1.8469 71.0067 0.247323 67.5273 0.639494C62.4538 1.21135 58.7949 5.77384 59.3387 10.8504C59.63 13.5694 59.084 19.3233 59.084 19.3233L56.0383 32.5554L68.1386 28.8579Z" fill="#F3F0F3"/>
<path d="M66.0649 21.2146C66.0649 21.2146 66.6111 15.4607 66.3197 12.7416C65.7837 7.73721 69.3327 3.23509 74.294 2.5604C72.4078 1.08124 69.9868 0.362342 67.5273 0.639476C62.4538 1.21133 58.7949 5.77382 59.3387 10.8503C59.63 13.5694 59.084 19.3233 59.084 19.3233L56.0383 32.5554L64.0156 30.1176L66.0649 21.2146Z" fill="#E2DEE2"/>
<path d="M47.4847 16.0831L39.3854 16.178L37.0168 18.0549V78.7153H62.7171H69.8434V38.4416C69.8434 26.0934 59.8329 16.0831 47.4847 16.0831Z" fill="#CBC4CC"/>
<path d="M7.0966 33.6509L5.63487 34.1916C4.23795 34.7081 2.68574 34.0014 2.15825 32.6084C1.74976 31.5295 2.06857 30.3101 2.95305 29.5693L5.36978 27.5452L8.92562 24.3548L12.1208 29.1394L7.0966 33.6509Z" fill="#E2DEE2"/>
<path d="M34.1934 17.2885C36.4694 16.5078 38.9108 16.0831 41.4516 16.0831C53.8 16.0831 63.8103 26.0934 63.8103 38.4416V78.7151H19.093V49.1175V38.2135C19.093 38.2135 17.8607 20.2061 34.1934 17.2885Z" fill="#B5ADB6"/>
<path d="M45.0612 70.737C36.1889 70.737 28.9964 63.5447 28.9964 54.6722V41.1394V30.2353C28.9964 30.2353 28.5513 23.7042 31.7635 17.8711C17.9895 22.0516 19.0928 38.2134 19.0928 38.2134V49.1175V78.7151H63.8101V70.7368H45.0612V70.737Z" fill="#A79BA7"/>
<path d="M73.3089 80H16.0248C15.3685 80 14.8364 79.468 14.8364 78.8116C14.8364 78.1551 15.3685 77.6232 16.0248 77.6232H73.3089C73.9653 77.6232 74.4973 78.1551 74.4973 78.8116C74.4973 79.468 73.9653 80 73.3089 80Z" fill="#A79BA7"/>
<path d="M38.2502 47.8337V64.7945C38.2502 65.3252 38.6804 65.7552 39.2109 65.7552H43.8509C44.3815 65.7552 44.8116 65.325 44.8116 64.7945V45.479C44.8116 45.0822 45.1332 44.7606 45.5298 44.7606H52.8876C53.2844 44.7606 53.6059 44.4389 53.6059 44.0421V38.9173C53.6059 38.5207 53.2842 38.199 52.8876 38.199H45.5298C45.1331 38.199 44.8116 37.8774 44.8116 37.4806V29.8576C44.8116 29.4608 44.4899 29.1392 44.0933 29.1392H38.9685C38.5717 29.1392 38.2502 29.4608 38.2502 29.8576V37.4806C38.2502 37.8774 37.9285 38.199 37.5319 38.199H32.0515V44.7661C32.0515 44.7661 38.2364 44.3037 38.2364 44.7661C38.2362 45.2286 38.2502 47.8337 38.2502 47.8337Z" fill="#918291"/>
<path d="M16.6361 0.126744C16.6361 0.126744 1.7273 1.12943 4.9027 22.7722C6.84755 36.0284 10.5167 43.8556 17.0622 48.0001C24.1712 52.5014 33.4134 51.7323 39.8465 46.3086L40.2572 45.9624C40.7227 45.5699 40.5213 44.8139 39.9222 44.7046C37.0046 44.172 31.1362 42.3272 31.8934 36.1421C32.8961 27.953 37.1578 19.5486 31.3084 7.33064C31.3085 7.3308 27.7012 -1.12678 16.6361 0.126744Z" fill="#F3F0F3"/>
<path d="M12.4946 25.7722C9.31925 4.12942 24.2281 3.12657 24.2281 3.12657C25.5535 2.97636 26.7709 2.96685 27.889 3.06414C25.5906 1.18394 21.9847 -0.479181 16.6361 0.126743C16.6361 0.126743 1.7273 1.12943 4.9027 22.7722C6.84755 36.0284 10.5167 43.8558 17.0622 48.0003C19.2799 49.4045 21.7054 50.2956 24.1883 50.6927C17.9347 46.4739 14.3928 38.7094 12.4946 25.7722Z" fill="#E2DEE2"/>
<path d="M27.2124 28.6714C27.4673 28.6846 27.6651 28.9027 27.6497 29.1574C27.5546 30.7314 26.9764 32.2423 25.9882 33.4808L25.293 34.3519C24.4451 35.4147 22.9061 35.611 21.8185 34.7953C20.603 33.8837 20.4673 32.1108 21.5298 31.0247C22.133 30.4082 22.563 29.6465 22.7803 28.8162C22.8361 28.603 23.03 28.4559 23.2501 28.4672L27.2124 28.6714Z" fill="#E2DEE2"/>
<path d="M10.0243 10.4224C9.57001 11.1983 9.41156 12.154 9.67538 13.1137C10.107 14.6844 11.6112 15.7584 13.2369 15.6559C14.4626 15.5786 15.4735 14.8966 16.0349 13.9405C16.1807 13.6922 16.1008 13.3734 15.852 13.2286C14.2975 12.3241 12.1999 11.1006 10.735 10.234C10.487 10.0876 10.1698 10.1739 10.0243 10.4224Z" fill="#FE9738"/>
<path d="M12.4058 15.6043C12.6461 14.1877 12.9994 12.9329 13.4339 11.8188C12.4732 11.2574 11.5144 10.6951 10.7348 10.2342C10.487 10.0876 10.1698 10.1739 10.0243 10.4224C9.57001 11.1983 9.41156 12.154 9.67538 13.1137C10.0321 14.4114 11.1213 15.368 12.4058 15.6043Z" fill="#FE860A"/>
<path d="M25.9731 9.22954C26.5507 9.9185 26.8669 10.8342 26.7674 11.8247C26.6047 13.4455 25.3014 14.7561 23.6814 14.9269C22.4602 15.0557 21.3493 14.5525 20.6359 13.7038C20.4507 13.4834 20.4761 13.1557 20.6971 12.9712C22.0785 11.8195 23.9419 10.262 25.2411 9.16268C25.461 8.97681 25.788 9.00898 25.9731 9.22954Z" fill="#FE9738"/>
<path d="M18.037 24.3547C17.8231 24.3547 17.6081 24.3059 17.4078 24.207L15.7217 23.3742L14.3652 24.0498C13.7775 24.3426 13.0642 24.1034 12.7717 23.516C12.479 22.9284 12.7181 22.2151 13.3056 21.9224L15.0873 21.0349C15.4828 20.8386 15.9535 20.8378 16.3479 21.0325L17.9339 21.8158L18.9415 21.0649C19.3975 20.7251 20.0096 20.6901 20.5013 20.9753L21.6442 21.6378L23.1766 20.747C23.7437 20.417 24.4713 20.6098 24.8012 21.1772C25.1311 21.7446 24.9385 22.4721 24.371 22.802L22.358 23.9722C21.9193 24.2273 21.3736 24.2279 20.9339 23.9734L19.8553 23.3483L18.8837 24.0723C18.6335 24.2593 18.3365 24.3547 18.037 24.3547Z" fill="#E2DEE2"/>
<path d="M71.2733 17.5649C70.9616 17.5649 70.6502 17.4431 70.4172 17.2008L69.5758 16.3271L68.7136 17.0214C68.0613 17.5469 67.1299 17.5277 66.4996 16.9747L65.6205 16.204L64.5682 16.882C64.0165 17.2379 63.2809 17.0785 62.9255 16.5271C62.5699 15.9753 62.7289 15.2398 63.2804 14.8844L64.7487 13.9381C65.391 13.5241 66.2407 13.5865 66.8155 14.0907L67.6522 14.8243L68.5525 14.0994C69.2513 13.5363 70.2482 13.5993 70.8713 14.246L72.1291 15.5523C72.5843 16.0249 72.5701 16.7773 72.0974 17.2325C71.8668 17.4545 71.5699 17.5649 71.2733 17.5649Z" fill="#E2DEE2"/>
<path d="M64.7487 13.9381L63.2804 14.8844C62.7289 15.2398 62.5699 15.9753 62.9255 16.5271C63.2809 17.0785 64.0165 17.2379 64.5682 16.882L65.6205 16.204L66.3574 16.8501C66.4004 15.8107 66.421 14.7383 66.3896 13.8186C65.8675 13.5838 65.246 13.6174 64.7487 13.9381Z" fill="#CBC4CC"/>
<path d="M64.5361 10.1324C63.8796 10.1324 63.3477 9.60051 63.3477 8.94404V7.81791C63.3477 7.16144 63.8796 6.62952 64.5361 6.62952C65.1925 6.62952 65.7244 7.16144 65.7244 7.81791V8.94404C65.7244 9.60051 65.1925 10.1324 64.5361 10.1324Z" fill="#FE860A"/>
<path d="M71.724 10.1324C71.0676 10.1324 70.5356 9.60051 70.5356 8.94404V7.81791C70.5356 7.16144 71.0676 6.62952 71.724 6.62952C72.3805 6.62952 72.9124 7.16144 72.9124 7.81791V8.94404C72.9124 9.60051 72.3805 10.1324 71.724 10.1324Z" fill="#FE9738"/>
</svg>
