<svg width="80" height="80" viewBox="0 0 80 80" fill="none" xmlns="http://www.w3.org/2000/svg">
<g clip-path="url(#clip0_122_1356)">
<path d="M25.7811 10.7367L21.6675 6.62312L27.5054 0.785149C28.0897 0.20093 29.0369 0.20093 29.6211 0.785149L31.6189 2.78296C32.2031 3.36718 32.2031 4.31437 31.6189 4.89859L25.7811 10.7367Z" fill="#3D6687"/>
<path d="M36.7183 15.8945L32.6047 11.7809L38.4427 5.94292C39.0269 5.35871 39.9741 5.35871 40.5583 5.94292L42.5561 7.94074C43.1404 8.52496 43.1404 9.47214 42.5561 10.0564L36.7183 15.8945Z" fill="#3D6687"/>
<path d="M69.6101 54.5658L73.7237 58.6794L79.5617 52.8414C80.1459 52.2572 80.1459 51.31 79.5617 50.7258L77.5637 48.7278C76.9795 48.1436 76.0323 48.1436 75.4481 48.7278L69.6101 54.5658Z" fill="#3D6687"/>
<path d="M63.7583 43.6286L67.8719 47.7422L73.7099 41.9043C74.2941 41.32 74.2941 40.3729 73.7099 39.7886L71.7121 37.7908C71.1278 37.2066 70.1806 37.2066 69.5964 37.7908L63.7583 43.6286Z" fill="#3D6687"/>
<path d="M69.2776 71.6931L43.1656 36.7106L8.18293 10.5984C6.95715 9.68341 6.82777 7.89388 7.90949 6.81216L11.4959 3.22559C13.1017 1.61981 15.5167 1.13966 17.6143 2.00919L60.2122 19.6637L77.8667 62.2615C78.7361 64.3595 78.2559 66.7743 76.6503 68.38L73.0639 71.9664C71.9823 73.0484 70.1926 72.9192 69.2776 71.6931Z" fill="#CCDFED"/>
<path d="M28.4038 79.2232L16.3952 63.2574L0.429611 51.2488C-0.0936699 50.8554 -0.147576 50.0897 0.315549 49.6268L2.15649 47.7858C3.39696 46.5454 5.27602 46.2032 6.87414 46.9266L24.6702 54.9826L32.7262 72.7787C33.4496 74.3768 33.1073 76.2558 31.867 77.4963L30.0259 79.3372C29.5629 79.8002 28.7973 79.7465 28.4038 79.2232Z" fill="#CCDFED"/>
<path d="M32.7262 72.7787L29.9675 66.6845L28.25 68.4018C26.7539 69.8979 24.2801 69.7239 23.0084 68.0329L18.1197 61.5331L18.1043 61.5482L1.14981 48.7926L0.315433 49.627C-0.147536 50.0899 -0.09363 50.8554 0.429495 51.249L16.3953 63.2576L28.4039 79.2234C28.7973 79.7467 29.5629 79.8006 30.0259 79.3374L31.867 77.4963C33.1073 76.2559 33.4496 74.3768 32.7262 72.7787Z" fill="#BAD5E5"/>
<path d="M77.7732 66.7674C77.8454 66.6113 77.9129 66.4533 77.9703 66.2916C78.0881 65.9603 78.1707 65.6183 78.2246 65.2716C78.3795 64.2747 78.2701 63.2344 77.867 62.2614L75.3007 56.0692L75.1377 55.676C74.9857 56.8888 74.4392 58.0461 73.5373 58.948L69.9509 62.5344C68.8692 63.6161 67.0798 63.4869 66.1646 62.261L45.4142 34.462L8.18072 6.54095L7.90963 6.81205C7.19885 7.52283 7.01432 8.53814 7.31666 9.41111C7.47447 9.86689 7.76275 10.2844 8.18307 10.5981L30.9118 27.5636L43.1657 36.7103L52.3124 48.9642L69.2779 71.693C69.5917 72.1135 70.0093 72.4016 70.4649 72.5594C71.3379 72.8617 72.3534 72.6772 73.0642 71.9664L76.6506 68.38C77.1265 67.9044 77.5007 67.3561 77.7732 66.7674Z" fill="#BAD5E5"/>
<path d="M16.3929 67.5442C13.6594 68.8486 10.8043 65.9935 12.1086 63.26C15.0077 57.1846 18.7107 51.5264 23.118 46.438L53.4049 11.4714C57.8855 6.2983 64.1946 3.06018 71.0099 2.43533L72.8669 2.26518C75.4557 2.02783 77.6252 4.19721 77.388 6.78611L77.2178 8.64315C76.593 15.4583 73.3547 21.7674 68.1818 26.2481L33.215 56.535C28.1264 60.9422 22.4686 64.6453 16.3929 67.5442Z" fill="#61AFF6"/>
<path d="M77.2177 8.64314L77.3878 6.78611C77.6252 4.19736 75.4556 2.02783 72.8667 2.26517L71.0097 2.43533C70.9855 2.43752 70.9614 2.44064 70.9372 2.44283C70.2961 9.23017 67.0633 15.5105 61.9086 19.9753L12.7522 66.9308C13.6452 67.8125 15.0339 68.1928 16.3928 67.5442C22.4683 64.6453 28.1264 60.9422 33.2149 56.535L68.1814 26.2481C73.3545 21.7674 76.5928 15.4585 77.2177 8.64314Z" fill="#399AEA"/>
<path d="M62.6393 8.7906C61.9807 8.73435 61.4013 9.22264 61.3447 9.88092C61.2885 10.5394 61.7768 11.119 62.4351 11.1754C66.024 11.4826 68.1697 13.6286 68.4768 17.2172C68.5019 17.5095 68.6301 17.7684 68.8226 17.9609C69.0635 18.2019 69.4052 18.3387 69.7712 18.3075C70.4297 18.2511 70.9179 17.6715 70.8615 17.0129C70.4562 12.2704 67.3821 9.19623 62.6393 8.7906Z" fill="white"/>
<path d="M69.7716 18.3078C70.4302 18.2514 70.9183 17.6718 70.8619 17.0132C70.6633 14.6931 69.8248 12.7739 68.4664 11.3693C68.0977 12.1415 67.6919 12.8956 67.25 13.6287C67.9363 14.5773 68.3542 15.7815 68.477 17.2173C68.5022 17.5096 68.6303 17.7685 68.8228 17.961C69.0639 18.202 69.4056 18.3392 69.7716 18.3078Z" fill="#CCDFED"/>
</g>
<defs>
<clipPath id="clip0_122_1356">
<rect width="80" height="80" fill="white"/>
</clipPath>
</defs>
</svg>
