<svg width="80" height="80" viewBox="0 0 80 80" fill="none" xmlns="http://www.w3.org/2000/svg">
<g clip-path="url(#clip0_119_858)">
<path d="M70.4424 7.05422C50.1476 5.52656 29.8529 5.52656 9.55821 7.05422C5.16774 7.38469 1.66118 10.83 1.22743 15.2113C-0.408818 31.7372 -0.408818 48.2628 1.22743 64.7888C1.66118 69.1702 5.16774 72.6153 9.55821 72.9458C29.8531 74.4734 50.1477 74.4734 70.4424 72.9458C74.8327 72.6153 78.3393 69.1702 78.7732 64.7888C80.4095 48.2628 80.4095 31.7372 78.7732 15.2113C78.3393 10.83 74.8327 7.38469 70.4424 7.05422Z" fill="#D82E3D"/>
<path d="M11.3497 73.0769C10.7525 73.035 10.1554 72.9916 9.55816 72.9464C5.16707 72.6148 1.66129 69.1702 1.2266 64.7886C-0.408867 48.2622 -0.408867 31.7375 1.2266 15.2111C1.66113 10.8297 5.16707 7.385 9.55816 7.055C10.1538 7.01 10.751 6.96656 11.3464 6.92453C8.47645 8.30406 6.4241 11.1097 6.0941 14.4417C4.40723 31.48 4.40723 48.5198 6.0941 65.558C6.4241 68.8902 8.47816 71.6973 11.3497 73.0769Z" fill="#C32430"/>
<path d="M60.7935 28.3144C46.9311 27.3938 33.0688 27.3938 19.2065 28.3144C16.2265 28.5123 13.8304 30.8333 13.5099 33.8025C12.4827 43.3181 12.4827 52.8338 13.5099 62.3495C13.8304 65.3188 16.2266 67.6397 19.2065 67.8377C33.0688 68.7583 46.9311 68.7583 60.7935 67.8377C63.7735 67.6397 66.1696 65.3188 66.4901 62.3495C67.5172 52.8339 67.5172 43.3183 66.4901 33.8025C66.1696 30.8331 63.7735 28.5122 60.7935 28.3144Z" fill="#93D8E4"/>
<path d="M40.0001 69.732C33.0261 69.732 26.0519 69.502 19.1266 69.0422C15.5616 68.8055 12.6947 66.0452 12.3097 62.4789C11.278 52.9219 11.278 43.23 12.3097 33.6728C12.6947 30.1067 15.5616 27.3466 19.1266 27.1097C32.9772 26.1898 47.023 26.1898 60.8736 27.1097C64.4386 27.3464 67.3055 30.1067 67.6905 33.6728C68.7222 43.23 68.7222 52.9219 67.6905 62.4791C67.3055 66.0452 64.4386 68.8055 60.8736 69.0422C53.9484 69.502 46.9742 69.732 40.0001 69.732ZM40.0001 28.8342C33.0795 28.8342 26.1587 29.0625 19.2867 29.5189C16.8939 29.6778 14.9694 31.5338 14.7105 33.932C13.6972 43.3172 13.6972 52.8345 14.7105 62.2198C14.9694 64.6181 16.8939 66.4741 19.2867 66.633C33.0311 67.5456 46.9694 67.5456 60.7137 66.633C63.1066 66.4741 65.0311 64.6181 65.29 62.2198C66.3033 52.8345 66.3033 43.3172 65.29 33.932C65.0311 31.5338 63.1066 29.6778 60.7137 29.5189C53.8416 29.0625 46.9208 28.8342 40.0001 28.8342Z" fill="#C32430"/>
<path d="M40.0001 57.5163C45.2139 57.5163 49.4404 53.2897 49.4404 48.0759C49.4404 42.8622 45.2139 38.6356 40.0001 38.6356C34.7864 38.6356 30.5598 42.8622 30.5598 48.0759C30.5598 53.2897 34.7864 57.5163 40.0001 57.5163Z" fill="#D82E3D"/>
<path d="M63.3058 46.8688H56.2493L57.6741 45.4439C58.1455 44.9725 58.1455 44.2081 57.6741 43.7366C57.2026 43.2652 56.4383 43.2652 55.9666 43.7366L52.481 47.2222C52.0096 47.6936 52.0096 48.458 52.481 48.9295L55.9666 52.4152C56.2024 52.6509 56.5113 52.7688 56.8204 52.7688C57.1293 52.7688 57.4383 52.6508 57.6741 52.4152C58.1455 51.9438 58.1455 51.1794 57.6741 50.7078L56.2493 49.283H63.3058C63.9727 49.283 64.513 48.7425 64.513 48.0758C64.513 47.4092 63.9727 46.8688 63.3058 46.8688Z" fill="#81A7C6"/>
<path d="M24.0335 43.7366C23.5621 43.2652 22.7978 43.265 22.326 43.7366C21.8546 44.208 21.8546 44.9723 22.326 45.4439L23.7508 46.8688H16.6942C16.0274 46.8688 15.4871 47.4092 15.4871 48.0759C15.4871 48.7427 16.0275 49.2831 16.6942 49.2831H23.7508L22.326 50.708C21.8546 51.1794 21.8546 51.9438 22.326 52.4153C22.5617 52.6511 22.8708 52.7689 23.1797 52.7689C23.4886 52.7689 23.7977 52.6509 24.0335 52.4153L27.5191 48.9297C27.9905 48.4583 27.9905 47.6939 27.5191 47.2223L24.0335 43.7366Z" fill="#81A7C6"/>
<path d="M57.9402 51.0722C57.9353 51.4139 57.93 51.7519 57.9246 52.0848C58.078 51.7659 58.0833 51.3947 57.9402 51.0722Z" fill="#93D8E4"/>
<path d="M57.9472 45.0647C58.0808 44.7522 58.0756 44.3953 57.9331 44.0856C57.9381 44.4083 57.9429 44.7345 57.9472 45.0647Z" fill="#93D8E4"/>
<path d="M19.7617 11.0259C19.6158 10.5392 19.0219 10.2248 18.2484 10.2248C17.6694 10.2248 16.93 10.4347 16.7528 11.0258L13.3639 22.0714C13.3451 22.1458 13.3276 22.2163 13.3276 22.2563C13.3276 22.8595 14.2042 23.2445 14.8076 23.2445C15.2609 23.2445 15.534 23.0809 15.6187 22.7589L16.2775 20.453H20.2372L20.8956 22.758C20.9806 23.0808 21.2537 23.2445 21.7072 23.2445C22.2964 23.2445 23.187 22.8503 23.187 22.2563C23.187 22.2097 23.1753 22.165 23.1617 22.1133L19.7617 11.0259ZM19.7225 18.5817H16.7744L18.2484 13.3797L19.7225 18.5817Z" fill="#EFE7E4"/>
<path d="M31.8016 21.1625H27.5581V11.0727C27.5581 10.5597 26.9647 10.3302 26.3767 10.3302C25.8317 10.3302 25.1953 10.5245 25.1953 11.0727V22.4844C25.1953 23.0066 25.735 23.2444 26.2363 23.2444H31.8017C32.2777 23.2444 32.5267 22.7206 32.5267 22.2034C32.5266 21.7022 32.2997 21.1625 31.8016 21.1625Z" fill="#EFE7E4"/>
<path d="M40.1089 11.0259C39.9629 10.5392 39.369 10.2248 38.5956 10.2248C38.0165 10.2248 37.2771 10.4347 37.1 11.0258L33.7111 22.0714C33.6923 22.1458 33.6748 22.2163 33.6748 22.2563C33.6748 22.8595 34.5514 23.2445 35.1548 23.2445C35.6081 23.2445 35.8812 23.0809 35.9659 22.7589L36.6246 20.453H40.5843L41.2429 22.758C41.3278 23.0808 41.6009 23.2445 42.0543 23.2445C42.6436 23.2445 43.5342 22.8503 43.5342 22.2563C43.5342 22.2097 43.5225 22.165 43.5089 22.1133L40.1089 11.0259ZM40.0698 18.5817H37.1215L38.5957 13.3797L40.0698 18.5817Z" fill="#EFE7E4"/>
<path d="M51.7159 17.5748C53.1879 17.1028 53.9976 15.8494 53.9976 14.0397C53.9976 11.5781 52.5841 10.3302 49.7965 10.3302H46.3204C45.8843 10.3302 45.5427 10.6564 45.5427 11.0727V22.4844C45.5427 22.9833 46.1371 23.2444 46.7241 23.2444C47.2932 23.2444 47.9055 23.0066 47.9055 22.4844V17.9423H49.3154L51.7969 22.7656C51.9743 23.1203 52.2832 23.3322 52.623 23.3322C53.3201 23.3322 54.0854 22.6863 54.0854 22.0981C54.0854 22.0547 54.0785 21.9042 53.9926 21.7981L51.7159 17.5748ZM51.6348 14.2505C51.6348 15.4927 51.0507 16.0711 49.7963 16.0711H47.9054V12.4122H49.7963C51.0335 12.4122 51.6348 13.0134 51.6348 14.2505Z" fill="#EFE7E4"/>
<path d="M65.4914 10.3302C64.6525 10.3302 64.2503 10.5163 63.6653 11.5625L61.5411 15.4309L59.4165 11.5622C58.8272 10.5083 58.4483 10.3302 57.6084 10.3302C56.8687 10.3302 56.427 10.7717 56.427 11.5116V22.4844C56.427 23.0066 57.0393 23.2444 57.6084 23.2444C58.1956 23.2444 58.7898 22.9833 58.7898 22.4844V14.9558L60.7334 18.6063C60.9075 18.923 61.1733 19.0836 61.5234 19.0836C61.8801 19.0836 62.1593 18.9186 62.3312 18.6064L64.3098 15.0888V22.4844C64.3098 23.0066 64.9223 23.2444 65.4912 23.2444C66.0783 23.2444 66.6725 22.9833 66.6725 22.4844V11.5116C66.6726 10.7719 66.2311 10.3302 65.4914 10.3302Z" fill="#EFE7E4"/>
</g>
<defs>
<clipPath id="clip0_119_858">
<rect width="80" height="80" fill="white"/>
</clipPath>
</defs>
</svg>
